{"glyphs":{"0":{"ha":1281,"x_min":34,"x_max":1220,"o":"m 336 1874 q 373 1858 373 1874 q 431 1421 373 1824 l 426 1421 q 437 1396 437 1407 l 437 1371 l 431 1363 l 437 1363 q 431 1360 437 1360 l 437 1310 l 437 1306 q 426 1282 437 1295 q 431 1278 431 1282 l 416 1270 q 394 1383 408 1371 l 399 1392 l 399 1396 l 394 1416 q 399 1421 399 1416 q 368 1600 384 1421 l 363 1600 q 368 1605 363 1605 q 357 1637 368 1612 l 363 1637 q 326 1850 343 1707 q 331 1862 331 1858 q 326 1866 326 1862 q 336 1874 336 1866 m 210 1666 q 257 1592 229 1666 q 315 1371 315 1390 l 310 1363 q 315 1347 315 1356 l 315 1343 l 310 1343 q 215 1576 252 1460 l 220 1576 q 215 1588 215 1584 q 210 1666 215 1601 m 515 1666 q 536 1641 522 1666 q 526 1576 526 1590 l 532 1576 l 526 1568 l 526 1490 q 494 1376 526 1392 q 489 1380 494 1380 q 484 1523 484 1476 l 484 1572 q 515 1666 484 1655 m 621 1510 q 637 1487 637 1507 l 637 1474 q 553 1335 586 1335 q 542 1343 553 1343 q 621 1510 589 1491 m 720 1298 q 767 1284 730 1291 q 772 1291 767 1291 q 867 1259 772 1269 q 883 1246 867 1252 q 888 1252 883 1252 q 999 1161 888 1240 q 1078 1058 1078 1092 q 1120 928 1085 1058 q 1220 479 1146 857 q 1152 174 1220 399 q 1046 5 1141 174 q 814 -216 914 -159 q 630 -313 737 -279 l 630 -307 q 509 -326 589 -326 q 319 -216 399 -300 q 213 -60 286 -201 q 176 37 213 -47 q 76 317 150 130 l 39 486 q 45 492 39 492 l 39 538 l 39 603 q 34 609 39 609 q 165 986 34 753 q 408 1200 293 1148 q 656 1291 570 1291 l 656 1284 l 667 1291 l 677 1291 q 699 1284 689 1291 q 720 1298 720 1289 m 656 1226 q 572 1200 656 1215 l 572 1206 q 340 1076 457 1152 q 92 661 160 924 q 97 655 92 655 q 92 603 92 619 q 186 259 92 340 q 245 200 210 217 q 350 129 252 177 q 355 136 355 129 l 450 121 l 450 129 q 456 121 456 129 q 688 200 536 121 q 836 337 796 288 q 904 434 850 379 q 1021 655 994 597 q 1050 876 1057 740 q 1003 1076 1061 1004 q 840 1194 909 1183 q 767 1213 813 1213 l 746 1213 q 735 1226 735 1213 l 699 1219 l 682 1219 l 656 1226 m 608 875 q 667 857 644 857 l 677 857 q 709 791 677 842 l 709 779 l 703 765 q 709 758 703 758 q 651 583 709 672 q 509 498 594 498 q 403 635 403 555 q 408 655 403 642 q 403 661 408 661 q 466 785 428 785 q 583 857 503 857 q 608 875 583 865 m 572 779 q 619 661 619 679 l 625 661 q 646 720 646 711 q 608 791 608 764 q 572 779 572 789 m 1099 779 q 994 447 1099 650 q 962 395 968 447 q 1020 180 962 379 q 1046 109 1038 109 q 1088 194 1046 121 q 1157 414 1124 250 l 1152 414 q 1173 479 1162 479 l 1104 779 l 1099 779 m 492 726 q 556 589 556 625 l 561 589 l 577 603 q 519 752 519 736 q 492 726 495 739 m 456 648 l 456 629 l 477 589 q 492 583 487 583 q 461 648 465 633 l 456 648 m 914 349 q 857 271 910 328 l 857 265 q 909 96 857 246 q 941 -21 932 -12 q 1009 63 941 -16 q 914 349 943 302 m 809 226 q 767 180 809 218 l 767 174 q 857 -85 830 9 l 872 -85 q 904 -47 872 -71 q 809 226 848 159 m 197 148 l 197 136 q 287 -80 230 19 q 372 -176 305 -138 l 372 -170 q 281 103 298 72 q 197 148 272 103 m 724 142 l 724 129 l 783 -112 l 798 -112 q 772 25 798 -1 l 730 142 l 724 142 m 672 116 q 667 96 672 109 q 730 -124 667 64 q 741 -138 732 -138 l 741 -132 q 677 109 730 -73 l 677 116 l 672 116 m 608 77 l 614 77 l 608 63 l 608 44 q 677 -196 633 3 q 703 -203 694 -196 l 703 -196 q 619 90 703 -161 q 608 77 608 88 m 345 63 l 345 44 q 403 -182 403 -104 l 403 -210 q 440 -228 408 -210 l 440 -222 q 471 -235 457 -235 l 471 -228 q 387 58 450 -138 q 366 63 369 63 l 366 58 l 355 63 l 345 63 m 435 58 l 435 50 q 513 -241 513 -189 l 535 -241 l 535 -235 l 456 58 l 435 58 m 503 58 l 566 -216 l 587 -216 l 587 -182 q 519 58 577 -165 l 503 58 m 1152 -46 l 1157 -46 q 1210 -119 1189 -60 l 1204 -131 l 1204 -164 q 935 -487 1204 -281 q 846 -532 867 -532 l 830 -532 q 804 -503 823 -532 l 804 -498 q 872 -475 804 -490 q 962 -413 944 -413 q 1178 -119 1178 -220 l 1152 -46 m 1004 -187 q 1020 -255 1020 -187 q 688 -481 1020 -406 q 656 -492 656 -482 q 651 -487 651 -492 q 488 -509 606 -498 q 445 -492 445 -498 q 551 -452 445 -464 l 551 -458 q 566 -447 566 -452 l 577 -452 q 846 -385 742 -430 q 851 -390 846 -390 q 930 -345 851 -384 q 1004 -215 1004 -289 l 1004 -187 m 129 -221 q 186 -277 155 -221 q 397 -363 304 -363 q 414 -374 414 -370 q 419 -368 419 -374 l 540 -379 l 551 -374 l 561 -379 q 593 -368 570 -379 l 593 -374 l 604 -368 q 619 -374 614 -374 q 625 -368 619 -368 q 630 -374 625 -374 q 635 -368 630 -368 l 635 -374 q 651 -363 651 -368 l 661 -368 q 819 -294 819 -326 q 840 -277 831 -294 q 862 -249 840 -257 q 867 -266 867 -260 q 587 -425 867 -383 l 545 -425 q 540 -430 540 -425 l 530 -425 l 488 -425 q 155 -306 286 -425 q 129 -243 129 -265 l 129 -221 z "},"1":{"ha":1281,"x_min":34,"x_max":1220,"o":"m 619 1809 q 630 1798 621 1798 q 540 1740 630 1772 q 208 1524 221 1579 q 203 1518 203 1524 q 171 1560 171 1529 l 171 1577 q 397 1782 171 1658 q 414 1777 408 1777 l 414 1767 q 229 1619 412 1758 q 197 1571 197 1587 q 583 1798 354 1705 q 619 1809 583 1807 m 746 1750 l 751 1750 q 851 1693 851 1750 q 846 1676 846 1683 q 809 1698 822 1698 q 804 1693 809 1693 q 746 1708 804 1708 l 746 1703 q 741 1708 741 1703 q 672 1698 680 1703 l 672 1703 q 376 1592 451 1651 q 277 1503 300 1538 q 260 1508 267 1508 l 260 1518 q 471 1687 300 1613 q 746 1750 651 1750 m 503 1592 l 577 1577 l 619 1577 q 693 1566 653 1577 l 703 1571 q 762 1560 751 1565 q 767 1566 767 1560 l 857 1556 q 862 1560 862 1556 q 920 1550 909 1554 l 946 1556 q 1083 1513 1083 1541 q 1167 1434 1133 1459 q 1220 1376 1167 1424 l 1220 1360 l 1215 1350 l 1220 1350 l 1215 1339 l 1220 1329 q 1194 1123 1204 1329 q 1183 1102 1190 1123 l 1189 1092 l 1189 1086 q 1152 812 1175 1086 l 1094 448 q 1099 443 1094 443 q 1051 201 1051 208 l 1057 201 q 1015 -31 1025 70 q 999 -68 1009 -31 l 1004 -68 q 925 -184 994 -184 q 888 -190 895 -184 l 888 -184 l 878 -190 l 851 -190 q 846 -184 846 -190 q 793 -195 833 -190 q 788 -190 788 -195 l 762 -195 l 709 -195 l 699 -200 q 693 -195 699 -195 l 693 -200 q 598 -190 661 -190 l 561 -195 l 561 -190 q 556 -195 556 -190 l 509 -190 q 424 -200 448 -200 q 355 -100 355 -112 q 277 -10 349 -100 q 287 85 278 85 q 281 90 287 90 q 298 237 287 182 l 292 237 l 298 248 l 298 264 q 319 532 298 455 q 313 538 319 538 l 319 564 l 319 606 l 260 606 q 239 602 249 606 q 113 701 153 602 q 45 781 101 701 q 34 802 45 802 q 50 859 45 817 l 45 859 l 50 870 q 45 886 50 876 q 55 954 50 954 l 50 965 l 50 970 q 55 975 50 975 q 50 981 55 981 l 55 1007 l 55 1055 q 92 1171 55 1171 q 144 1229 111 1204 q 256 1339 144 1236 q 456 1545 456 1537 q 482 1577 466 1545 l 503 1592 m 556 1518 q 656 1408 598 1449 l 656 1402 l 667 1408 q 677 1397 668 1397 l 699 1397 l 709 1402 l 709 1397 l 720 1402 l 730 1397 q 735 1402 735 1397 l 809 1392 l 809 1397 q 825 1392 819 1392 l 836 1397 q 851 1392 846 1392 q 857 1397 857 1392 l 883 1392 l 920 1392 q 925 1387 925 1392 q 1009 1397 948 1397 l 1015 1397 q 1036 1392 1027 1397 q 1073 1402 1062 1402 q 1083 1392 1074 1392 l 1099 1392 q 1104 1397 1104 1392 l 1115 1392 l 1131 1392 q 1046 1476 1131 1401 q 999 1497 1046 1497 q 840 1503 954 1497 q 836 1508 840 1508 l 836 1497 l 830 1497 l 830 1508 l 819 1503 l 814 1503 q 788 1513 788 1503 q 783 1508 783 1513 l 756 1513 l 746 1513 q 741 1508 741 1513 q 646 1518 714 1518 q 640 1513 640 1518 q 604 1524 614 1524 q 598 1518 604 1518 q 593 1524 598 1524 l 593 1518 q 587 1524 587 1518 l 556 1518 m 488 1497 q 445 1455 488 1481 q 340 1350 439 1434 q 292 1297 322 1339 q 165 1155 165 1196 l 165 1134 l 245 1055 q 450 1255 434 1255 q 519 1324 454 1256 q 524 1318 519 1318 q 587 1387 549 1360 l 587 1392 q 498 1497 506 1497 l 488 1497 m 245 854 q 239 849 239 854 l 245 849 q 218 665 233 740 l 229 659 l 256 659 l 292 665 l 292 659 l 302 665 l 308 665 q 313 659 313 665 l 324 665 q 329 659 329 665 l 340 665 l 424 665 q 456 675 438 665 l 482 665 l 513 670 l 519 670 q 535 648 527 670 q 503 274 519 551 q 488 169 494 274 l 492 169 q 456 -147 475 -26 l 466 -147 l 519 -142 l 519 -147 l 530 -142 l 545 -142 q 551 -147 551 -142 l 561 -142 l 572 -147 q 598 -137 598 -147 l 635 -142 l 693 -142 q 699 -137 699 -142 q 703 -142 703 -137 q 825 -132 760 -132 l 836 -132 q 862 -121 862 -132 l 872 -126 l 899 -126 q 951 -58 945 -126 l 946 -58 q 1004 227 957 -28 l 999 227 q 1041 459 1041 439 l 1036 459 q 1062 617 1062 569 l 1057 617 q 1104 907 1078 715 l 1099 907 q 1109 939 1104 939 q 1104 944 1109 944 q 1152 1324 1136 1132 q 1088 1339 1103 1339 q 1073 1334 1083 1339 l 988 1345 q 946 1334 946 1339 l 920 1339 l 814 1339 q 809 1345 809 1339 q 804 1339 804 1345 l 777 1345 l 767 1345 q 667 1350 724 1345 q 545 1271 616 1339 q 445 1186 479 1196 q 366 1107 445 1178 q 260 991 309 1048 q 245 854 245 941 m 102 1039 l 108 1028 q 102 1007 102 1019 q 108 1002 102 1002 q 97 928 104 992 q 108 891 97 918 q 97 849 104 849 q 155 722 97 771 q 165 701 165 709 l 171 701 l 192 870 q 186 881 192 881 l 192 918 l 192 1013 q 197 1018 192 1018 q 129 1092 189 1042 q 102 1039 113 1092 m 403 591 l 450 507 l 461 507 l 461 511 q 419 596 461 528 q 403 591 408 591 m 366 549 l 366 543 l 445 385 l 445 380 l 450 380 l 456 406 l 456 433 q 376 549 376 534 l 366 549 m 1173 475 l 1183 475 l 1183 464 q 1189 437 1183 446 q 1162 90 1162 208 l 1157 90 q 1162 85 1157 85 q 1125 -142 1152 -39 l 1109 -142 q 1094 -126 1102 -142 q 1109 -47 1099 -60 l 1104 -47 q 1131 116 1115 -12 l 1125 116 l 1131 127 l 1131 184 l 1141 201 q 1136 205 1141 205 l 1141 232 l 1141 237 q 1136 243 1141 243 l 1141 253 l 1141 264 q 1136 269 1141 269 l 1173 459 l 1173 475 m 355 454 q 350 433 355 433 l 355 395 l 355 311 l 350 279 q 355 264 355 269 q 334 21 340 200 q 403 -90 403 -81 l 408 -90 l 429 68 l 424 68 q 450 321 435 202 q 366 454 366 434 l 355 454 m 186 364 q 203 353 186 353 q 186 237 186 300 q 260 -147 186 95 q 345 -227 294 -204 l 345 -232 l 324 -232 q 144 237 190 -232 l 144 269 q 186 364 144 340 m 92 68 l 102 68 l 108 42 l 113 42 l 113 64 l 118 64 q 271 -279 157 -279 l 271 -295 l 266 -295 q 87 -10 130 -295 q 92 -5 87 -5 q 87 11 92 1 q 92 68 92 47 m 997 -272 l 1002 -283 q 891 -314 1002 -305 q 490 -404 698 -346 l 490 -399 q 581 -335 490 -352 q 712 -304 711 -308 l 722 -309 q 923 -277 745 -300 q 928 -283 928 -277 q 997 -272 985 -276 m 976 -351 l 981 -351 l 981 -361 q 670 -467 981 -382 l 659 -462 l 649 -467 l 623 -462 l 623 -441 q 665 -425 642 -441 q 670 -430 665 -430 q 865 -367 675 -420 l 865 -372 q 976 -351 940 -351 z "},"2":{"ha":1666,"x_min":34,"x_max":1605,"o":"m 308 1782 q 324 1777 318 1777 l 324 1756 q 186 1672 257 1698 q 161 1661 174 1672 l 155 1661 q 308 1777 203 1723 l 308 1782 m 477 1756 q 492 1750 487 1750 l 492 1746 q 366 1693 492 1737 q 113 1524 264 1638 q 102 1535 102 1524 l 102 1539 q 176 1608 104 1552 q 461 1750 368 1750 q 477 1756 477 1750 m 535 1714 q 540 1708 535 1708 q 471 1672 540 1693 q 308 1577 372 1604 q 71 1434 121 1449 l 66 1444 l 66 1455 q 165 1524 85 1455 q 429 1676 422 1676 q 535 1714 458 1693 m 677 1619 q 724 1608 724 1613 q 741 1613 735 1613 l 777 1608 q 783 1613 783 1608 q 836 1603 836 1608 q 840 1608 840 1603 l 867 1603 l 872 1603 q 878 1608 878 1603 q 1015 1571 953 1582 q 1136 1492 1093 1525 q 1167 1461 1146 1492 q 1246 1345 1182 1457 q 1289 1234 1252 1313 q 1341 1039 1331 1110 l 1341 986 q 1336 981 1341 981 l 1341 970 l 1341 949 q 1284 654 1341 859 q 1289 648 1289 654 q 1241 538 1276 642 q 1099 243 1178 392 q 1073 184 1073 201 q 1357 237 1242 212 q 1373 243 1373 237 l 1383 237 l 1463 258 q 1605 21 1499 180 l 1605 -21 l 1600 -84 l 1605 -84 l 1600 -95 q 1563 -416 1600 -180 l 1563 -479 l 1552 -479 q 1547 -474 1547 -479 l 1520 -490 l 1505 -490 l 1489 -479 q 1484 -485 1484 -479 l 1473 -479 l 1468 -479 q 1457 -490 1457 -481 l 1447 -485 l 1426 -485 l 1415 -490 l 1415 -485 q 1294 -506 1324 -496 l 1294 -500 l 1284 -506 l 1273 -506 q 1020 -543 1200 -506 q 1015 -538 1015 -543 q 804 -569 869 -553 l 793 -564 l 788 -574 l 777 -569 l 751 -580 l 751 -574 q 614 -595 728 -585 q 308 -659 537 -616 q 298 -664 308 -664 l 182 -485 l 186 -485 q 144 5 144 -81 q 376 253 229 39 l 530 554 q 608 823 608 764 l 561 823 q 551 812 551 821 q 535 817 541 817 q 256 696 256 734 q 229 680 243 696 q 197 712 229 692 q 155 775 197 723 q 113 833 155 793 q 102 876 113 838 l 108 897 q 34 1292 87 964 q 81 1345 53 1345 q 372 1503 246 1457 l 456 1550 l 461 1560 l 488 1556 q 561 1587 551 1587 l 561 1582 q 598 1598 582 1587 q 614 1592 608 1592 q 646 1603 631 1603 l 667 1603 q 677 1619 667 1611 m 667 1539 q 661 1545 667 1545 l 661 1539 l 651 1545 l 640 1545 q 561 1518 619 1545 l 551 1524 q 471 1487 517 1516 q 355 1434 442 1487 l 355 1429 q 350 1434 350 1429 q 150 1324 205 1375 q 87 1260 87 1267 q 92 1255 87 1255 l 87 1244 q 113 1139 109 1140 q 108 1134 113 1134 q 123 1081 113 1099 l 118 1070 l 150 912 l 161 912 l 197 928 q 397 1023 277 986 q 509 1039 482 1039 q 672 886 672 1004 l 672 870 q 667 865 672 865 l 672 854 q 667 849 672 849 l 672 823 q 583 522 647 658 q 376 148 465 281 q 313 64 370 148 q 197 -37 260 26 q 208 -126 199 -126 l 203 -137 q 234 -437 218 -214 q 461 -385 285 -437 l 893 -311 q 899 -316 899 -311 q 999 -300 951 -311 l 999 -306 q 1099 -290 1040 -295 l 1099 -295 q 1146 -285 1146 -290 q 1152 -290 1152 -285 q 1183 -279 1183 -286 l 1194 -285 l 1257 -285 l 1267 -279 l 1267 -285 l 1278 -279 l 1320 -279 l 1352 -274 q 1368 -279 1362 -279 q 1426 -227 1421 -279 l 1421 -227 l 1426 -216 l 1426 -205 q 1421 -200 1426 -200 l 1426 -190 l 1426 -126 l 1431 -95 q 1426 -79 1426 -85 q 1436 -37 1430 -37 q 1426 26 1432 -23 q 1436 90 1431 32 q 1431 95 1431 90 l 1436 95 q 1426 158 1431 100 l 1431 158 q 1400 184 1428 174 l 1373 174 l 1373 180 q 1305 163 1338 174 l 1305 169 q 1083 127 1256 153 l 1083 132 q 814 95 976 95 q 756 85 814 85 q 798 158 756 87 l 983 475 l 1078 680 q 1178 1002 1109 764 l 1173 1002 l 1194 1149 l 1189 1149 l 1194 1160 l 1194 1171 q 1189 1176 1194 1176 l 1194 1186 q 1078 1455 1194 1383 l 1009 1497 l 994 1497 q 957 1513 994 1501 l 957 1508 l 946 1513 q 941 1508 941 1513 q 878 1535 885 1535 l 878 1529 q 804 1550 830 1550 l 772 1550 q 751 1545 760 1550 q 724 1556 724 1550 q 667 1539 707 1545 m 1252 1139 q 1231 970 1252 1105 q 1278 907 1243 970 l 1289 907 l 1289 912 q 1284 918 1289 918 q 1289 923 1284 923 l 1284 975 l 1284 1013 q 1278 1018 1284 1018 q 1284 1023 1278 1023 q 1252 1139 1284 1105 m 488 970 l 535 886 l 551 886 l 551 891 q 503 970 515 970 l 488 970 m 424 954 l 424 949 q 471 859 457 880 q 488 865 481 865 q 435 954 443 953 l 424 954 m 340 944 q 397 849 397 867 l 408 849 l 408 854 q 366 944 378 944 l 340 944 m 583 939 q 598 907 598 914 l 604 907 l 604 912 q 583 939 593 937 m 287 912 q 329 812 300 858 l 340 812 q 355 828 347 812 q 302 912 338 878 l 287 912 m 1215 912 q 1167 760 1189 815 q 1225 686 1225 699 q 1252 770 1234 686 q 1267 833 1265 770 l 1267 844 q 1220 912 1220 903 l 1215 912 m 229 886 l 260 817 l 266 817 l 266 828 q 239 891 239 874 l 229 886 m 182 854 l 182 849 q 224 775 205 775 l 229 786 l 229 791 l 186 854 l 182 854 m 1152 696 q 1120 627 1120 642 q 1183 528 1156 550 q 1189 543 1183 543 q 1183 559 1183 553 l 1215 627 q 1152 696 1160 696 m 1088 564 q 1062 490 1062 513 q 1115 412 1068 490 l 1125 412 q 1157 480 1125 426 q 1099 564 1114 523 l 1088 564 m 1514 494 q 1555 462 1541 498 q 1550 456 1550 461 l 1497 454 l 1493 454 q 1371 408 1373 408 l 1372 397 q 1571 337 1508 387 l 1596 308 q 1590 264 1589 274 l 1580 264 q 1344 361 1569 354 q 1252 297 1284 333 l 1245 306 l 1244 311 q 1385 462 1316 453 l 1389 473 q 1395 469 1394 474 q 1514 494 1451 486 m 1004 401 q 1067 300 1036 310 q 1099 364 1099 359 l 1094 364 q 1036 437 1088 364 l 1030 437 q 1004 401 1025 437 m 957 317 q 1009 232 980 266 l 1015 232 q 1036 253 1023 232 q 983 327 983 315 l 972 327 l 957 317 m 930 237 l 930 232 q 967 163 945 181 q 983 169 977 169 q 930 237 983 177 m 1495 116 l 1495 53 q 1552 -42 1535 -42 q 1510 74 1552 2 q 1499 116 1499 113 l 1495 116 m 1489 -26 l 1489 -95 q 1541 -190 1489 -125 q 1547 -121 1541 -186 q 1510 -47 1537 -121 l 1489 -26 m 1484 -211 q 1478 -237 1484 -237 l 1484 -248 l 1484 -269 l 1478 -279 q 1510 -348 1484 -279 l 1520 -353 l 1531 -274 q 1489 -211 1489 -222 l 1484 -211 m 1136 -342 q 1194 -453 1162 -386 l 1215 -453 l 1215 -448 q 1141 -342 1204 -448 l 1136 -342 m 1067 -348 l 1067 -358 q 1125 -464 1090 -436 l 1136 -458 q 1067 -348 1090 -374 m 1357 -353 l 1357 -358 q 1389 -416 1376 -416 l 1389 -411 q 1357 -353 1389 -386 m 1289 -358 l 1289 -363 q 1310 -401 1310 -394 l 1315 -401 l 1315 -390 q 1289 -358 1295 -358 m 920 -374 q 951 -416 920 -380 q 988 -485 976 -485 l 994 -485 l 994 -474 q 941 -363 956 -380 q 920 -374 920 -368 m 1015 -385 l 1015 -395 q 1025 -422 1025 -412 l 1030 -422 l 1030 -416 q 1020 -385 1020 -395 l 1015 -385 m 862 -395 q 914 -490 907 -484 l 925 -490 q 862 -395 882 -395 m 714 -401 l 714 -406 q 767 -485 714 -435 l 767 -474 q 720 -401 740 -408 l 714 -401 m 646 -422 l 646 -427 q 677 -479 656 -427 q 714 -517 711 -517 l 720 -517 q 661 -422 661 -436 l 646 -422 m 804 -422 q 840 -500 804 -437 l 851 -500 q 814 -422 851 -475 l 804 -422 m 513 -437 q 566 -517 513 -475 l 566 -511 q 524 -437 538 -437 l 513 -437 m 450 -458 l 450 -469 q 498 -559 476 -496 l 509 -553 l 509 -564 l 513 -564 l 524 -559 q 461 -458 485 -503 l 450 -458 m 604 -458 l 604 -474 q 651 -532 633 -532 l 651 -522 q 608 -458 608 -471 l 604 -458 m 382 -474 l 382 -485 q 435 -574 435 -562 q 445 -564 445 -574 l 445 -559 q 382 -474 407 -474 m 319 -490 l 372 -585 l 382 -585 l 382 -580 q 324 -490 342 -498 l 319 -490 m 260 -506 q 319 -585 293 -585 l 319 -580 q 266 -506 298 -536 l 260 -506 m 1442 -574 l 1447 -585 l 1457 -580 l 1495 -585 q 1478 -601 1495 -593 q 1473 -595 1473 -601 q 893 -664 1429 -606 q 703 -690 732 -690 l 677 -690 q 661 -675 669 -690 l 661 -654 q 672 -637 672 -654 l 724 -643 l 735 -637 l 735 -643 q 935 -612 919 -616 q 941 -616 941 -612 l 1199 -585 q 1178 -595 1199 -595 l 1178 -601 l 1194 -601 q 1199 -595 1194 -595 l 1199 -601 q 1273 -580 1273 -593 l 1289 -580 l 1289 -591 q 1305 -585 1299 -585 q 1310 -591 1310 -585 q 1373 -580 1373 -585 q 1378 -585 1378 -580 q 1442 -574 1428 -578 m 1236 -580 l 1267 -580 l 1267 -585 l 1236 -585 l 1236 -580 m 1336 -648 q 1352 -654 1346 -654 l 1352 -659 l 1305 -659 l 1305 -654 q 1336 -648 1336 -654 m 1294 -659 l 1299 -659 l 1299 -664 l 1284 -664 l 1284 -669 l 1294 -669 q 1373 -664 1347 -664 q 1389 -669 1383 -669 q 1394 -664 1389 -664 q 1400 -680 1394 -670 q 1131 -717 1400 -697 q 1125 -722 1131 -722 l 1125 -717 q 1073 -728 1073 -722 l 1062 -722 l 1004 -722 q 962 -701 965 -722 l 1041 -680 q 1046 -675 1041 -675 q 1051 -680 1051 -675 q 1067 -675 1062 -675 q 1294 -659 1098 -675 z "},"3":{"ha":1613,"x_min":34,"x_max":1552,"o":"m 376 1693 l 387 1687 q 408 1693 396 1693 l 414 1682 l 414 1676 q 313 1598 397 1653 q 76 1397 102 1397 l 76 1402 q 208 1560 96 1455 q 376 1693 338 1676 m 577 1693 q 587 1666 587 1676 q 435 1587 466 1611 q 197 1419 205 1419 q 50 1260 100 1333 l 39 1255 l 34 1265 l 34 1271 q 97 1355 34 1304 q 161 1423 97 1367 q 477 1661 277 1535 q 577 1693 552 1693 m 277 1687 l 287 1687 q 298 1676 298 1686 q 165 1556 298 1664 q 118 1503 165 1544 q 81 1455 100 1455 l 71 1471 l 71 1476 q 245 1676 71 1531 q 277 1687 262 1687 m 846 1598 q 1157 1476 1157 1520 q 1284 1371 1210 1457 q 1352 1165 1352 1252 q 1310 1034 1331 1053 l 1315 1034 q 1236 891 1264 926 q 1146 770 1208 837 q 1125 733 1125 742 q 1131 728 1131 733 l 1141 733 l 1146 733 q 1220 696 1146 713 q 1236 686 1220 691 l 1236 691 q 1404 570 1331 648 q 1520 374 1466 497 q 1537 274 1526 374 q 1510 132 1537 189 q 1516 127 1516 132 q 1473 37 1507 127 q 1289 -200 1399 -85 q 999 -422 1263 -227 q 724 -527 757 -527 q 513 -580 724 -546 l 509 -580 l 509 -574 l 498 -580 l 408 -580 q 403 -574 403 -580 l 393 -580 q 171 -490 171 -542 q 134 -432 134 -451 q 161 -311 150 -432 q 176 -237 176 -283 l 176 -205 q 171 -200 176 -200 q 182 -169 182 -183 l 182 -147 q 176 -142 182 -142 l 182 -132 l 176 -121 q 329 16 176 -112 q 345 37 329 24 q 376 26 362 26 l 387 26 q 393 32 393 26 q 461 21 416 21 l 466 21 q 471 26 471 21 l 482 21 l 492 26 q 519 16 510 16 q 583 32 535 16 l 593 26 q 688 153 631 26 l 693 174 q 646 195 665 195 q 477 148 598 174 q 361 106 458 127 q 329 90 361 99 l 324 100 l 324 153 q 313 211 324 159 l 313 227 q 319 248 313 239 q 313 269 313 257 l 319 279 l 313 290 q 319 311 319 299 l 313 321 l 319 321 q 313 327 319 327 l 319 374 q 308 469 319 403 l 313 469 l 308 480 l 308 559 q 361 596 308 566 q 466 680 395 631 q 488 707 466 692 q 530 733 488 718 q 656 970 656 835 q 661 1023 661 989 l 630 1049 q 488 975 610 1049 q 334 865 418 901 q 245 796 264 796 l 234 796 q 186 991 234 827 q 161 1144 161 1128 l 165 1144 q 139 1213 139 1205 q 355 1387 229 1297 q 519 1503 393 1432 q 677 1560 568 1544 q 793 1587 677 1580 l 793 1592 q 809 1587 804 1587 q 846 1598 846 1587 m 340 1255 q 345 1239 345 1244 l 340 1239 q 372 1049 357 1102 q 366 1044 372 1044 l 382 965 q 535 1060 521 1060 q 635 1113 618 1113 l 699 1139 l 699 1134 q 798 1149 739 1149 q 904 1086 904 1128 q 899 1070 899 1076 l 904 1044 l 899 1044 q 904 1039 899 1039 q 804 854 901 973 q 724 791 777 854 q 667 749 707 791 q 524 606 524 673 l 530 596 q 524 591 530 591 q 535 454 535 539 l 540 454 l 535 443 l 535 385 l 540 374 l 535 374 q 540 359 540 364 q 535 296 535 304 q 540 279 540 286 l 545 279 l 640 300 q 646 296 646 300 q 724 317 720 313 q 746 306 746 313 l 756 311 l 793 306 q 814 311 795 306 q 920 253 862 306 q 909 243 920 243 q 925 174 920 215 q 840 32 899 68 q 699 -37 749 -19 q 661 -53 663 -42 q 656 -47 656 -53 q 577 -63 591 -53 l 577 -58 q 530 -68 558 -68 q 461 -53 518 -60 l 461 -58 q 414 -47 414 -53 q 372 -116 380 -47 l 376 -126 q 355 -211 372 -135 l 361 -211 q 350 -253 350 -243 l 355 -253 l 340 -327 q 440 -380 370 -380 q 471 -390 449 -380 l 471 -385 l 540 -401 l 545 -401 q 551 -395 551 -401 l 583 -406 q 604 -401 591 -401 q 608 -406 608 -401 l 619 -401 l 635 -401 q 640 -406 640 -401 q 724 -390 724 -393 q 730 -395 730 -390 q 930 -348 847 -374 q 1020 -306 958 -348 q 1204 -195 1043 -306 q 1383 11 1352 -56 q 1484 274 1454 86 q 1421 433 1443 433 q 1426 437 1421 437 q 1194 644 1352 582 l 1194 638 q 1152 654 1167 654 l 1146 654 l 1120 648 q 1046 686 1120 661 l 1041 733 q 1157 876 1065 747 q 1225 986 1157 887 q 1289 1176 1289 1094 l 1289 1192 q 1284 1197 1289 1197 l 1289 1208 q 1204 1381 1289 1282 q 946 1513 1065 1478 l 946 1508 q 914 1518 928 1518 l 899 1518 l 899 1529 l 888 1529 q 840 1535 860 1529 q 561 1461 711 1535 q 372 1318 406 1367 q 340 1255 340 1305 m 203 1197 q 218 1134 203 1192 l 213 1134 q 234 1044 218 1084 l 229 1044 l 250 954 l 245 954 q 271 881 264 881 q 319 954 319 907 l 287 1260 l 287 1271 l 281 1271 q 218 1208 275 1271 q 203 1197 203 1208 m 724 986 q 720 991 724 991 l 720 975 l 724 975 q 840 1049 840 1035 l 840 1070 l 836 1070 q 788 1034 813 1064 q 724 986 762 1032 m 1472 1019 l 1476 1019 q 1487 1008 1487 1017 l 1487 992 q 1398 829 1476 930 l 1398 824 q 1524 760 1398 818 l 1535 745 q 1524 734 1535 734 l 1519 734 l 1508 739 l 1508 734 q 1381 787 1401 787 l 1377 787 q 1366 777 1366 785 l 1366 766 q 1519 655 1519 708 l 1519 650 q 1497 629 1519 642 q 1381 724 1463 690 l 1350 739 l 1329 739 q 1313 724 1329 724 q 1297 760 1308 745 q 1324 777 1297 772 l 1324 771 q 1350 803 1350 780 q 1282 829 1282 817 l 1282 834 q 1292 845 1283 845 l 1318 845 q 1371 829 1330 845 l 1424 913 q 1472 1019 1472 1004 m 720 902 l 709 907 q 693 849 699 890 l 699 849 q 751 902 735 873 q 825 997 802 935 q 720 902 720 935 m 402 769 l 405 761 q 341 679 388 718 q 252 617 277 626 l 249 618 q 245 642 251 631 q 374 744 313 681 q 402 769 390 770 m 121 736 l 137 736 q 168 636 162 728 q 163 536 168 608 q 168 462 168 503 q 184 399 184 462 l 184 362 l 179 309 l 163 309 q 147 378 153 309 q 153 383 153 378 q 142 393 142 383 l 147 420 q 132 484 136 484 l 137 494 l 137 526 l 132 526 q 58 505 74 505 q 42 509 47 509 l 42 536 q 137 600 137 559 l 132 610 q 137 615 132 615 q 121 736 130 707 m 211 636 l 216 636 l 221 610 l 221 578 q 232 452 221 570 l 232 399 l 237 368 q 232 362 237 362 q 242 262 239 273 q 227 204 237 204 l 216 209 q 211 204 216 204 l 205 241 l 205 309 q 200 330 205 321 q 205 351 205 340 q 200 357 205 357 q 205 362 200 362 q 200 462 200 433 q 205 515 200 469 l 200 515 l 205 526 q 195 610 195 585 l 195 621 q 211 636 195 628 m 361 528 l 366 517 l 366 490 q 376 385 368 385 l 372 374 l 372 311 q 366 184 372 259 q 376 158 372 158 q 471 237 471 214 q 477 306 477 272 l 477 501 q 471 507 477 507 l 477 517 q 471 522 477 522 l 477 532 l 477 538 l 471 549 l 477 549 q 466 591 466 581 q 471 596 471 591 q 466 602 466 596 q 471 606 471 602 l 466 606 l 361 528 m 814 248 q 751 190 751 193 l 751 174 q 846 232 762 174 q 814 248 840 248 m 682 21 l 682 16 q 793 64 705 22 q 867 184 867 136 l 857 190 q 746 132 765 132 q 682 21 718 64 m 239 -126 l 245 -153 l 245 -169 q 224 -211 232 -186 l 229 -211 q 224 -216 229 -216 l 229 -242 q 203 -411 213 -327 l 208 -411 q 292 -300 292 -366 q 329 -53 302 -201 q 245 -126 323 -53 l 239 -126 m 1547 -47 l 1552 -58 q 1537 -105 1552 -67 l 1541 -105 l 1537 -116 q 1541 -121 1537 -121 q 1347 -532 1432 -409 q 1305 -580 1337 -532 l 1294 -585 l 1289 -574 l 1289 -569 q 1389 -380 1362 -460 q 1442 -279 1402 -380 q 1537 -63 1450 -278 q 1547 -47 1537 -47 m 1473 -53 q 1478 -68 1473 -68 l 1473 -79 l 1478 -90 q 1257 -448 1466 -208 q 1115 -564 1185 -509 q 978 -612 1037 -612 l 962 -591 q 994 -574 967 -574 l 994 -580 q 1252 -401 1088 -557 l 1305 -337 q 1442 -100 1400 -205 q 1473 -53 1457 -53 m 218 -474 l 218 -479 l 224 -479 q 302 -422 294 -422 l 302 -411 l 298 -411 q 218 -474 256 -441 m 482 -448 q 435 -496 482 -458 l 435 -500 q 513 -458 470 -497 l 513 -453 q 482 -448 490 -453 m 651 -496 q 677 -485 668 -485 l 677 -490 q 751 -458 710 -471 l 751 -453 q 651 -490 675 -453 l 651 -496 m 545 -511 l 551 -511 q 619 -464 619 -488 l 619 -458 q 545 -511 550 -498 z "},"4":{"ha":1471,"x_min":34,"x_max":1410,"o":"m 192 1687 q 213 1630 213 1658 l 208 1598 q 224 1471 213 1528 q 218 1455 218 1461 q 224 1450 224 1455 q 218 1444 218 1450 l 224 1444 q 218 1440 224 1440 l 224 1413 l 224 1334 q 229 1329 224 1329 q 218 1218 218 1301 l 218 1213 l 208 1213 l 208 1218 q 197 1276 208 1255 q 203 1281 197 1281 q 192 1334 197 1321 q 197 1350 192 1339 q 161 1676 176 1608 l 192 1687 m 345 1560 l 361 1560 l 366 1539 q 361 1535 361 1539 l 366 1535 q 292 1229 334 1377 l 292 1223 l 287 1223 q 281 1239 287 1239 q 298 1329 289 1304 l 292 1329 q 324 1492 324 1482 l 319 1492 l 345 1560 m 92 1429 q 123 1387 106 1429 l 118 1376 l 118 1371 q 171 1144 127 1371 q 192 1023 171 1116 l 187 1023 l 192 1013 l 192 991 q 176 986 186 991 q 123 1197 163 1001 q 76 1413 123 1223 l 76 1419 q 92 1429 76 1429 m 635 1366 q 735 1350 647 1366 l 804 1350 l 814 1345 l 814 1350 l 825 1345 l 857 1345 q 862 1350 862 1345 l 872 1345 l 878 1345 q 883 1350 883 1345 q 951 1334 920 1334 q 972 1339 954 1334 l 972 1334 l 983 1339 l 1004 1339 q 1046 1329 1041 1329 l 1104 1329 l 1141 1223 q 1194 1134 1171 1149 q 1199 1123 1194 1123 q 1136 1018 1199 1109 q 967 696 1045 863 q 962 691 962 696 l 962 680 l 1046 680 q 1067 686 1058 680 q 1141 670 1110 679 q 1215 675 1186 675 l 1246 675 l 1273 680 q 1357 480 1330 607 q 1394 401 1372 480 q 1410 380 1400 401 q 1362 227 1407 342 q 1278 -74 1315 20 l 1210 -332 q 1204 -342 1204 -332 l 1210 -342 q 1157 -548 1189 -386 q 1125 -616 1140 -616 l 1125 -612 l 1115 -616 l 1078 -616 q 1073 -612 1073 -616 q 1052 -622 1052 -616 q 1020 -612 1030 -612 l 988 -616 q 983 -612 988 -612 l 983 -616 l 972 -612 q 957 -616 962 -616 q 951 -612 951 -616 q 888 -622 901 -622 q 872 -616 878 -616 l 872 -622 q 857 -616 862 -616 q 814 -622 835 -616 q 746 -616 780 -616 l 693 -616 q 656 -548 656 -554 l 587 -353 q 672 -74 606 -353 q 677 -42 677 -74 l 667 -47 q 609 -31 655 -37 q 593 -37 598 -37 q 551 -26 551 -33 q 456 -37 473 -37 l 393 -26 q 287 -31 334 -31 l 245 -31 l 213 -37 q 134 100 194 -37 q 66 237 66 178 q 50 343 66 280 l 55 343 q 34 606 41 416 q 134 754 108 701 l 366 1044 q 598 1324 598 1311 l 635 1366 m 92 517 l 118 253 l 118 243 q 165 216 118 227 l 229 216 l 239 211 l 239 216 q 530 201 239 208 l 530 205 l 540 201 l 551 201 q 630 195 577 201 l 630 201 q 635 195 635 201 q 646 201 646 195 l 699 195 l 741 195 q 762 190 752 195 q 777 195 772 195 q 798 169 798 172 l 661 -353 l 672 -358 l 693 -358 q 699 -353 699 -358 l 709 -358 l 741 -358 q 746 -353 746 -358 l 756 -358 q 767 -348 767 -358 q 994 -363 856 -358 q 1073 -31 1057 -151 q 1136 174 1088 9 l 1131 174 q 1168 311 1157 258 l 1162 311 q 1241 623 1194 414 q 1225 627 1225 623 l 1199 623 l 1136 623 q 1083 633 1083 623 l 1073 627 l 1052 633 l 988 623 q 936 627 960 627 l 914 623 l 904 627 l 893 623 q 830 633 857 633 l 661 633 q 741 781 695 680 q 857 970 761 806 q 1036 1276 943 1088 l 1025 1281 q 1020 1276 1020 1281 l 994 1281 l 946 1281 q 872 1292 912 1281 l 872 1286 q 825 1297 825 1292 q 819 1292 819 1297 l 793 1297 q 751 1292 780 1297 l 725 1297 q 682 1286 682 1294 q 651 1297 665 1297 l 646 1297 q 509 1134 578 1208 q 361 954 429 1027 q 224 781 361 945 q 192 739 224 774 l 118 617 q 92 517 92 598 m 1083 1244 l 1109 1176 l 1115 1176 l 1115 1192 q 1083 1244 1093 1244 m 1329 1120 q 1350 1093 1334 1120 l 1265 994 q 1123 804 1221 913 q 1112 787 1112 796 l 1102 787 l 1102 798 q 1250 1057 1103 848 q 1329 1120 1301 1120 m 1062 1149 l 1062 1144 q 1094 1070 1062 1093 l 1099 1070 q 1109 1081 1109 1070 q 1067 1149 1109 1105 l 1062 1149 m 1004 1102 q 988 1070 1004 1090 l 988 1065 q 1030 960 988 1054 l 1041 960 q 1062 1007 1041 972 q 1015 1102 1042 1007 l 1004 1102 m 936 981 q 978 870 936 977 l 983 870 q 1004 907 994 870 q 951 1002 961 1000 q 936 981 943 1002 m 1302 914 l 1302 893 q 1202 793 1236 793 l 1202 804 q 1302 914 1253 897 m 888 918 q 872 881 888 903 q 941 775 892 881 l 946 775 l 957 796 q 904 918 904 905 l 888 918 m 862 802 l 862 796 q 893 707 862 764 l 899 707 l 914 718 q 872 802 899 741 l 862 802 m 793 760 q 851 670 793 733 l 857 670 l 809 775 q 793 760 802 775 m 741 675 l 751 675 l 777 680 l 777 686 q 762 701 777 693 q 741 675 754 701 m 1278 538 q 1284 532 1278 532 q 1273 501 1273 515 l 1273 490 q 1294 437 1291 471 q 1326 380 1316 410 l 1331 380 q 1341 412 1331 394 q 1289 517 1324 463 q 1294 522 1289 522 q 1289 549 1289 531 q 1278 538 1278 547 m 1263 385 l 1263 364 q 1310 274 1263 341 q 1320 285 1320 274 l 1320 300 q 1263 385 1269 385 m 1225 306 l 1220 269 q 1246 211 1238 269 q 1278 142 1252 210 l 1284 142 q 1299 222 1299 199 q 1225 306 1289 224 m 1199 184 q 1189 121 1189 143 q 1246 16 1219 31 l 1252 16 q 1267 85 1252 33 q 1204 184 1241 104 l 1199 184 m 224 148 q 218 106 218 119 q 250 26 250 45 l 277 26 q 235 148 235 131 l 224 148 m 277 148 l 277 142 q 324 21 304 21 l 340 21 l 340 26 q 277 148 305 148 m 408 148 q 456 47 408 139 q 461 26 461 39 l 477 26 q 414 148 439 148 l 408 148 m 351 137 q 345 132 351 132 q 398 16 382 28 l 414 16 l 414 26 q 366 137 398 100 l 351 137 m 619 142 l 619 137 q 656 64 656 71 l 661 64 l 661 68 q 619 142 635 142 m 693 142 l 693 127 q 709 79 709 89 q 720 90 720 79 l 720 95 q 699 142 699 125 l 693 142 m 556 137 l 556 121 q 583 74 562 121 l 593 74 l 593 79 q 562 137 562 128 l 556 137 m 492 121 l 492 111 q 524 37 492 102 l 540 26 q 556 42 548 26 l 556 47 l 524 100 q 514 132 514 100 l 503 132 q 492 121 492 130 m 1162 42 q 1146 -10 1146 5 q 1178 -68 1159 -10 q 1204 -116 1198 -116 l 1210 -116 q 1225 -37 1225 -41 l 1225 -31 l 1162 42 m 49 3 q 64 -2 59 -2 l 64 -45 q 270 -239 64 -146 q 323 -256 323 -249 q 328 -250 328 -256 l 354 -256 q 486 -182 419 -256 l 486 -171 l 492 -171 l 502 -176 q 401 -287 502 -229 q 370 -292 378 -287 q 354 -287 360 -287 l 354 -292 q 85 -155 229 -280 q 38 -7 38 -93 q 49 3 49 -7 m 1125 -84 q 1120 -121 1125 -100 q 1146 -190 1131 -121 q 1173 -227 1173 -205 l 1183 -227 l 1189 -179 q 1131 -84 1149 -135 l 1125 -84 m 555 -203 l 555 -229 q 323 -382 555 -340 l 281 -382 q 80 -303 143 -382 l 75 -303 l 75 -298 q 85 -287 77 -287 q 212 -340 153 -330 q 249 -334 233 -334 l 249 -340 l 260 -334 l 323 -334 q 328 -329 328 -334 q 333 -334 333 -329 q 513 -256 456 -311 q 544 -203 526 -256 l 555 -203 m 1094 -211 l 1094 -242 q 1146 -348 1094 -271 q 1162 -300 1157 -300 q 1109 -200 1140 -273 l 1104 -200 q 1094 -211 1094 -202 m 1073 -311 l 1067 -348 l 1067 -380 q 1115 -490 1073 -435 q 1125 -458 1115 -471 l 1125 -443 q 1078 -327 1098 -327 l 1078 -311 l 1073 -311 m 751 -416 l 746 -443 q 798 -564 772 -482 l 809 -569 q 825 -548 825 -569 q 756 -416 783 -435 l 751 -416 m 830 -416 l 825 -443 q 862 -522 841 -463 q 883 -559 883 -535 l 904 -559 q 914 -548 914 -559 q 846 -416 914 -530 l 830 -416 m 667 -422 q 741 -559 718 -559 l 741 -553 q 682 -422 711 -443 l 667 -422 m 1015 -427 l 1015 -443 l 1062 -548 l 1073 -548 l 1073 -538 q 1020 -427 1041 -493 l 1015 -427 m 925 -443 l 925 -448 q 983 -564 972 -509 l 999 -574 q 1015 -559 1006 -574 q 951 -432 996 -495 l 936 -432 q 925 -443 925 -434 z "},"5":{"ha":1577,"x_min":34,"x_max":1516,"o":"m 384 1950 q 394 1940 385 1940 l 399 1940 l 410 1945 l 410 1929 q 394 1924 404 1929 q 389 1929 394 1929 q 384 1924 389 1924 q 378 1929 384 1929 q 326 1908 378 1914 q 320 1914 320 1908 q 162 1882 206 1882 l 157 1882 q 146 1893 146 1882 l 151 1919 l 157 1919 l 168 1914 q 173 1919 168 1919 l 173 1914 q 326 1940 245 1940 l 336 1935 l 357 1945 q 373 1940 368 1940 q 384 1950 374 1950 m 1051 1904 q 1204 1809 1072 1885 q 1241 1767 1204 1803 l 1241 1746 q 1262 1603 1241 1708 l 1257 1592 l 1294 1455 q 1305 1408 1299 1408 q 1204 1381 1297 1381 q 1046 1339 1152 1357 q 1030 1329 1046 1329 l 1030 1324 q 1183 1265 1069 1302 q 1189 1260 1183 1260 q 1289 1197 1237 1242 q 1389 1081 1347 1149 q 1473 891 1473 899 l 1468 865 q 1505 659 1505 727 l 1499 659 l 1516 596 q 1510 517 1510 550 l 1516 517 l 1510 507 l 1510 485 q 1495 380 1510 465 l 1499 380 q 1394 74 1499 279 q 1326 -21 1376 60 q 1262 -79 1319 -21 q 1104 -169 1143 -167 l 1104 -163 q 1036 -184 1037 -180 l 1025 -179 q 957 -190 962 -184 q 920 -179 935 -179 q 888 -184 916 -179 q 867 -179 879 -179 l 867 -184 l 857 -179 l 804 -179 q 724 -158 788 -170 q 619 -105 723 -144 q 519 -53 544 -53 q 372 74 372 64 q 266 232 298 139 q 224 343 250 240 l 229 353 l 224 364 q 308 448 224 404 q 340 464 322 448 q 186 596 283 538 q 123 897 155 804 l 129 907 l 81 1160 l 87 1160 q 45 1539 66 1240 q 34 1566 39 1539 l 39 1577 l 34 1603 l 39 1613 l 34 1624 l 55 1672 l 256 1714 q 281 1724 281 1714 q 287 1719 287 1724 q 593 1793 543 1777 q 951 1877 688 1824 l 951 1872 q 1051 1904 1038 1890 m 452 1887 q 394 1855 452 1878 l 378 1855 l 378 1850 q 104 1766 277 1850 q 94 1755 104 1755 l 88 1755 q 78 1766 78 1755 l 78 1798 q 141 1840 121 1840 q 146 1834 141 1834 q 368 1887 146 1855 l 452 1887 m 482 1703 l 482 1708 q 197 1645 384 1682 l 186 1651 q 108 1624 164 1634 l 108 1619 q 208 1545 190 1549 q 218 1556 210 1556 l 234 1556 l 260 1550 l 260 1556 l 271 1550 q 535 1624 458 1608 q 693 1672 541 1633 q 1030 1767 846 1729 q 1078 1771 1058 1767 l 1078 1767 q 1136 1782 1127 1782 l 1136 1793 l 1067 1840 q 1062 1835 1062 1840 l 1041 1840 q 482 1703 562 1740 m 1109 1714 q 1104 1719 1104 1714 q 614 1587 1015 1719 q 287 1497 416 1524 q 256 1471 256 1476 q 302 1160 281 1200 l 302 1155 l 298 1144 q 334 923 313 1088 l 329 912 q 361 670 344 878 q 397 528 386 597 l 403 528 q 604 675 472 591 q 851 807 669 738 q 1003 789 956 830 q 1094 627 1055 766 q 1088 517 1088 559 l 1088 501 q 967 348 1035 348 l 951 338 l 893 338 q 788 385 808 355 q 741 433 752 433 q 746 448 746 443 q 741 464 741 458 l 724 464 q 503 321 577 376 q 424 274 441 274 l 424 269 q 440 258 424 258 l 440 222 q 572 32 511 92 q 862 -121 652 -66 l 930 -121 q 951 -126 942 -121 q 972 -121 960 -121 q 988 -126 978 -121 q 1009 -121 998 -121 l 1009 -126 q 1162 -79 1104 -109 q 1241 -21 1202 -37 q 1315 58 1241 -13 q 1431 369 1431 243 q 1442 391 1442 369 l 1436 391 l 1447 412 l 1442 412 q 1447 427 1447 422 q 1442 433 1447 433 l 1457 511 l 1452 511 l 1463 549 q 1447 670 1463 552 l 1452 680 q 1378 928 1423 863 q 1326 1055 1357 964 l 1262 1134 l 1194 1181 q 1073 1208 1093 1208 l 1073 1202 l 1062 1208 l 999 1208 q 851 1171 916 1208 q 767 1123 835 1171 q 667 1013 726 1114 q 640 965 651 1013 l 635 965 q 625 997 635 985 l 625 1002 q 608 1244 608 1164 q 604 1250 604 1244 q 957 1366 814 1334 q 1225 1440 1047 1401 l 1236 1455 q 1204 1608 1204 1580 l 1210 1608 l 1189 1719 l 1194 1719 q 1189 1740 1189 1728 q 1109 1714 1109 1721 m 1320 1693 q 1447 1255 1426 1350 q 1436 1239 1436 1255 l 1415 1239 q 1394 1260 1410 1239 q 1404 1286 1400 1286 q 1310 1645 1331 1545 l 1315 1645 l 1305 1666 q 1320 1693 1312 1693 m 1383 1655 q 1478 1392 1478 1439 l 1478 1381 l 1452 1381 q 1383 1613 1383 1550 q 1368 1645 1373 1615 l 1383 1655 m 97 1560 l 97 1556 q 118 1286 97 1478 l 113 1286 l 123 1250 l 118 1250 q 260 602 218 602 l 334 549 l 334 559 q 277 939 302 672 q 271 944 271 939 l 277 944 q 239 1181 266 969 l 229 1223 l 234 1223 q 203 1476 214 1315 q 97 1560 179 1514 m 814 1260 q 836 1239 819 1239 q 899 1260 878 1239 l 909 1255 q 941 1265 926 1265 l 941 1260 q 1020 1271 946 1265 q 1025 1265 1020 1265 l 1025 1271 q 962 1297 1025 1283 l 962 1292 q 946 1302 946 1297 l 814 1260 m 724 1234 q 741 1218 724 1226 q 746 1223 741 1223 q 762 1208 746 1216 l 767 1208 l 804 1213 q 772 1239 804 1221 l 751 1239 l 724 1234 m 656 1197 l 709 1155 l 714 1155 q 724 1176 714 1163 q 672 1208 692 1208 l 667 1208 q 656 1197 656 1206 m 651 1155 l 651 1128 q 661 1118 652 1118 l 672 1134 l 672 1144 q 651 1155 664 1144 m 651 638 l 651 633 q 677 606 661 633 q 735 580 722 580 l 798 538 q 793 522 793 528 q 825 501 798 501 q 872 580 853 530 q 888 638 883 580 q 830 728 871 728 l 819 728 q 651 638 748 718 m 941 670 q 1030 559 951 616 l 1041 559 l 1041 564 q 999 633 1041 600 q 941 670 999 657 m 930 591 q 920 543 930 583 q 994 464 931 543 q 1025 517 1008 464 l 941 591 l 930 591 m 292 369 l 292 359 q 376 311 300 359 q 572 433 456 353 q 720 522 720 517 l 720 528 l 630 575 l 614 575 q 492 490 505 509 q 387 416 425 460 q 313 374 313 397 l 292 369 m 893 507 q 825 448 893 496 l 825 427 l 893 395 l 904 401 q 925 395 913 395 l 962 437 l 962 443 q 893 507 925 488 m 281 321 l 281 306 q 308 274 288 306 l 334 258 q 340 264 334 264 q 281 321 340 274 m 345 201 q 414 148 345 176 l 414 153 q 350 201 414 167 l 345 201 m 155 142 q 234 -5 180 28 l 256 -21 l 260 -21 l 256 -10 l 260 -10 q 608 -163 414 -100 q 788 -216 744 -195 l 814 -221 l 814 -216 q 846 -227 831 -227 l 846 -221 q 862 -227 856 -227 l 862 -232 q 814 -248 862 -248 q 429 -147 699 -248 q 208 -21 250 -72 q 144 132 144 41 q 155 142 146 142 m 424 100 q 456 79 429 79 q 440 100 448 100 l 424 100 m 1278 -190 l 1284 -190 l 1284 -216 q 1125 -348 1253 -288 q 972 -401 988 -392 l 962 -395 q 714 -443 887 -422 q 682 -432 700 -443 l 682 -437 q 656 -401 656 -430 l 667 -395 q 720 -416 667 -405 q 767 -406 755 -411 l 767 -411 q 988 -353 979 -363 l 999 -358 l 1152 -295 q 1278 -190 1198 -275 m 387 -242 q 746 -295 536 -274 q 914 -285 775 -295 q 809 -321 914 -308 l 809 -316 q 688 -327 782 -327 q 372 -263 372 -313 l 372 -253 q 387 -242 372 -242 z "},"6":{"ha":1450,"x_min":34,"x_max":1389,"o":"m 471 1750 l 477 1740 l 435 1666 q 397 1613 408 1613 q 165 1186 241 1351 l 134 1065 q 123 1076 123 1065 l 123 1123 q 229 1392 142 1217 l 298 1503 q 471 1750 383 1658 m 598 1661 l 598 1655 q 604 1661 604 1655 q 682 1598 671 1661 l 667 1587 q 614 1624 647 1624 q 471 1550 536 1624 q 397 1461 460 1550 q 345 1360 361 1401 q 281 1260 311 1288 l 281 1265 q 366 1476 281 1320 q 598 1661 472 1661 m 556 1487 l 577 1487 q 614 1466 577 1474 q 693 1429 640 1447 q 699 1434 693 1434 q 714 1419 699 1419 l 714 1423 q 809 1397 745 1408 q 925 1371 885 1371 l 946 1371 q 1004 1281 1004 1294 q 1083 1123 1044 1173 l 1083 1113 q 930 749 962 887 l 930 743 q 1020 722 1013 731 l 1020 728 l 1073 712 l 1073 718 q 1257 549 1224 646 q 1378 184 1294 406 l 1383 153 q 1262 -248 1383 75 q 1189 -369 1262 -274 q 1094 -458 1145 -422 q 888 -574 1039 -530 q 756 -612 834 -600 l 703 -612 q 635 -616 669 -612 q 488 -564 578 -616 l 477 -569 q 393 -517 477 -564 q 345 -474 345 -489 q 229 -316 285 -377 q 155 -195 229 -300 q 108 -105 113 -144 q 39 153 67 -51 q 45 158 45 153 q 39 163 39 158 l 45 163 l 39 174 q 45 180 39 180 l 39 190 l 39 237 q 34 243 39 243 q 39 248 34 248 l 34 274 l 34 279 q 60 459 34 365 l 55 459 q 97 627 73 549 l 92 627 q 271 1070 213 988 q 414 1297 271 1080 q 540 1466 440 1366 q 556 1487 556 1479 m 92 274 l 92 248 q 97 243 92 243 q 92 237 97 237 q 118 37 97 124 l 113 37 q 155 -68 131 -35 q 319 -258 165 -132 q 387 -290 345 -263 q 393 -285 387 -285 q 540 -332 393 -304 l 540 -327 q 561 -342 561 -330 q 577 -332 577 -337 q 614 -348 614 -342 l 625 -342 q 640 -348 635 -348 q 646 -342 640 -342 l 646 -348 l 656 -342 q 661 -348 661 -342 q 751 -327 723 -337 q 767 -332 761 -332 q 777 -321 768 -321 l 777 -327 q 1046 -169 938 -277 q 1173 11 1114 -106 q 1204 106 1173 29 l 1204 137 q 1231 243 1221 137 l 1241 264 q 1236 306 1241 269 l 1241 369 l 1236 369 q 1241 374 1236 374 q 1225 448 1231 439 l 1231 448 q 1210 532 1215 485 l 1167 596 q 999 686 1084 662 l 988 680 q 957 691 971 691 q 941 686 946 686 q 857 701 941 698 q 667 617 743 665 l 667 633 q 672 638 667 638 l 667 648 l 667 659 q 772 975 709 817 q 883 1208 791 1005 q 925 1292 920 1249 q 788 1345 925 1318 q 724 1366 726 1359 l 714 1360 q 614 1402 698 1371 l 614 1397 q 583 1408 597 1408 l 577 1408 q 456 1271 534 1392 q 213 812 262 986 q 92 274 92 490 m 946 1208 q 930 1171 930 1176 q 999 1070 950 1159 l 1004 1070 q 1009 1113 1004 1075 q 957 1208 957 1195 l 946 1208 m 904 1128 l 893 1113 l 893 1102 q 957 997 957 1013 q 972 1013 964 997 q 904 1128 916 1128 m 867 1049 q 846 1007 867 1037 q 909 912 909 924 q 920 907 909 907 l 914 897 l 925 897 q 935 939 935 930 l 872 1049 l 867 1049 m 814 949 q 804 918 814 940 q 878 828 813 916 l 893 817 l 899 828 l 899 844 q 819 949 825 949 l 814 949 m 1194 939 l 1199 939 l 1210 933 q 1215 939 1210 939 q 1347 691 1294 894 q 1389 543 1367 671 q 1331 701 1352 593 l 1252 849 q 1210 897 1240 849 q 1173 928 1173 919 q 1194 939 1181 928 m 783 865 l 777 838 l 777 817 q 857 743 811 766 l 867 743 l 862 754 l 862 760 l 867 770 q 783 865 862 770 m 1104 859 q 1252 775 1176 859 q 1289 686 1289 703 l 1289 680 l 1284 680 q 1146 812 1234 749 q 1094 833 1118 833 l 1088 844 l 1088 849 q 1104 859 1088 859 m 751 765 q 741 718 751 741 l 762 718 q 777 733 769 718 q 751 765 759 765 m 798 380 q 846 285 829 329 l 846 211 q 767 74 835 142 q 693 16 767 41 l 661 26 l 661 21 q 587 121 587 41 q 583 127 583 121 q 646 343 601 286 q 798 380 720 380 m 1284 232 l 1284 216 q 1289 211 1284 211 q 1257 95 1273 175 q 1262 79 1262 85 q 1246 37 1246 76 q 1278 -37 1246 -3 l 1310 68 q 1305 85 1305 79 q 1326 127 1313 85 l 1320 127 q 1331 169 1331 159 q 1315 190 1329 190 l 1315 222 q 1299 264 1315 260 q 1284 232 1284 258 m 651 216 l 646 190 q 688 137 652 190 q 724 95 724 107 q 741 111 732 95 l 741 116 q 651 216 719 134 m 724 205 l 724 201 q 767 158 724 194 l 772 158 l 772 163 q 724 205 772 169 m 640 127 l 640 111 q 667 64 651 64 q 672 68 672 64 l 682 64 q 693 74 693 64 l 640 127 m 1199 -21 l 1167 -100 q 1215 -184 1215 -163 l 1225 -184 q 1257 -105 1231 -151 q 1204 -21 1209 -21 l 1199 -21 m 1136 -147 q 1099 -190 1136 -161 l 1099 -195 q 1167 -290 1145 -278 q 1199 -232 1199 -244 q 1146 -147 1159 -182 l 1136 -147 m 1009 -274 q 1088 -385 1037 -354 l 1131 -337 q 1051 -232 1060 -232 q 1009 -274 1045 -232 m 292 -311 q 376 -437 364 -425 l 387 -432 l 397 -432 q 429 -469 397 -454 l 429 -458 q 387 -395 419 -458 q 355 -332 371 -385 q 292 -306 345 -332 l 292 -311 m 914 -332 l 994 -453 l 999 -453 q 1041 -427 1033 -427 l 1041 -422 q 962 -306 971 -335 q 914 -332 921 -317 m 857 -358 q 935 -496 857 -381 l 951 -485 q 867 -358 883 -362 l 857 -358 m 435 -369 l 435 -374 q 535 -522 521 -522 q 556 -527 544 -527 q 466 -395 534 -490 q 435 -369 466 -369 m 513 -385 l 513 -390 q 630 -548 547 -429 l 640 -553 l 646 -543 q 551 -395 568 -395 l 513 -385 m 735 -390 l 735 -406 q 762 -437 755 -437 l 762 -432 q 741 -390 748 -390 l 735 -390 m 804 -390 q 872 -511 804 -420 l 872 -506 q 804 -390 817 -401 m 625 -395 l 625 -406 q 693 -543 647 -442 l 699 -543 l 699 -538 q 640 -401 661 -458 q 625 -395 635 -401 m 182 -448 l 197 -448 q 387 -664 197 -546 q 450 -696 387 -671 q 524 -728 477 -703 l 524 -722 q 577 -743 564 -743 l 577 -749 q 519 -759 570 -749 q 176 -469 176 -622 l 182 -448 m 741 -511 q 772 -553 746 -528 q 741 -511 753 -515 m 144 -622 l 150 -622 q 208 -664 180 -654 q 324 -707 260 -694 q 429 -754 426 -754 q 461 -780 461 -776 l 450 -780 q 408 -764 438 -780 l 408 -770 q 161 -669 186 -699 l 139 -637 q 144 -622 144 -627 z "},"7":{"ha":1440,"x_min":34,"x_max":1379,"o":"m 361 1508 l 393 1503 l 393 1508 q 493 1487 493 1495 l 493 1476 q 451 1466 484 1476 q 446 1471 451 1471 l 446 1466 l 435 1471 q 414 1466 426 1466 l 414 1471 l 404 1466 l 351 1466 l 346 1492 q 361 1508 346 1500 m 388 1423 q 404 1419 398 1419 q 409 1423 404 1423 q 414 1419 409 1419 q 420 1423 414 1423 l 420 1419 l 430 1423 l 441 1423 q 451 1413 451 1422 l 462 1419 l 488 1419 q 493 1413 493 1419 q 509 1419 503 1419 l 557 1413 q 562 1419 557 1419 l 562 1413 q 578 1419 572 1419 l 599 1413 l 609 1419 q 625 1413 620 1413 q 641 1419 631 1413 l 673 1413 l 699 1413 l 699 1408 q 688 1397 699 1397 q 683 1402 688 1402 q 678 1387 678 1392 l 620 1387 l 557 1381 l 557 1387 l 546 1381 l 456 1381 q 451 1376 451 1381 l 441 1381 l 430 1381 l 420 1376 q 414 1381 420 1381 l 414 1376 l 404 1381 l 367 1376 l 367 1381 q 309 1371 346 1371 l 251 1371 l 251 1392 q 388 1423 251 1405 m 804 1345 q 820 1339 814 1339 l 820 1345 q 836 1339 830 1339 l 836 1334 q 288 1281 836 1295 q 261 1276 288 1276 l 261 1281 l 251 1276 l 193 1276 q 177 1297 185 1276 q 198 1324 187 1321 l 293 1324 q 298 1329 298 1324 l 309 1324 l 319 1324 q 325 1329 325 1324 q 330 1324 330 1329 l 404 1334 q 409 1329 409 1334 l 435 1334 l 541 1334 q 562 1339 553 1334 q 583 1334 571 1334 l 656 1334 q 662 1329 662 1334 q 730 1339 674 1333 l 730 1334 l 741 1339 l 757 1339 q 778 1334 769 1339 l 804 1345 m 1348 1218 l 1348 1213 l 1358 1218 l 1363 1218 q 1379 1197 1371 1218 q 1374 1113 1374 1143 q 1379 1107 1374 1107 l 1374 1097 l 1374 807 q 1379 802 1374 802 l 1374 791 q 1379 765 1374 773 q 1374 749 1379 759 q 1379 707 1379 711 q 1369 606 1374 610 q 1374 585 1374 597 q 1353 554 1374 564 q 1268 507 1353 530 q 1078 364 1167 443 q 1015 300 1015 305 q 983 264 1005 300 q 863 85 934 226 q 772 -216 772 -105 l 772 -285 q 778 -290 772 -290 q 772 -295 778 -295 l 778 -321 q 667 -432 695 -410 q 646 -464 661 -450 q 614 -458 623 -464 q 541 -464 570 -464 l 483 -464 l 319 -490 l 309 -490 q 304 -485 304 -490 l 209 -500 l 187 -500 q 156 -411 167 -500 l 161 -411 l 156 -401 l 156 -321 q 161 -316 156 -316 l 156 -306 l 156 -237 q 161 -232 156 -232 l 156 -221 q 245 127 156 -80 q 356 290 250 127 q 446 395 424 387 q 546 507 546 494 q 583 549 568 507 l 519 549 q 515 543 515 549 l 504 549 q 282 532 373 543 l 272 538 q 267 532 267 538 l 203 538 l 187 538 q 103 528 111 528 l 98 528 q 103 543 103 538 q 93 691 103 630 l 98 701 l 87 823 q 93 838 93 833 l 87 849 q 93 854 87 854 l 87 876 l 93 928 l 87 928 q 98 997 93 940 q 93 1044 93 1016 l 214 1186 q 240 1213 214 1200 q 282 1202 260 1202 q 288 1208 288 1202 q 340 1197 340 1202 q 346 1202 346 1197 l 430 1192 q 435 1197 430 1197 l 435 1192 l 446 1197 l 472 1197 q 583 1202 532 1197 q 683 1197 611 1197 l 683 1202 l 694 1197 l 699 1197 q 704 1202 704 1197 q 709 1197 709 1202 l 794 1208 l 794 1202 q 799 1208 799 1202 l 836 1202 q 1015 1208 905 1202 l 1026 1202 q 1047 1213 1047 1206 l 1057 1208 q 1074 1213 1063 1208 q 1137 1208 1110 1208 l 1147 1213 q 1168 1208 1156 1208 q 1173 1213 1173 1208 l 1205 1202 l 1215 1208 q 1221 1202 1221 1208 l 1247 1208 l 1332 1208 l 1348 1218 m 1074 1149 l 1047 1155 l 1015 1149 l 1015 1155 l 1005 1149 l 1000 1149 l 989 1155 q 983 1149 989 1149 l 983 1155 l 973 1149 l 962 1149 q 915 1155 943 1149 q 873 1144 882 1144 q 836 1155 846 1155 l 825 1149 q 820 1155 820 1149 q 772 1144 784 1149 l 762 1149 l 730 1144 q 725 1149 725 1144 l 715 1144 l 656 1144 q 578 1149 624 1144 q 541 1144 557 1144 q 536 1149 536 1144 l 509 1144 l 404 1144 q 398 1149 398 1144 l 388 1144 l 367 1144 q 346 1149 355 1144 q 340 1144 340 1149 l 314 1149 l 309 1149 q 304 1144 304 1149 l 293 1149 l 288 1149 l 282 1123 l 282 1107 l 288 1097 l 282 1097 q 288 1092 282 1092 l 282 1065 l 282 1060 q 293 981 282 1030 q 282 912 282 939 q 288 897 282 907 l 277 765 l 282 765 l 277 754 l 277 712 q 293 707 283 712 q 857 749 429 737 q 888 712 888 749 l 888 701 q 863 686 882 701 l 863 691 q 709 575 780 648 q 583 448 610 506 q 404 195 487 347 q 319 -121 319 39 q 304 -232 304 -164 l 304 -248 l 309 -285 q 346 -274 346 -281 l 372 -279 l 398 -279 q 420 -274 410 -279 q 441 -279 429 -279 l 446 -279 q 551 -269 450 -279 l 588 -274 q 593 -269 593 -274 l 631 -274 l 683 -274 l 720 -269 l 720 -205 l 725 -195 l 720 -195 q 810 100 762 9 q 915 264 869 227 q 1179 517 983 372 l 1300 580 q 1321 665 1312 600 q 1316 680 1316 675 q 1321 728 1316 699 q 1316 760 1321 732 q 1321 838 1321 806 l 1316 838 q 1321 844 1316 844 l 1316 870 l 1316 928 q 1321 933 1316 933 l 1316 944 l 1316 949 l 1321 960 l 1316 960 l 1321 970 l 1316 981 q 1321 1002 1321 990 l 1316 1002 l 1321 1013 l 1321 1018 l 1316 1028 q 1321 1034 1321 1028 l 1316 1034 l 1321 1044 l 1321 1149 l 1316 1149 l 1268 1155 q 1247 1149 1250 1149 q 1242 1155 1242 1149 l 1215 1149 q 1137 1160 1137 1152 q 1074 1149 1128 1156 m 224 1123 q 172 1065 224 1116 q 145 997 145 1029 l 151 997 q 140 965 140 979 l 140 939 q 145 933 140 933 l 140 923 l 140 796 l 145 760 l 140 760 q 156 701 151 701 l 151 675 l 151 596 l 156 596 q 219 680 219 640 q 230 733 224 720 l 224 743 q 235 828 235 810 l 230 838 q 235 859 235 848 l 235 881 q 230 886 235 886 l 235 897 q 230 902 235 902 q 240 975 240 948 l 235 1049 q 240 1118 240 1084 l 230 1123 l 224 1123 m 662 617 l 673 617 q 757 680 749 680 l 757 691 l 741 691 q 662 617 692 654 m 472 602 l 477 602 q 546 654 485 612 l 562 675 l 562 686 q 493 633 524 686 q 472 602 488 633 m 631 680 q 609 648 631 670 l 614 648 q 652 680 652 673 l 631 680 m 267 591 l 293 591 q 367 644 293 612 l 388 665 l 367 665 q 272 596 318 665 q 267 591 267 596 m 1237 359 l 1289 359 q 1305 343 1297 359 l 1305 338 q 1242 317 1305 330 q 979 53 1118 249 q 926 -21 974 53 l 915 -26 l 915 -21 q 941 37 915 -1 l 936 47 q 958 85 949 85 q 962 79 958 79 l 962 85 l 958 85 q 1237 359 1078 271 m 1190 201 l 1205 201 l 1215 195 q 1221 201 1215 201 q 1247 158 1247 180 l 1211 163 l 1194 163 l 1184 158 q 1179 163 1184 163 q 1010 -5 1088 106 q 958 -74 958 -61 l 947 -68 q 941 -100 941 -77 l 936 -100 l 936 -68 q 1005 53 941 -33 q 1131 180 1074 142 q 1190 201 1173 201 m 209 -195 l 214 -195 l 209 -205 l 209 -237 q 214 -311 209 -278 q 209 -374 209 -338 l 214 -374 l 256 -337 l 251 -306 l 256 -274 l 251 -242 q 272 -95 256 -161 q 267 -90 272 -90 q 309 111 282 41 l 304 111 q 224 -105 250 43 q 209 -195 214 -105 m 1152 53 q 1179 32 1173 53 q 1031 -84 1063 -42 q 1005 -111 1031 -92 l 1000 -111 q 994 -95 1000 -95 q 1121 42 1017 -41 q 1152 53 1138 53 m 504 -363 l 509 -363 q 541 -332 509 -361 l 541 -327 l 536 -327 q 504 -363 529 -327 m 536 -411 l 562 -411 q 593 -374 562 -401 l 625 -327 q 536 -411 555 -377 m 699 -327 q 631 -395 631 -389 l 635 -395 q 694 -348 648 -395 q 704 -327 700 -348 l 699 -327 m 325 -337 q 256 -422 325 -344 q 251 -437 256 -427 l 256 -437 q 261 -432 261 -437 l 272 -437 q 304 -395 281 -437 q 361 -337 360 -347 l 325 -337 m 56 -463 l 62 -461 q 74 -469 72 -461 l 77 -480 q 135 -591 100 -582 q 300 -650 228 -667 q 304 -644 305 -648 l 331 -642 l 382 -631 q 546 -588 437 -618 l 547 -593 l 555 -585 l 572 -582 q 584 -589 582 -581 q 507 -629 551 -618 l 495 -626 q 391 -667 498 -642 l 385 -668 q 382 -674 381 -669 l 370 -671 l 350 -676 l 351 -681 l 456 -690 q 470 -681 461 -688 q 517 -675 498 -680 q 536 -665 528 -673 q 571 -674 569 -665 q 490 -720 572 -693 q 463 -720 480 -717 l 465 -726 q 245 -695 319 -728 q 39 -689 48 -731 l 34 -668 l 39 -667 q 163 -665 148 -669 l 162 -660 q 61 -527 81 -611 l 58 -511 q 56 -463 54 -498 m 351 -427 l 351 -432 q 409 -390 399 -432 q 425 -369 414 -390 l 425 -363 l 420 -363 q 351 -427 407 -363 m 493 -369 l 462 -411 l 462 -416 q 498 -369 476 -410 l 493 -369 z "},"8":{"ha":1633,"x_min":34,"x_max":1572,"o":"m 1050 1898 l 1113 1898 q 1245 1866 1179 1898 l 1245 1840 l 1240 1840 l 1229 1845 l 1229 1840 l 1208 1851 l 1208 1845 l 1198 1851 l 1192 1851 q 1177 1845 1177 1851 l 1150 1851 l 1113 1851 q 1108 1856 1108 1851 l 1097 1851 l 1055 1851 q 976 1845 1022 1851 q 934 1856 934 1849 q 892 1845 892 1851 l 881 1851 q 865 1845 871 1845 q 860 1851 860 1845 q 739 1824 742 1831 l 728 1830 q 686 1819 709 1819 l 686 1824 q 760 1856 690 1835 l 760 1851 q 818 1872 817 1866 q 823 1866 823 1872 q 939 1887 920 1887 l 939 1883 q 1050 1898 970 1898 m 1139 1740 q 1234 1708 1215 1722 l 1245 1714 q 1361 1630 1284 1714 q 1445 1513 1397 1607 q 1456 1482 1456 1505 q 1561 1223 1493 1440 q 1567 1186 1567 1217 l 1567 1160 q 1561 1155 1567 1155 q 1572 1023 1572 1124 l 1567 1023 l 1572 1013 q 1477 712 1514 756 q 1297 501 1388 526 q 1266 485 1277 485 l 1266 480 q 1350 343 1284 403 q 1398 232 1364 289 q 1403 195 1398 202 l 1398 195 l 1403 184 l 1403 174 q 1398 158 1403 158 l 1403 132 l 1403 106 l 1398 95 l 1403 95 q 1361 -84 1388 56 q 1340 -137 1357 -85 l 1345 -137 q 1314 -232 1329 -168 q 1255 -332 1299 -244 q 1150 -496 1219 -378 q 1097 -548 1141 -496 l 997 -622 q 797 -701 866 -701 l 797 -696 l 786 -701 q 696 -707 751 -701 q 565 -690 565 -699 l 554 -696 l 428 -648 q 343 -601 391 -622 q 301 -564 343 -593 q 222 -469 222 -477 q 138 -363 207 -439 l 69 -211 l 37 -58 l 43 -58 l 37 -47 q 43 -42 37 -42 q 37 -37 43 -37 q 58 74 50 55 l 54 85 q 191 401 101 279 q 428 591 305 536 q 507 633 507 626 q 449 701 449 682 q 359 960 391 769 l 359 981 q 364 1002 359 993 q 359 1023 359 1011 l 359 1049 q 385 1144 370 1116 l 380 1144 q 449 1360 401 1200 q 691 1655 515 1498 q 854 1719 760 1698 l 854 1714 l 966 1735 q 981 1729 971 1735 l 991 1735 l 1002 1729 q 1023 1735 1012 1735 l 1023 1729 q 1039 1735 1034 1735 q 1139 1740 1068 1735 m 955 1693 l 955 1687 l 945 1693 q 802 1655 899 1673 q 670 1556 690 1595 q 575 1450 652 1556 q 480 1260 480 1333 q 417 1039 449 1177 l 422 1039 q 412 1013 417 1013 q 433 876 418 911 l 428 876 l 475 765 q 570 654 502 710 q 623 606 570 637 l 623 596 q 349 475 448 566 q 117 90 188 367 q 106 37 117 76 l 111 37 q 96 -31 96 -2 q 101 -63 101 -59 l 96 -74 q 101 -95 101 -83 q 96 -100 101 -100 q 164 -285 127 -245 q 238 -369 164 -306 l 312 -406 l 322 -401 l 328 -401 q 480 -437 328 -419 q 565 -453 505 -453 l 612 -453 q 860 -385 706 -453 q 1023 -237 1023 -252 q 1187 0 1105 -157 l 1240 184 l 1240 237 q 1245 243 1240 243 q 1177 469 1225 404 q 1044 585 1080 578 l 1029 606 l 1029 623 q 1145 675 1115 650 q 1150 670 1145 670 q 1202 712 1150 680 q 1314 907 1283 831 q 1424 1239 1424 1132 l 1419 1239 l 1424 1250 l 1424 1255 q 1419 1260 1424 1260 l 1424 1271 l 1424 1281 q 1419 1286 1424 1286 l 1424 1297 l 1424 1360 q 1266 1651 1424 1516 q 1160 1687 1217 1672 l 1155 1687 q 1150 1682 1155 1682 q 1113 1698 1150 1698 l 1097 1698 q 955 1693 1053 1698 m 401 1539 l 407 1529 q 290 1402 304 1446 q 296 1397 296 1402 q 227 1181 256 1343 q 222 1092 222 1141 l 222 1081 q 217 1060 222 1069 q 222 1039 222 1050 l 222 1034 q 290 791 222 875 l 290 754 q 174 1070 174 833 l 180 1070 q 174 1076 180 1076 q 254 1419 174 1238 q 401 1539 348 1539 m 913 1339 q 1018 1202 1018 1310 q 1029 1171 1018 1188 q 997 997 1015 1150 q 945 886 949 913 q 833 838 897 838 l 818 838 q 691 923 746 838 q 702 965 696 965 l 696 975 l 696 997 q 744 1186 707 1011 q 913 1339 825 1339 m 881 1271 l 881 1265 q 918 1229 881 1258 l 918 1234 q 897 1271 897 1260 l 881 1271 m 1482 1255 q 1456 1086 1477 1181 q 1503 1034 1495 1034 l 1508 1034 l 1508 1086 q 1487 1223 1497 1223 l 1493 1234 q 1487 1255 1487 1243 l 1482 1255 m 823 1202 q 860 1160 823 1190 q 902 1113 902 1120 l 913 1113 l 913 1118 q 839 1223 913 1144 q 823 1202 826 1223 m 60 1232 q 86 1147 86 1207 q 107 1042 107 1147 l 165 852 q 254 726 179 791 q 275 710 275 723 l 275 705 q 260 699 260 705 q 144 800 202 719 q 60 1232 60 1029 m 797 1139 l 797 1118 q 818 1097 809 1118 l 818 1081 q 812 1076 818 1076 q 886 997 864 997 l 886 1007 l 892 1039 q 797 1139 892 1058 m 1435 1028 q 1403 939 1403 949 l 1409 939 q 1466 849 1466 865 q 1487 886 1475 849 q 1482 891 1487 891 q 1493 933 1493 930 q 1466 997 1485 933 l 1435 1028 m 765 1018 l 760 965 q 781 923 760 931 q 812 891 785 891 l 823 891 q 881 918 881 899 q 812 986 873 918 q 776 1018 798 1018 q 770 1013 776 1013 q 765 1018 770 1018 m 1340 812 q 1419 722 1360 812 l 1445 770 q 1388 897 1445 800 l 1382 897 q 1340 812 1369 897 m 45 849 l 55 849 q 97 754 71 840 q 165 659 157 659 q 239 623 210 623 q 324 644 296 628 q 329 638 324 638 q 245 596 329 618 q 34 818 99 596 q 45 849 45 839 m 1303 770 q 1276 707 1276 728 l 1356 617 l 1366 617 q 1382 648 1369 648 q 1303 770 1358 764 m 1229 670 q 1224 659 1229 659 q 1282 570 1282 581 l 1314 570 q 1240 670 1314 605 l 1229 670 m 1166 623 q 1224 564 1166 604 l 1224 570 q 1187 627 1187 618 l 1177 627 l 1166 623 m 728 401 q 833 264 808 401 l 828 264 q 833 258 828 258 l 828 232 l 828 184 q 749 -16 828 96 q 675 -37 705 -37 l 654 -31 q 628 -37 646 -37 q 528 74 551 20 q 670 374 528 260 q 728 401 713 401 m 670 290 q 744 216 682 290 l 755 237 q 702 317 748 260 l 686 317 q 670 290 677 317 m 1293 306 l 1293 180 q 1287 174 1293 174 q 1293 169 1287 169 q 1234 -37 1276 83 l 1234 -42 q 1287 -105 1243 -42 l 1293 -105 q 1340 163 1340 66 l 1329 163 l 1329 174 q 1318 243 1329 219 q 1324 248 1324 243 q 1297 306 1315 248 l 1293 306 m 602 201 q 702 127 621 196 l 707 127 q 712 158 707 151 q 639 248 702 186 q 602 201 622 241 m 596 174 q 586 132 586 155 l 586 95 q 596 85 587 85 l 591 74 q 660 16 591 38 l 660 5 l 675 5 l 691 16 q 681 64 686 64 l 686 74 q 644 121 686 82 l 596 174 m 1208 -79 q 1134 -200 1182 -128 l 1134 -205 q 1198 -290 1198 -275 l 1202 -290 q 1255 -184 1219 -288 q 1208 -79 1255 -138 m 1044 -300 l 1044 -306 l 1124 -411 l 1129 -411 l 1129 -406 l 1124 -395 q 1155 -369 1137 -395 l 1160 -369 l 1160 -342 q 1103 -248 1160 -307 q 1065 -290 1092 -248 q 1044 -300 1057 -300 m 1461 -279 l 1466 -279 q 1472 -300 1466 -291 q 1419 -411 1453 -349 l 1293 -569 l 1187 -675 l 1181 -685 q 1371 -538 1225 -675 l 1371 -527 l 1388 -527 l 1388 -538 q 1318 -637 1388 -578 q 1155 -738 1228 -725 l 1129 -738 l 1129 -749 l 1124 -749 q 1118 -743 1118 -749 l 1029 -764 q 976 -732 996 -764 l 976 -717 l 991 -717 l 1023 -722 q 1276 -527 1086 -722 q 1451 -285 1438 -334 l 1461 -279 m 981 -363 q 1055 -479 998 -363 l 1076 -479 q 1086 -464 1076 -464 q 1018 -353 1057 -392 q 1013 -342 1013 -353 l 1002 -342 q 981 -363 994 -342 m 918 -416 q 1008 -538 918 -420 q 1023 -532 1018 -532 q 949 -395 1023 -517 l 939 -395 q 918 -416 931 -395 m 860 -443 l 860 -448 q 939 -580 939 -570 l 955 -580 l 955 -574 q 871 -443 955 -545 l 860 -443 m 286 -453 l 286 -458 q 343 -527 296 -458 q 407 -574 352 -527 q 428 -580 418 -574 l 428 -569 l 364 -469 l 338 -469 l 328 -464 l 328 -469 l 290 -453 l 286 -453 m 802 -490 l 802 -496 q 876 -612 873 -591 l 897 -612 l 897 -585 q 818 -479 865 -524 l 812 -479 q 802 -490 802 -481 m 433 -485 q 533 -622 507 -622 l 533 -616 q 444 -485 461 -494 l 433 -485 m 728 -490 l 728 -496 q 828 -633 764 -574 l 828 -627 q 791 -564 828 -612 l 749 -490 l 728 -490 m 591 -500 l 591 -506 l 670 -633 l 681 -633 q 596 -500 625 -500 l 591 -500 m 523 -506 l 523 -517 q 581 -622 523 -555 q 596 -633 596 -622 q 607 -622 607 -633 q 586 -580 596 -622 l 533 -506 l 523 -506 m 665 -517 l 665 -522 q 734 -643 665 -529 l 755 -643 l 755 -637 q 665 -517 707 -517 z "},"9":{"ha":1566,"x_min":34,"x_max":1505,"o":"m 677 1925 l 688 1919 l 693 1919 l 703 1925 q 709 1919 703 1919 l 709 1925 l 720 1919 l 788 1919 q 925 1877 897 1919 q 1067 1761 1017 1811 q 1125 1719 1082 1761 q 1183 1672 1148 1719 q 1267 1577 1215 1672 q 1357 1392 1320 1481 l 1378 1297 l 1373 1297 q 1426 1018 1398 1219 l 1421 981 q 1431 807 1431 884 l 1431 760 l 1426 749 l 1431 749 l 1426 739 l 1426 701 q 1383 406 1426 669 q 1305 121 1347 203 q 1310 116 1310 121 l 1289 100 q 1152 -16 1289 54 q 1020 -95 1104 -35 q 899 -153 991 -115 q 804 -221 887 -168 q 788 -237 804 -229 q 709 -169 747 -195 q 566 -5 661 -87 l 566 0 q 614 132 614 96 q 688 469 661 278 l 688 528 q 682 532 688 532 l 688 543 l 688 554 q 677 564 688 564 q 614 549 677 554 q 583 538 614 538 l 583 543 l 572 538 q 556 543 556 538 l 530 538 q 408 564 471 538 q 350 591 408 572 q 208 739 334 599 q 118 807 168 783 q 87 886 87 861 q 71 902 79 886 l 71 933 q 34 1086 43 1086 l 39 1139 l 39 1176 l 34 1186 l 39 1186 l 34 1197 q 66 1366 50 1312 l 60 1366 q 250 1724 116 1613 q 445 1866 336 1803 l 535 1904 q 604 1919 574 1904 l 614 1914 q 677 1925 677 1919 m 1362 1898 l 1378 1898 l 1447 1698 q 1442 1693 1442 1698 q 1447 1687 1447 1693 l 1442 1687 q 1473 1513 1457 1666 q 1468 1497 1468 1503 q 1421 1624 1457 1497 q 1426 1630 1426 1624 q 1341 1883 1415 1630 l 1362 1898 m 1246 1883 q 1320 1788 1284 1883 q 1389 1655 1357 1735 l 1383 1655 q 1495 1324 1430 1592 l 1499 1292 l 1495 1292 q 1505 1244 1505 1267 l 1499 1244 l 1505 1234 l 1505 1223 l 1499 1213 l 1505 1213 q 1499 1208 1505 1208 l 1505 1171 l 1505 1160 l 1499 1149 q 1484 1155 1489 1155 l 1484 1176 q 1394 1550 1484 1254 q 1326 1703 1326 1694 q 1225 1851 1274 1799 l 1220 1851 q 1246 1883 1220 1857 m 102 1260 l 266 1144 l 277 1144 q 345 1402 296 1277 q 435 1539 428 1538 q 699 1735 627 1727 q 867 1782 768 1771 q 941 1788 875 1782 l 941 1793 q 883 1824 929 1793 q 819 1851 867 1844 q 793 1862 819 1860 l 724 1862 q 667 1866 703 1862 q 551 1845 646 1852 q 471 1814 551 1839 q 287 1672 391 1767 q 161 1487 175 1555 q 102 1260 134 1451 m 783 1703 l 772 1708 q 656 1651 702 1676 q 651 1655 656 1655 q 572 1598 651 1647 q 435 1434 452 1485 q 334 1149 366 1327 l 340 1149 q 324 991 324 1105 l 319 991 q 329 965 324 965 l 324 954 l 324 933 q 424 627 324 777 q 509 596 464 602 q 661 633 658 607 l 667 633 l 677 627 q 688 638 679 638 l 693 638 l 703 633 q 825 675 710 648 q 941 733 825 680 q 1004 781 1000 781 l 1015 775 q 1004 638 1004 705 q 999 633 1004 633 l 1004 623 l 1004 612 l 999 602 l 1004 602 l 999 591 l 999 496 q 962 290 999 436 q 930 158 962 220 q 862 -84 930 84 l 851 -121 q 1051 -16 1001 -50 l 1109 21 q 1278 148 1175 21 q 1294 222 1278 186 l 1289 232 q 1352 517 1324 360 l 1347 528 l 1347 532 q 1352 538 1347 538 q 1347 543 1352 543 q 1373 781 1373 633 l 1368 791 q 1378 823 1373 823 q 1362 933 1369 933 l 1368 944 l 1368 954 q 1362 960 1368 960 q 1368 965 1362 965 q 1320 1260 1351 1208 q 1326 1265 1320 1265 q 1183 1603 1312 1400 q 967 1724 1015 1724 q 909 1729 931 1729 q 809 1714 899 1721 q 783 1703 809 1703 m 872 1234 l 883 1234 q 888 1229 888 1234 q 893 1234 893 1229 q 946 1213 916 1234 l 946 1218 q 1004 1149 1004 1187 q 941 997 1004 1025 q 846 965 913 965 q 724 1107 724 965 q 804 1223 740 1171 q 872 1234 851 1234 m 92 1181 l 92 1144 q 108 1092 92 1092 q 260 991 123 1092 l 266 991 q 271 1007 266 997 l 266 1018 q 271 1023 266 1023 q 176 1144 271 1109 q 134 1171 172 1154 l 123 1165 q 108 1192 111 1165 l 102 1192 q 92 1181 92 1190 m 851 1181 l 840 1165 q 941 1113 855 1165 l 946 1113 q 951 1134 946 1134 q 904 1181 951 1162 l 893 1176 l 888 1176 q 883 1181 883 1176 l 872 1176 q 851 1181 863 1181 m 840 1113 l 840 1107 q 909 1060 849 1107 l 930 1060 q 846 1113 880 1105 l 840 1113 m 788 1065 l 788 1060 q 840 1018 801 1018 l 851 1018 q 862 1028 862 1018 q 798 1065 848 1041 l 788 1065 m 108 1034 l 108 1018 q 161 970 108 988 q 256 891 249 891 l 266 891 l 266 897 l 260 907 l 266 907 q 161 997 266 940 q 108 1034 160 1008 m 144 912 l 144 902 q 192 844 174 851 q 287 765 192 825 l 292 765 l 292 770 q 250 828 285 808 q 144 912 153 912 m 846 612 l 846 606 q 935 532 929 532 l 935 543 q 846 612 897 612 m 756 591 l 746 570 q 751 554 751 559 l 746 543 q 851 459 746 522 q 920 406 851 454 q 935 469 935 406 q 788 575 917 469 q 756 591 781 575 m 741 464 l 741 427 q 635 11 672 65 q 682 -47 642 -9 q 772 -158 694 -64 q 819 -42 804 -74 q 814 -37 814 -42 q 909 332 846 -37 q 741 464 852 410 m 477 211 q 482 205 477 205 q 419 11 419 128 q 513 -274 419 -143 q 682 -342 607 -342 l 709 -342 l 709 -348 q 703 -363 703 -358 l 672 -363 q 667 -369 667 -363 q 551 -337 551 -351 l 545 -337 l 545 -342 q 625 -432 572 -391 q 699 -469 675 -469 l 735 -469 l 746 -464 l 751 -474 l 751 -485 q 735 -496 751 -496 q 730 -490 730 -496 l 703 -496 l 688 -496 q 435 -242 561 -496 q 298 -21 298 -90 q 308 -5 302 -5 q 372 -100 320 -5 q 387 -116 384 -116 l 393 -116 q 376 16 376 -71 q 382 21 376 21 l 376 32 q 477 211 406 211 m 1331 -37 l 1336 -37 q 1262 -116 1336 -43 q 1152 -195 1262 -146 q 920 -321 1055 -260 l 893 -321 q 883 -311 883 -321 l 883 -295 q 1215 -116 1100 -184 q 1331 -37 1322 -48 m 1189 -253 l 1189 -258 q 1146 -285 1173 -285 q 1125 -311 1146 -292 l 1115 -306 q 1015 -363 1072 -351 q 1125 -285 1080 -294 q 1189 -253 1125 -271 z "}," ":{"ha":555,"x_min":0,"x_max":0,"o":""},"":{"ha":555,"x_min":0,"x_max":0,"o":""},"!":{"ha":1217,"x_min":34,"x_max":1156,"o":"m 471 1881 l 477 1871 q 213 1782 477 1840 q 192 1797 192 1789 l 192 1807 q 429 1876 209 1807 q 471 1881 442 1876 m 656 1860 l 667 1855 l 692 1860 q 698 1845 698 1850 q 667 1818 697 1829 l 656 1824 q 603 1807 603 1813 q 598 1813 598 1807 q 545 1797 558 1807 l 534 1803 q 245 1739 361 1755 l 239 1750 l 239 1755 q 435 1807 239 1769 q 460 1818 435 1813 l 460 1813 q 656 1855 530 1839 l 656 1860 m 182 1792 q 192 1750 186 1750 l 186 1739 q 197 1697 197 1720 l 197 1681 l 203 1681 q 561 1765 394 1718 l 572 1760 q 603 1771 589 1771 l 608 1771 q 551 1729 608 1740 q 371 1681 547 1729 l 371 1687 q 203 1644 317 1676 q 197 1649 203 1649 q 192 1628 197 1638 q 203 1565 199 1574 q 197 1560 203 1560 q 203 1544 197 1554 l 197 1507 q 208 1455 201 1455 l 203 1444 l 203 1428 l 208 1417 l 203 1417 l 208 1407 l 208 1391 q 203 1370 208 1379 q 208 1365 203 1365 l 203 1339 l 208 1318 q 203 1312 203 1318 l 208 1312 q 203 1254 203 1312 l 197 1254 q 182 1344 191 1328 q 186 1360 186 1354 l 182 1360 q 186 1365 182 1365 l 176 1423 l 182 1423 l 176 1434 l 176 1455 q 182 1459 176 1459 q 165 1634 171 1501 l 161 1634 q 45 1607 146 1634 q 34 1628 45 1615 q 161 1670 70 1644 q 165 1702 161 1702 l 161 1713 q 182 1792 170 1792 m 867 1687 l 888 1681 q 893 1687 888 1687 q 988 1586 893 1628 q 1019 1544 1006 1544 q 1004 1465 1009 1478 q 1009 1459 1004 1459 q 909 769 945 1171 l 914 759 q 872 490 899 687 l 877 490 q 867 395 867 463 l 867 390 q 751 342 851 342 q 650 316 680 330 l 640 321 q 593 306 625 321 l 593 311 l 582 306 l 566 306 q 561 311 561 306 q 482 279 503 302 l 450 321 q 355 416 410 389 q 345 448 355 431 l 355 506 q 334 675 347 524 q 313 859 327 675 l 308 859 q 319 896 319 886 l 308 922 l 313 954 l 308 954 q 313 970 313 964 l 308 1044 q 313 1059 308 1049 l 302 1175 q 308 1191 308 1185 q 302 1196 302 1191 l 308 1196 l 302 1206 q 308 1212 302 1212 q 298 1249 298 1239 q 302 1291 298 1262 q 281 1550 298 1439 q 292 1581 281 1564 l 302 1575 l 313 1575 q 614 1634 313 1589 q 688 1655 614 1646 q 703 1649 698 1649 q 819 1670 713 1660 q 825 1676 819 1676 l 825 1670 q 867 1687 851 1687 m 756 1607 l 756 1613 l 677 1597 l 677 1602 q 619 1581 619 1590 q 614 1586 614 1581 l 366 1539 q 418 1481 366 1525 l 445 1486 q 487 1481 474 1481 q 492 1486 487 1486 l 492 1481 q 534 1497 534 1493 q 540 1491 540 1497 l 920 1550 q 930 1560 930 1550 q 835 1623 886 1606 q 756 1607 770 1607 m 856 1470 l 825 1481 q 719 1459 795 1470 q 703 1465 709 1465 q 582 1438 582 1448 q 576 1444 576 1438 q 456 1413 456 1436 l 450 1402 q 460 1365 450 1392 l 456 1365 q 466 1318 460 1318 l 460 1307 q 471 1175 462 1175 l 466 1164 q 477 1080 466 1120 l 471 1080 q 482 964 482 1041 l 487 964 l 482 954 q 487 949 482 949 q 482 943 487 943 l 503 632 l 503 622 q 498 601 503 610 q 508 559 503 559 l 503 548 l 508 537 q 503 532 508 532 l 513 485 l 508 474 l 519 411 l 513 411 q 530 358 521 358 l 555 363 l 555 358 l 629 374 l 629 369 q 798 406 709 390 q 840 648 813 439 l 835 648 q 856 795 846 665 l 851 795 q 882 954 867 853 l 877 964 q 951 1444 914 1286 l 956 1491 l 941 1491 q 856 1470 856 1488 m 340 1486 l 340 1459 l 345 1449 l 340 1449 l 345 1438 l 345 1428 q 350 1312 345 1391 q 345 1307 345 1312 l 350 1307 l 345 1297 l 355 1206 l 350 1206 q 361 1170 355 1170 q 355 1154 361 1164 q 366 954 366 983 l 361 954 q 371 896 366 896 q 366 890 371 890 l 371 864 l 371 827 q 376 769 371 806 q 371 748 371 760 q 397 574 382 700 l 392 574 q 408 453 401 551 q 456 400 447 400 l 460 400 q 450 516 450 496 l 456 516 l 445 569 q 450 574 445 574 l 445 595 q 439 785 439 713 q 435 791 435 785 l 439 791 q 435 806 435 801 q 418 1054 435 909 l 424 1054 q 414 1191 414 1086 l 414 1206 q 408 1212 414 1212 q 414 1217 408 1217 l 408 1244 l 414 1270 l 408 1270 q 414 1275 408 1275 q 408 1291 414 1281 l 414 1318 q 397 1386 408 1358 l 403 1386 q 345 1486 387 1451 l 340 1486 m 587 279 l 598 274 q 629 279 602 274 l 682 274 l 682 279 q 761 248 709 263 q 899 105 889 106 q 941 42 899 93 q 962 -47 962 -30 q 899 -216 962 -87 q 751 -348 840 -315 q 656 -385 692 -363 l 629 -380 l 614 -380 q 555 -395 593 -395 q 376 -274 465 -395 q 287 -163 321 -239 q 245 -5 245 -87 l 245 26 q 340 184 263 113 q 555 269 416 252 l 587 279 m 414 168 q 408 174 414 174 q 313 68 320 108 q 302 47 307 68 l 308 47 q 298 16 298 30 q 366 -58 355 -58 l 371 -58 q 403 21 385 -58 q 466 105 466 102 q 629 179 555 168 l 640 174 q 719 190 655 174 l 719 195 q 629 227 719 223 l 608 227 l 598 221 l 598 227 q 414 168 414 188 m 435 -37 l 439 -47 l 424 -95 q 429 -100 424 -100 l 424 -127 q 534 -317 424 -237 q 572 -332 566 -332 q 714 -306 671 -332 q 719 -311 714 -311 q 787 -274 719 -306 q 861 -163 840 -220 q 899 -106 870 -163 q 914 -74 903 -106 q 909 -68 914 -68 l 914 -42 l 914 -32 q 819 84 914 7 l 724 121 l 714 116 q 692 121 705 121 l 692 116 q 688 121 688 116 q 492 47 552 121 q 435 -37 472 29 m 1083 -5 l 1093 -5 q 1156 -142 1156 -50 q 1114 -306 1156 -214 q 1046 -437 1110 -306 q 993 -511 1038 -437 q 893 -595 939 -595 l 888 -595 q 941 -522 888 -574 q 967 -485 941 -504 q 1093 -248 1093 -269 q 1125 -148 1125 -199 l 1125 -95 l 1120 -85 l 1125 -85 q 1083 -21 1102 -21 l 1083 -5 m 312 -85 l 312 -104 q 347 -167 338 -165 l 382 -179 q 312 -85 375 -115 m 1093 -184 l 1093 -205 l 1067 -269 q 1015 -353 1015 -340 q 692 -574 792 -574 q 603 -511 603 -566 l 603 -506 l 608 -506 q 677 -538 644 -538 l 692 -538 q 861 -443 815 -498 q 998 -317 880 -443 q 1083 -184 1083 -236 l 1093 -184 z "},",":{"ha":1188,"x_min":34,"x_max":1127,"o":"m 383 473 q 457 441 457 465 l 457 437 l 452 437 l 414 441 q 283 352 355 431 q 161 99 161 160 q 130 -38 143 64 l 125 -38 q 109 41 113 -18 q 283 410 109 198 q 383 473 323 447 m 625 358 q 667 348 667 355 l 677 353 l 683 353 q 725 342 706 353 q 746 348 734 348 l 746 342 l 757 348 q 888 311 867 311 q 894 316 888 316 q 1015 132 917 267 q 1067 37 1035 132 q 1062 21 1062 26 l 1067 21 l 1062 10 q 1073 -26 1073 -11 q 972 -258 1065 -99 q 820 -485 972 -281 q 741 -548 804 -485 q 414 -696 542 -696 q 303 -654 303 -682 q 272 -595 292 -654 q 193 -458 241 -566 q 156 -380 184 -458 l 156 -369 q 256 -184 188 -328 l 261 -184 q 214 -116 261 -175 q 203 -85 214 -107 q 345 227 203 65 q 625 358 446 358 m 361 137 l 409 52 l 414 52 q 604 184 499 166 q 677 205 661 195 l 793 205 q 814 211 806 205 q 830 205 825 205 l 830 211 l 920 179 l 920 190 q 857 253 887 240 q 820 279 852 269 l 809 274 q 720 300 783 290 q 714 295 714 300 l 677 300 l 641 300 q 467 258 541 300 q 361 137 382 182 m 66 278 l 76 278 q 87 220 87 235 q 76 173 76 186 l 76 131 q 81 57 76 102 q 76 41 76 47 q 81 25 81 31 l 76 25 q 97 -75 81 14 q 92 -80 92 -75 q 123 -159 102 -80 q 171 -207 166 -207 l 171 -212 q 165 -217 165 -212 q 87 -138 130 -217 q 45 -7 60 -71 q 50 -1 45 -1 q 34 115 39 53 l 39 125 q 34 131 39 131 q 66 278 48 256 m 382 -237 q 446 -359 382 -294 q 456 -374 446 -374 l 456 -433 q 377 -595 377 -562 q 367 -622 372 -595 q 398 -643 372 -643 l 451 -643 q 688 -522 570 -607 q 852 -353 795 -441 q 1015 -42 959 -182 l 1010 -32 l 1015 5 q 867 142 1015 113 q 814 163 867 151 l 809 163 l 799 158 l 799 163 l 788 158 l 714 158 l 704 163 l 704 158 l 693 163 l 577 126 q 430 -58 476 75 q 382 -237 409 -115 m 1111 -104 l 1116 -104 q 1125 -132 1116 -131 q 1119 -136 1124 -137 q 1127 -179 1118 -146 l 1120 -190 q 1122 -248 1123 -236 q 1095 -330 1118 -300 l 1101 -330 q 1095 -336 1100 -336 l 1098 -362 q 963 -696 1029 -587 q 940 -715 941 -705 l 930 -715 q 920 -704 930 -705 l 981 -587 q 1089 -256 1084 -332 q 1096 -240 1095 -256 q 1091 -230 1097 -230 q 1111 -104 1105 -189 m 319 52 l 372 -21 q 382 -32 374 -32 l 388 5 l 345 68 l 340 68 l 319 52 m 303 -21 l 303 -26 q 345 -116 322 -78 q 356 -106 356 -116 q 303 -21 356 -66 m 293 -127 q 314 -184 302 -141 q 330 -201 326 -201 l 335 -190 l 335 -169 q 303 -127 303 -137 l 293 -127 m 1021 -404 l 1021 -410 q 942 -547 1013 -459 q 871 -647 937 -566 q 803 -716 836 -677 q 764 -745 765 -732 l 753 -744 q 852 -619 755 -713 q 1021 -404 1007 -409 m 288 -258 q 224 -401 224 -357 q 277 -522 272 -493 q 309 -574 286 -522 l 319 -574 q 335 -527 335 -536 l 335 -506 q 393 -411 349 -506 q 298 -253 345 -317 q 288 -258 288 -253 z "},"-":{"ha":1183,"x_min":34,"x_max":1122,"o":"m 979 1244 q 1021 1218 1006 1244 q 1000 1197 1021 1210 q 958 1202 987 1197 q 858 1197 907 1197 l 847 1192 l 847 1197 l 805 1186 q 800 1192 800 1186 q 763 1181 763 1188 l 753 1186 q 621 1160 664 1175 q 615 1165 615 1160 q 510 1144 519 1151 l 499 1149 l 489 1149 q 484 1144 484 1149 q 468 1149 473 1149 l 468 1155 q 658 1213 468 1167 q 979 1244 871 1244 m 1032 1144 q 1063 1128 1063 1139 l 1063 1113 l 985 1113 q 942 1102 979 1113 l 926 1102 q 921 1107 921 1102 q 890 1097 890 1102 l 879 1102 l 852 1092 q 842 1102 852 1102 l 816 1097 q 810 1102 816 1102 l 810 1097 l 800 1102 l 763 1102 q 742 1107 751 1102 q 721 1102 732 1102 l 694 1107 q 673 1102 685 1102 l 673 1107 l 663 1102 q 499 1092 506 1092 l 499 1097 l 489 1092 q 484 1097 484 1092 l 473 1092 l 463 1092 l 463 1102 l 468 1113 l 478 1107 l 489 1113 l 489 1107 l 499 1113 q 505 1107 505 1113 l 610 1128 q 615 1123 615 1128 q 715 1134 657 1134 l 715 1128 l 726 1134 l 763 1134 l 800 1139 l 800 1134 l 810 1139 q 1032 1144 1012 1144 m 937 1018 q 1021 1013 991 1013 l 1095 1013 l 1095 954 q 1090 939 1095 939 l 1095 912 l 1095 844 q 1105 791 1096 791 l 1101 781 q 1111 743 1111 747 q 1105 728 1105 733 q 1116 701 1116 711 q 1111 696 1111 701 l 1116 696 l 1111 686 l 1111 612 q 1116 606 1111 606 l 1111 596 l 1111 549 q 1122 517 1111 534 q 1095 490 1111 517 q 1058 433 1082 490 q 989 343 989 376 q 774 332 931 343 l 763 338 q 736 327 746 327 q 731 332 736 332 q 726 327 731 327 l 726 332 l 715 327 l 710 327 q 705 332 705 327 q 531 306 677 321 q 526 311 531 311 l 526 306 l 515 311 l 494 311 q 473 306 482 311 l 463 311 q 410 296 410 306 l 399 300 l 151 300 q 141 348 141 325 l 146 374 q 141 427 141 402 l 141 433 l 146 443 l 141 443 l 146 454 l 146 459 q 136 496 146 496 l 141 507 l 141 602 q 136 606 141 606 q 141 612 136 612 q 146 770 146 718 l 146 817 q 294 923 161 842 q 347 960 294 949 l 420 960 q 425 965 425 960 q 441 960 436 960 l 452 965 l 463 960 l 473 965 q 478 960 478 965 q 531 970 518 965 q 536 965 536 970 q 600 975 586 972 l 600 970 q 631 981 621 981 l 631 975 q 679 986 642 981 l 679 981 q 779 1002 779 997 q 795 997 789 997 q 884 1013 829 997 q 890 1007 890 1013 l 937 1018 m 668 928 q 663 933 663 928 l 573 918 q 568 923 573 923 q 563 918 568 918 l 563 923 q 526 907 526 914 l 515 912 l 473 912 l 447 907 l 447 912 q 431 902 431 907 l 420 907 l 373 907 q 257 838 348 907 l 257 828 l 320 828 q 341 833 332 828 q 362 828 351 828 l 368 828 l 394 833 l 394 828 q 447 844 447 833 q 452 838 452 844 q 668 870 457 838 l 668 865 q 731 876 677 870 l 742 870 q 758 876 752 876 l 758 870 q 900 902 900 888 q 963 944 900 923 l 968 965 l 953 965 q 668 928 738 944 m 974 886 q 985 876 975 876 q 1037 954 1037 937 q 974 897 986 897 l 974 886 m 963 796 l 963 749 l 1042 844 l 1042 865 l 1037 865 q 963 796 1022 861 m 821 823 q 816 828 816 823 l 789 823 l 747 823 q 742 817 742 823 q 736 823 736 817 q 694 812 727 823 l 694 817 l 563 791 q 557 796 557 791 l 531 791 l 494 791 q 420 775 484 781 q 415 781 420 781 l 415 775 l 404 781 l 373 775 q 368 781 368 775 l 347 770 l 347 775 l 326 765 q 262 775 275 775 q 199 760 262 765 q 189 733 189 742 q 193 416 193 461 q 215 353 203 353 l 215 359 q 220 353 220 359 l 267 359 q 515 364 496 364 q 520 369 515 369 l 520 364 l 531 369 l 563 369 q 694 391 626 369 l 705 385 l 715 391 q 726 385 726 391 l 779 391 l 879 391 q 884 395 884 391 l 895 391 l 900 391 q 921 427 921 399 l 921 464 q 911 490 921 490 l 916 501 q 911 580 916 528 l 916 580 l 911 591 l 911 648 q 905 654 911 654 q 911 659 905 659 l 905 686 l 905 838 q 821 823 821 833 m 1037 775 q 963 644 976 690 q 968 623 968 634 q 1053 749 1053 720 l 1053 765 q 1042 775 1053 775 l 1037 775 m 1053 665 q 968 554 1034 615 l 968 528 q 979 517 970 517 q 1058 623 1058 593 l 1058 665 l 1053 665 m 979 443 l 979 437 q 1048 511 1011 456 q 995 459 1028 510 q 979 443 987 459 m 63 380 l 68 380 l 70 376 l 67 311 q 218 159 119 208 q 420 94 353 79 q 447 94 421 88 l 446 99 q 463 97 457 96 q 505 127 479 100 l 519 130 l 522 120 q 443 60 492 71 q 427 62 432 63 l 428 57 q 132 161 317 34 q 44 294 57 231 q 63 380 34 342 m 721 238 q 726 233 726 238 l 752 238 l 784 238 l 810 233 l 810 227 q 779 191 810 203 l 768 195 q 700 185 705 191 l 700 191 l 689 185 l 678 191 q 526 174 632 180 q 463 185 471 180 q 457 180 463 180 q 452 185 457 185 l 452 180 q 446 185 446 180 l 420 180 q 394 191 394 180 l 383 185 q 341 201 341 191 q 372 212 358 212 l 378 212 q 383 206 383 212 l 394 212 l 431 212 q 452 217 443 212 q 467 212 462 212 l 721 238 m 118 94 l 136 87 q 140 94 135 92 q 323 19 190 56 l 395 7 l 394 12 q 437 10 415 5 l 484 20 q 545 66 496 23 l 549 66 l 553 52 q 476 -19 547 31 q 470 -15 475 -14 q 465 -21 471 -20 q 459 -17 465 -16 q 456 -23 460 -22 l 454 -18 l 445 -25 l 439 -26 q 433 -22 434 -28 q 430 -28 429 -23 q 223 3 354 -37 q 109 87 113 64 l 118 94 z "},".":{"ha":928,"x_min":34,"x_max":867,"o":"m 414 295 l 418 295 q 435 279 426 295 l 435 274 q 260 184 296 240 q 134 -21 165 80 q 87 -116 127 -21 l 76 -116 l 76 -106 l 71 -106 q 60 -190 60 -165 l 60 -211 l 66 -237 l 60 -237 l 66 -248 l 66 -258 l 60 -258 q 34 -195 34 -237 l 34 -163 q 118 179 34 -10 q 150 216 150 199 l 155 216 l 155 211 l 144 147 l 150 147 l 113 42 l 118 42 q 414 295 232 295 m 576 153 q 719 95 673 128 l 798 42 q 867 -106 835 42 l 867 -127 q 751 -348 826 -283 q 551 -543 717 -426 q 424 -570 511 -564 l 424 -574 q 387 -564 387 -570 l 376 -570 q 239 -522 271 -555 q 139 -321 139 -431 l 139 -300 q 134 -295 139 -295 q 213 -90 134 -243 q 250 -26 213 -81 q 382 111 285 51 q 471 142 410 126 l 471 137 q 519 147 519 142 l 530 142 q 576 153 576 145 m 271 -137 q 276 -142 276 -137 l 271 -142 l 276 -153 l 276 -179 q 355 -342 276 -259 q 466 -401 387 -374 q 688 -332 593 -385 q 798 -163 780 -247 q 814 -111 814 -127 q 698 47 814 5 q 635 84 680 72 q 593 100 635 95 l 593 95 l 582 100 q 576 95 576 100 l 566 100 l 561 100 q 524 95 538 95 l 524 100 q 366 31 465 100 q 271 -137 289 -68 m 192 -274 l 197 -274 l 192 -285 l 192 -306 q 197 -311 192 -311 l 192 -321 l 192 -332 q 245 -274 245 -283 q 224 -205 224 -219 q 192 -274 211 -210 m 255 -321 q 213 -390 225 -390 q 229 -427 218 -427 q 287 -348 258 -382 l 287 -342 q 266 -321 287 -334 l 255 -321 m 276 -464 l 281 -464 q 334 -411 328 -411 l 334 -395 q 323 -385 334 -385 q 276 -464 291 -408 m 551 -437 l 540 -433 q 466 -517 523 -435 l 471 -517 q 572 -454 516 -517 q 614 -422 587 -454 q 551 -437 602 -422 m 450 -443 q 424 -479 450 -479 l 424 -485 l 439 -485 q 477 -448 439 -465 l 477 -443 l 450 -443 m 792 -542 q 623 -658 753 -595 q 423 -711 496 -711 l 397 -711 l 387 -716 q 381 -711 387 -711 l 381 -716 q 265 -631 265 -716 l 265 -626 q 281 -621 271 -626 q 360 -663 294 -663 q 534 -637 486 -652 l 534 -642 q 739 -553 694 -592 q 792 -542 768 -542 m 792 -578 l 808 -578 q 581 -768 808 -663 q 465 -800 532 -789 q 413 -785 424 -785 l 413 -779 q 513 -753 413 -768 q 771 -610 587 -743 q 792 -578 792 -589 z "},"?":{"ha":1383,"x_min":34,"x_max":1322,"o":"m 439 1923 l 450 1923 q 460 1902 450 1915 q 403 1881 460 1887 q 34 1655 257 1809 l 34 1676 q 155 1755 42 1676 q 208 1792 159 1755 l 292 1855 q 439 1923 401 1920 m 808 1829 q 877 1807 808 1817 q 1061 1691 977 1773 q 1204 1476 1126 1607 q 1262 1407 1216 1448 q 1293 1238 1280 1407 l 1289 1238 l 1293 1228 q 1188 906 1267 1056 q 1057 748 1105 795 q 1004 701 1024 709 q 930 627 1004 682 q 867 485 888 598 l 867 443 q 861 437 867 437 q 867 432 861 432 l 861 406 l 872 253 l 867 216 l 877 121 q 867 79 873 79 q 851 74 861 79 q 830 79 842 79 q 671 16 715 45 l 661 21 l 492 -47 q 397 58 477 -39 q 334 216 334 87 q 323 311 334 311 q 329 316 323 316 q 319 385 325 385 q 323 390 319 390 l 313 490 l 319 490 l 313 500 l 313 537 l 319 564 l 313 564 q 340 717 326 656 q 445 848 340 757 q 593 1022 564 960 l 593 1027 q 350 917 538 1027 q 302 880 350 910 q 308 875 308 880 q 266 843 302 875 q 134 970 266 865 q 129 964 134 964 q 87 1044 87 1020 q 50 1349 60 1316 q 55 1354 50 1354 q 45 1497 45 1405 l 45 1523 q 34 1571 45 1536 q 376 1744 296 1744 q 619 1807 496 1794 q 656 1818 635 1807 l 667 1813 q 709 1824 693 1824 l 709 1818 q 714 1824 714 1818 l 740 1818 l 756 1818 l 783 1824 l 783 1818 l 808 1829 m 735 1760 l 692 1760 q 298 1670 549 1760 q 208 1623 298 1659 q 92 1518 92 1558 l 92 1491 q 97 1486 92 1486 q 92 1481 97 1481 q 118 1265 97 1399 l 113 1265 q 139 1096 113 1259 l 134 1096 q 144 1065 144 1074 l 139 1065 q 144 1044 144 1055 l 150 1044 l 287 1154 q 366 1202 297 1154 q 524 1275 459 1238 q 545 1280 545 1275 l 555 1275 q 576 1280 558 1275 q 640 1265 640 1270 l 650 1270 l 656 1270 q 688 1160 688 1203 l 688 1149 q 629 975 688 1038 q 477 801 616 935 q 376 585 376 716 q 371 580 371 585 l 376 569 l 371 532 q 376 527 371 527 l 371 500 l 371 479 q 376 458 371 467 q 371 453 376 453 q 387 342 378 365 l 382 332 l 387 311 l 382 300 q 392 284 387 284 l 387 258 l 387 253 l 392 242 l 387 242 q 397 174 397 218 l 397 158 l 403 147 q 677 237 548 205 q 688 274 688 258 l 671 342 q 677 358 677 353 q 661 485 667 386 q 730 717 669 605 q 972 1069 935 903 q 1067 1523 1067 1314 q 998 1670 1067 1592 q 945 1713 972 1703 q 941 1708 945 1708 q 772 1765 941 1730 l 756 1765 l 745 1760 l 745 1765 l 735 1760 m 1125 1491 q 1120 1476 1125 1476 l 1125 1465 q 1104 1259 1104 1305 q 1215 1143 1200 1143 l 1220 1143 q 1230 1280 1230 1245 l 1225 1280 l 1230 1291 l 1220 1318 q 1225 1339 1225 1326 q 1125 1491 1146 1474 m 555 1202 q 629 1122 586 1135 l 629 1128 q 555 1202 629 1135 m 1083 1196 q 1051 1112 1067 1168 l 1051 1107 q 1162 1017 1116 1038 l 1183 1017 q 1199 1090 1183 1034 q 1093 1191 1184 1090 l 1083 1196 m 460 1181 l 460 1175 q 540 1086 462 1164 l 551 1086 l 551 1096 q 466 1181 473 1180 l 460 1181 m 392 1065 l 392 1059 q 414 1033 414 1048 l 424 1033 q 392 1065 414 1054 m 245 1044 q 319 964 271 1005 l 323 975 q 298 1006 317 975 q 302 1012 302 1006 q 271 1027 282 1027 l 276 1038 l 255 1054 q 245 1044 245 1053 m 1030 1044 q 1019 996 1019 1013 q 1125 906 1084 958 l 1156 970 q 1036 1044 1128 970 l 1030 1044 m 182 1006 q 255 932 243 932 l 260 943 l 192 1006 l 182 1006 m 1305 918 l 1316 918 l 1322 891 q 1069 528 1322 790 q 1000 490 1029 490 q 968 511 985 490 q 1027 553 968 534 q 1221 770 1190 705 q 1269 823 1221 779 q 1305 918 1291 863 m 1015 938 l 1015 932 q 1067 859 1015 913 l 1078 859 q 1015 938 1078 888 m 977 848 l 977 833 q 1009 795 1002 795 l 1015 795 l 983 848 l 977 848 m 914 791 l 909 780 l 909 774 q 951 738 932 738 l 951 743 q 914 791 937 779 m 840 738 l 840 727 q 899 675 851 727 q 909 685 909 675 q 851 748 870 739 q 840 738 840 747 m 1263 712 l 1274 712 l 1274 690 q 1084 448 1274 629 q 989 390 1018 390 q 968 422 968 395 q 1090 511 1011 433 q 1263 712 1208 622 m 787 690 l 787 685 q 793 664 787 673 q 787 643 787 654 q 830 590 803 606 q 851 643 851 627 q 804 690 809 690 l 787 690 m 740 601 q 730 516 730 532 q 787 464 740 516 q 804 458 798 458 l 804 469 q 814 516 804 482 q 745 601 784 567 l 740 601 m 1221 437 l 1232 437 q 1242 427 1242 436 q 1031 321 1171 355 l 1021 321 q 995 338 995 328 q 1116 390 995 355 q 1221 437 1209 437 m 724 448 l 724 437 q 751 358 724 358 q 808 300 781 335 l 808 332 q 804 379 808 351 q 808 395 808 389 q 730 448 762 406 l 724 448 m 740 295 q 808 184 740 245 l 814 221 q 740 295 814 229 m 667 163 l 667 158 q 724 105 669 139 l 740 105 l 740 111 q 688 153 734 111 l 667 163 m 572 153 l 572 137 q 640 84 580 137 l 646 84 q 587 153 606 147 l 572 153 m 519 105 l 519 100 q 561 42 561 64 l 576 42 q 587 52 587 42 l 587 58 q 519 105 545 105 m 435 95 q 492 31 486 31 l 492 37 q 445 95 492 44 l 435 95 m 724 -37 q 867 -111 797 -37 q 945 -222 867 -120 q 998 -300 945 -230 q 1015 -411 1009 -315 q 909 -570 1000 -481 q 714 -648 781 -648 l 703 -643 l 692 -648 q 688 -643 692 -643 l 688 -648 q 576 -612 621 -637 q 408 -433 482 -536 q 382 -327 387 -380 q 414 -237 392 -255 l 408 -227 q 498 -121 466 -130 q 582 -58 525 -74 q 724 -37 661 -37 m 435 -306 q 498 -443 435 -404 l 561 -443 l 572 -437 l 572 -443 q 671 -411 661 -430 l 682 -416 q 787 -332 751 -394 q 825 -290 787 -326 q 856 -205 846 -268 q 830 -158 850 -205 q 714 -100 789 -100 l 714 -95 l 703 -100 l 682 -100 q 677 -95 677 -100 q 524 -163 573 -118 q 439 -306 439 -248 l 435 -306 m 893 -253 q 825 -380 893 -296 l 808 -411 q 882 -511 876 -485 l 888 -511 l 935 -458 q 962 -411 949 -418 q 956 -406 962 -406 l 962 -380 q 956 -374 962 -374 l 962 -363 l 962 -353 q 899 -253 962 -328 l 893 -253 m 298 -433 l 302 -433 q 392 -606 302 -542 q 524 -690 419 -650 q 619 -728 534 -707 q 688 -717 627 -722 q 692 -722 688 -722 q 635 -759 692 -750 l 635 -764 l 646 -764 l 656 -759 l 656 -764 l 735 -743 l 735 -764 q 587 -802 735 -784 l 540 -802 q 519 -796 528 -802 q 513 -802 513 -796 q 271 -722 342 -775 q 186 -638 201 -665 l 186 -606 l 197 -606 q 361 -717 257 -676 q 498 -759 384 -737 l 498 -754 q 555 -764 518 -764 l 629 -764 l 629 -759 q 345 -617 503 -759 q 302 -553 345 -608 q 281 -454 281 -510 q 298 -433 290 -433 m 761 -443 l 761 -448 q 825 -548 769 -497 l 840 -548 l 840 -538 q 761 -443 786 -459 m 635 -494 q 699 -577 699 -558 l 718 -577 l 662 -485 q 635 -494 644 -494 m 543 -505 q 609 -563 593 -531 q 657 -597 625 -563 l 671 -597 q 581 -501 655 -566 l 543 -505 z "},"A":{"ha":1561,"x_min":34,"x_max":1500,"o":"m 509 1445 l 524 1445 q 604 1408 571 1445 q 456 1371 456 1396 q 303 1097 303 1284 q 308 1092 308 1097 l 303 1092 q 313 1060 313 1070 l 303 1055 l 287 1055 q 277 1076 287 1063 l 282 1076 q 266 1139 273 1101 q 355 1355 266 1238 q 393 1387 365 1355 q 509 1445 480 1445 m 1200 1445 l 1200 1440 q 1215 1445 1210 1445 q 1274 1387 1274 1445 q 1352 1255 1291 1376 q 1426 1118 1426 1149 q 1411 1092 1419 1118 l 1416 1055 l 1416 1013 q 1411 1007 1416 1007 l 1416 997 l 1416 939 q 1432 828 1432 838 l 1426 828 l 1432 817 l 1432 770 q 1442 696 1432 736 l 1437 696 q 1447 648 1442 648 q 1442 643 1447 643 q 1447 538 1447 572 l 1447 532 l 1442 501 q 1458 363 1451 483 l 1463 363 q 1458 359 1463 359 l 1468 179 q 1463 174 1463 179 l 1468 174 l 1463 163 q 1468 79 1468 109 l 1468 68 q 1474 63 1468 63 l 1468 52 q 1474 -58 1474 -16 l 1474 -64 q 1468 -85 1474 -75 l 1479 -132 q 1474 -138 1479 -138 q 1490 -180 1479 -180 q 1479 -206 1485 -206 q 1490 -258 1485 -258 q 1485 -264 1490 -264 q 1500 -401 1500 -359 l 1500 -406 q 1442 -427 1454 -427 l 1437 -427 l 1426 -422 q 1395 -448 1426 -432 q 1384 -438 1395 -438 l 1289 -480 q 1274 -475 1279 -475 q 1025 -554 1099 -543 q 972 -448 1019 -554 q 909 -306 924 -364 q 904 -301 904 -306 l 904 -285 l 909 -275 l 904 -275 q 909 -269 904 -269 l 904 -243 l 904 -211 l 851 -211 l 841 -206 l 841 -211 l 830 -206 l 799 -206 l 778 -222 q 762 -206 778 -214 q 720 -296 740 -206 l 677 -454 l 683 -454 q 625 -501 669 -501 q 450 -412 581 -467 q 324 -353 412 -380 q 245 -306 309 -334 q 197 -216 245 -294 q 171 -159 197 -203 q 123 -47 142 -107 q 308 659 213 227 q 372 897 324 745 q 456 1218 414 1033 q 450 1234 450 1228 q 514 1260 450 1250 q 778 1324 557 1286 q 899 1360 800 1333 l 899 1355 q 1200 1445 1107 1408 m 256 1381 q 313 1350 313 1370 l 313 1334 l 277 1339 q 165 1034 165 1243 q 213 865 165 928 l 213 859 l 187 854 q 155 912 187 865 q 140 960 148 943 l 144 960 q 129 1049 129 995 l 134 1070 q 129 1076 134 1076 l 134 1102 l 134 1139 l 140 1149 l 134 1149 l 150 1202 l 144 1202 q 256 1381 170 1304 m 1179 1366 q 1158 1371 1169 1371 l 1136 1360 l 1136 1366 q 1025 1339 1074 1345 q 989 1324 1025 1334 q 983 1329 989 1329 q 772 1276 983 1318 l 709 1255 l 709 1260 q 583 1234 647 1254 q 498 1171 498 1200 q 425 891 482 1067 q 345 596 361 672 q 303 390 345 567 l 308 390 q 271 269 282 314 l 277 269 q 182 -64 182 -43 q 377 -153 233 -100 q 488 -211 428 -189 q 530 -227 488 -224 q 614 0 556 -185 q 609 21 609 9 l 640 47 q 693 26 693 31 l 704 31 q 756 21 756 27 l 767 26 q 909 -5 901 -5 q 946 -53 946 -5 q 968 -211 962 -132 q 962 -227 962 -221 q 983 -280 975 -280 q 1247 -163 1143 -202 l 1274 -138 l 1284 -142 q 1310 -79 1310 -142 q 1305 63 1310 -66 l 1300 63 l 1305 74 q 1300 90 1300 84 l 1305 90 l 1284 316 l 1289 316 l 1284 327 l 1284 395 q 1247 812 1253 671 q 1253 849 1253 833 l 1247 849 l 1253 859 l 1242 907 l 1247 907 l 1242 918 q 1247 970 1242 924 l 1242 981 q 1247 986 1242 986 q 1205 1308 1210 1292 l 1210 1318 l 1210 1366 q 1200 1377 1210 1377 l 1179 1366 m 1268 1303 l 1268 1286 q 1274 1282 1274 1286 l 1268 1282 q 1295 1208 1268 1267 q 1352 1118 1314 1162 l 1352 1139 q 1274 1292 1352 1160 l 1274 1303 l 1268 1303 m 1289 1128 l 1289 1123 q 1295 1076 1295 1095 q 1337 1013 1310 1076 q 1358 991 1352 991 q 1363 997 1358 997 q 1321 1092 1363 1061 q 1289 1128 1294 1128 m 1305 975 l 1305 933 q 1373 849 1354 859 q 1321 954 1373 918 q 1305 975 1321 975 m 1310 854 l 1310 812 q 1390 665 1310 758 l 1390 669 q 1352 807 1381 779 l 1310 854 m 804 754 l 841 754 l 862 733 q 857 717 857 723 q 867 622 857 689 l 862 622 q 883 527 869 573 q 878 522 883 522 q 904 348 888 378 l 899 348 q 915 274 909 327 q 878 232 913 262 l 846 237 l 836 232 q 830 237 836 237 q 825 232 830 232 q 804 248 825 240 l 793 242 q 714 264 735 264 l 704 258 q 651 279 671 264 q 688 411 661 304 q 683 416 683 411 q 746 601 693 416 q 783 707 770 636 q 804 754 789 707 m 1316 690 l 1316 675 q 1326 617 1326 643 l 1342 627 l 1358 601 l 1352 601 q 1395 517 1352 560 l 1395 574 q 1331 665 1395 618 q 1321 690 1331 668 l 1316 690 m 1348 490 q 1352 485 1348 485 l 1342 464 q 1348 458 1348 464 l 1342 458 q 1405 348 1354 416 l 1405 353 q 1395 411 1402 411 l 1400 422 l 1400 437 q 1352 490 1357 490 l 1348 490 m 767 479 l 772 469 l 772 464 l 767 437 q 788 369 776 437 q 836 316 825 316 l 841 316 l 841 327 q 830 353 841 353 l 836 363 l 836 401 q 772 479 800 453 l 767 479 m 735 369 q 725 337 732 337 l 730 327 l 725 316 q 778 306 768 316 l 778 316 q 741 369 752 369 l 735 369 m 1348 348 l 1348 342 q 1373 264 1373 277 q 1405 227 1402 227 l 1411 279 q 1358 348 1386 289 l 1348 348 m 1352 205 l 1358 195 l 1352 195 q 1379 137 1359 162 l 1379 126 l 1373 116 q 1411 52 1383 116 l 1416 52 q 1421 74 1416 64 q 1369 200 1421 126 l 1369 205 l 1352 205 m 1369 42 q 1363 26 1369 26 l 1369 16 l 1369 -11 q 1405 -79 1381 -11 l 1421 -90 q 1426 -68 1421 -78 q 1421 -53 1421 -58 l 1426 -53 q 1373 42 1412 -14 l 1369 42 m 699 -47 l 699 -53 q 735 -127 713 -102 q 699 -47 714 -47 m 767 -47 l 767 -53 l 778 -95 q 772 -100 772 -95 q 793 -148 782 -100 l 809 -148 l 809 -142 l 772 -47 l 767 -47 m 809 -53 l 809 -58 l 851 -159 q 867 -148 867 -153 q 814 -53 827 -53 l 809 -53 m 646 -74 q 640 -95 646 -86 q 677 -201 646 -145 l 688 -201 l 688 -190 q 651 -74 688 -179 l 646 -74 m 1379 -106 l 1379 -127 q 1384 -132 1379 -132 l 1379 -142 q 1432 -269 1379 -191 l 1432 -275 l 1437 -275 l 1437 -264 q 1379 -106 1437 -140 m 50 -111 l 60 -111 l 71 -116 l 66 -142 l 66 -153 q 192 -374 66 -251 q 408 -538 353 -528 q 450 -543 446 -543 q 456 -538 450 -538 l 461 -549 l 461 -559 q 425 -570 451 -559 q 92 -317 317 -570 q 34 -163 34 -229 q 39 -148 39 -153 l 34 -148 q 50 -111 50 -121 m 619 -163 q 609 -201 619 -201 q 661 -296 629 -262 l 667 -248 q 619 -163 629 -163 m 361 -206 q 398 -322 377 -229 l 429 -338 l 429 -332 q 361 -206 385 -206 m 313 -211 l 313 -216 q 351 -290 313 -290 q 313 -211 329 -212 m 1348 -222 l 1348 -227 q 1405 -370 1348 -237 l 1416 -370 l 1416 -364 q 1352 -222 1395 -304 l 1348 -222 m 1274 -237 l 1274 -243 l 1348 -396 l 1352 -396 l 1352 -385 q 1278 -237 1317 -285 l 1274 -237 m 1210 -243 q 1284 -412 1222 -289 l 1289 -412 l 1289 -406 q 1215 -243 1230 -253 l 1210 -243 m 593 -254 q 583 -301 588 -290 q 635 -401 609 -323 l 640 -401 q 651 -343 646 -390 q 598 -254 598 -262 l 593 -254 m 1173 -280 l 1173 -301 q 1242 -427 1209 -427 l 1247 -427 q 1173 -280 1247 -394 m 1099 -306 l 1099 -328 q 1168 -465 1139 -441 q 1173 -459 1168 -459 q 1110 -306 1158 -401 l 1099 -306 m 1036 -311 q 1031 -317 1036 -317 q 1094 -438 1031 -340 q 1115 -475 1101 -475 q 1126 -465 1126 -475 q 1084 -391 1099 -435 q 1036 -311 1056 -318 m 467 -317 l 467 -322 q 488 -359 479 -359 q 467 -317 477 -317 m 530 -328 l 530 -332 q 535 -349 535 -342 l 530 -359 q 556 -401 530 -385 l 562 -401 l 562 -396 q 530 -328 562 -354 m 999 -385 q 1036 -454 1025 -454 l 1036 -448 q 999 -385 1021 -406 m 762 -417 q 778 -486 778 -443 q 572 -644 778 -565 q 530 -649 543 -649 q 488 -607 488 -638 l 509 -607 l 541 -612 q 751 -480 692 -567 q 756 -465 751 -475 q 751 -444 751 -455 q 756 -427 756 -433 q 751 -422 751 -427 l 762 -417 m 1348 -517 l 1352 -528 q 1110 -649 1313 -571 q 957 -686 1003 -686 q 941 -665 946 -665 q 972 -638 941 -646 l 983 -644 q 1305 -528 1120 -607 q 1348 -517 1328 -528 m 1369 -581 l 1379 -586 l 1384 -586 l 1395 -581 q 1400 -596 1395 -586 q 1141 -702 1251 -702 q 1131 -691 1131 -702 l 1131 -686 q 1162 -659 1131 -680 l 1173 -665 l 1179 -665 l 1358 -591 q 1363 -596 1358 -596 q 1369 -581 1369 -586 m 298 -602 q 408 -670 339 -654 q 414 -675 408 -675 l 414 -670 q 535 -691 463 -691 l 556 -691 q 762 -633 634 -691 l 762 -628 q 772 -644 772 -628 q 604 -728 772 -688 l 535 -728 q 530 -733 530 -728 l 519 -728 l 503 -728 q 298 -649 386 -728 q 287 -607 287 -615 l 298 -602 z "},"B":{"ha":1531,"x_min":34,"x_max":1470,"o":"m 860 1814 l 865 1814 q 1177 1592 983 1792 l 1177 1588 q 1171 1571 1171 1577 q 966 1725 1140 1571 q 924 1761 946 1725 q 850 1803 850 1797 q 860 1814 851 1814 m 171 1835 l 176 1825 l 176 1820 q 60 1662 60 1708 q 50 1651 60 1651 q 34 1683 34 1656 q 144 1825 34 1738 q 171 1835 154 1825 m 248 1767 l 269 1752 q 210 1725 269 1737 q 52 1577 136 1683 q 42 1593 42 1577 q 205 1762 42 1660 q 248 1767 234 1767 m 940 1672 l 945 1672 q 1193 1440 1065 1632 q 1288 1245 1288 1308 q 1219 1145 1288 1145 l 1214 1156 q 1246 1208 1246 1187 l 1246 1219 q 1050 1556 1246 1322 q 987 1615 1044 1556 q 940 1672 940 1649 m 501 1630 q 570 1619 513 1624 q 591 1624 572 1619 q 791 1592 791 1607 l 902 1556 q 907 1561 902 1561 q 987 1497 911 1537 q 1114 1318 1089 1400 q 1145 1202 1137 1209 q 1092 1002 1129 1054 q 1230 944 1166 989 q 1414 749 1352 894 q 1456 570 1440 677 l 1451 570 l 1461 511 q 1456 496 1456 501 q 1461 479 1456 490 q 1324 126 1428 298 q 1230 16 1306 115 q 860 -153 1086 -104 q 833 -159 842 -153 l 833 -153 q 776 -169 776 -165 q 628 -142 653 -153 l 628 -148 q 507 -116 541 -138 q 501 -121 501 -116 q 486 -111 486 -116 l 475 -116 l 470 -116 q 391 -79 470 -102 q 227 42 319 -18 l 227 63 q 174 279 201 212 l 174 306 q 180 311 174 311 q 138 574 149 425 l 132 574 l 138 585 l 138 617 q 132 622 138 622 l 138 633 l 138 638 q 132 643 138 643 q 138 648 132 648 q 111 812 127 746 l 117 823 l 64 1197 l 64 1202 l 69 1202 q 58 1276 58 1225 l 64 1297 q 37 1440 43 1370 q 121 1519 71 1519 q 148 1540 121 1522 l 148 1535 q 216 1577 201 1558 l 227 1571 q 501 1630 420 1630 m 454 1561 l 444 1567 l 417 1561 l 417 1567 q 164 1482 205 1515 q 127 1461 153 1482 q 121 1466 127 1466 l 121 1455 q 206 1408 121 1438 l 212 1408 l 222 1413 l 222 1408 q 328 1466 298 1466 l 438 1514 l 438 1508 q 454 1519 454 1514 q 470 1514 464 1514 q 612 1556 506 1535 q 617 1550 612 1550 l 617 1556 l 628 1550 l 633 1550 l 633 1561 q 617 1567 617 1561 q 612 1561 612 1567 l 507 1571 q 454 1561 454 1567 m 675 1503 q 660 1508 665 1508 q 623 1497 639 1497 l 623 1503 q 596 1493 606 1493 l 596 1497 q 422 1445 488 1472 l 422 1450 q 275 1377 294 1404 l 233 1350 q 296 1023 269 1202 q 307 970 301 1023 l 301 970 q 328 743 317 947 q 343 665 331 743 l 343 633 q 338 612 343 621 q 359 527 359 545 l 354 527 l 364 469 l 359 469 l 380 316 q 375 311 375 316 q 380 306 380 311 l 375 306 q 391 232 380 293 l 385 232 q 422 52 406 170 q 465 -37 437 3 q 559 -74 465 -53 q 565 -85 559 -85 l 575 -79 q 765 -111 637 -100 l 765 -106 l 776 -111 q 1092 -11 859 -111 q 1145 21 1093 1 q 1203 74 1145 29 q 1287 174 1206 81 q 1308 211 1287 184 q 1409 485 1409 409 l 1403 496 q 1409 506 1403 506 q 1340 785 1392 701 q 1287 854 1331 789 l 1213 897 q 1029 939 1150 939 q 1008 949 1029 949 q 1061 1055 1025 998 q 1082 1134 1082 1113 l 1076 1134 q 1087 1155 1080 1155 l 1082 1165 q 1087 1171 1082 1171 q 1071 1244 1082 1236 q 1076 1250 1071 1250 q 997 1408 1053 1350 q 966 1440 989 1408 q 902 1482 908 1482 q 797 1514 849 1502 q 791 1508 791 1514 l 765 1514 l 728 1514 q 675 1503 718 1514 m 106 1392 l 106 1387 q 127 1134 119 1134 l 121 1134 q 153 970 144 994 l 148 970 q 191 654 164 902 q 185 612 185 616 q 212 458 201 458 q 307 416 297 416 l 311 416 q 301 527 311 500 l 307 527 q 286 696 296 559 l 280 696 q 286 701 280 701 q 264 870 280 769 q 269 876 264 876 q 180 1360 221 1263 q 106 1392 111 1392 m 744 1250 q 865 1144 836 1250 l 860 1134 l 860 1102 q 718 960 860 1022 q 707 954 718 954 l 707 960 q 691 997 699 997 l 696 1007 q 660 1176 696 1099 l 660 1187 q 744 1250 660 1234 m 734 1165 q 728 1149 734 1160 l 760 1128 l 802 1092 l 802 1107 q 734 1165 780 1149 m 1211 1117 q 1216 1112 1216 1117 l 1245 1117 q 1384 1049 1384 1089 q 1370 1040 1370 1044 q 1221 1093 1297 1078 l 1202 1088 l 1197 1098 l 1197 1102 q 1211 1117 1197 1109 m 739 1102 l 739 1086 q 749 1039 739 1073 q 781 1060 781 1050 q 739 1102 781 1067 m 1196 1070 l 1200 1070 q 1205 1065 1205 1070 l 1215 1070 q 1442 926 1303 1059 l 1470 873 q 1446 863 1462 873 q 1374 941 1446 882 q 1225 1042 1307 1012 l 1225 1046 l 1196 1046 q 1181 1061 1189 1046 l 1196 1070 m 955 606 q 1097 448 1097 585 q 1023 295 1089 373 q 854 190 914 202 q 833 184 854 184 l 812 184 l 807 221 l 807 227 l 812 237 l 807 237 l 812 248 q 791 437 812 302 q 770 549 791 479 q 850 585 773 566 q 955 606 850 603 m 829 517 q 839 454 839 470 l 844 454 q 892 532 865 454 q 881 538 881 532 q 829 517 829 525 m 934 464 q 1013 380 949 436 l 1013 369 q 1029 395 1025 369 l 949 475 l 945 475 q 934 464 934 473 m 850 369 q 876 248 861 248 q 960 311 942 277 q 987 332 976 311 q 913 422 987 340 l 913 427 l 907 427 q 850 369 902 427 m 212 406 l 212 401 q 248 264 231 264 l 333 211 l 338 211 q 311 353 322 353 l 212 406 m 243 221 l 243 216 q 311 116 252 116 q 359 95 332 95 q 317 174 359 164 q 311 169 317 169 q 290 190 311 186 q 243 221 262 221 m 92 179 l 102 179 q 86 47 86 123 q 144 -75 86 -9 q 319 -307 144 -104 q 340 -328 319 -314 q 393 -386 371 -349 q 461 -438 452 -438 l 461 -449 l 450 -449 q 345 -386 424 -428 q 102 -90 141 -187 q 71 -11 83 -73 q 65 -6 65 -11 l 65 31 l 55 31 l 60 52 q 55 68 60 58 q 92 179 55 138 m 264 100 l 264 84 q 380 5 376 5 l 380 10 q 264 100 347 64 m 233 -94 q 322 -141 300 -141 q 444 -199 379 -184 q 749 -305 690 -305 l 749 -321 l 696 -326 q 286 -168 552 -315 q 233 -94 233 -125 m 370 -237 l 375 -237 q 433 -275 419 -275 q 644 -370 433 -302 q 770 -385 718 -385 l 829 -385 q 833 -380 833 -385 q 850 -385 844 -385 l 850 -396 q 781 -417 804 -417 l 728 -417 q 438 -338 618 -417 q 370 -280 370 -291 l 370 -237 z "},"C":{"ha":1230,"x_min":34,"x_max":1169,"o":"m 412 1685 q 438 1670 438 1678 q 328 1543 348 1602 q 142 1084 240 1403 l 148 1084 q 106 905 138 1067 l 100 905 q 106 900 100 900 l 90 836 l 90 821 l 79 821 l 79 847 q 74 889 79 869 q 185 1343 74 1025 q 412 1685 314 1685 m 699 1571 q 731 1561 731 1568 l 742 1567 q 937 1493 865 1540 q 1053 1355 1023 1432 q 1105 1092 1093 1355 q 1000 665 1105 1034 l 939 519 l 879 517 l 768 506 q 747 511 759 511 q 731 506 736 506 l 731 511 l 721 506 l 705 506 q 652 559 670 506 l 642 559 l 631 469 q 742 454 638 464 l 742 458 l 752 454 l 768 454 q 773 458 773 454 l 784 454 l 800 454 q 805 458 805 454 l 816 454 l 847 458 q 937 332 881 420 q 995 211 995 292 q 942 -5 995 118 q 947 -26 942 -18 q 900 -159 900 -141 q 858 -237 887 -175 q 773 -353 836 -290 q 636 -427 690 -403 l 604 -433 q 494 -406 494 -420 l 484 -412 l 478 -412 q 220 -211 290 -256 q 182 -169 220 -198 q 104 -16 149 -120 q 66 253 85 -16 q 77 369 77 313 q 72 385 77 374 q 77 406 77 394 l 77 464 q 72 469 77 469 l 83 506 l 77 506 l 114 760 l 109 760 q 151 912 132 878 l 146 912 l 256 1208 q 288 1292 270 1211 q 325 1350 303 1297 l 330 1350 l 325 1360 l 325 1366 q 389 1434 348 1366 q 415 1476 399 1434 q 441 1508 431 1476 l 452 1503 q 600 1561 531 1545 l 600 1556 q 636 1567 621 1567 l 636 1561 q 699 1571 645 1565 m 647 1503 l 647 1508 q 583 1493 598 1493 l 583 1497 q 488 1445 488 1468 q 330 1239 401 1375 q 172 796 209 935 q 146 648 163 766 l 151 638 q 140 606 140 621 l 140 570 l 146 559 l 140 559 q 146 553 140 553 q 130 390 130 458 l 130 332 q 125 311 130 320 q 130 306 125 306 l 125 279 l 125 269 l 130 258 l 125 258 q 130 253 125 253 l 125 232 q 146 74 136 74 q 140 68 146 68 q 246 -153 140 -4 q 283 -185 258 -153 q 393 -222 336 -218 q 552 -148 487 -222 q 726 121 692 -9 q 789 353 735 121 q 784 374 784 362 l 784 390 q 768 395 779 390 l 768 390 q 763 395 763 390 q 721 390 734 390 q 673 401 686 401 l 615 401 q 557 248 595 389 q 446 163 495 163 q 389 221 446 169 l 389 227 l 393 227 q 383 311 383 250 l 383 369 q 436 717 404 564 q 478 880 478 844 q 541 1023 517 987 q 583 1044 583 1032 l 583 1049 l 626 1049 q 663 1023 663 1034 l 668 1023 q 673 1028 668 1028 q 694 981 694 1004 q 689 965 689 970 l 694 965 q 642 728 663 790 l 642 717 q 657 712 657 717 q 684 722 675 722 l 684 717 l 694 722 l 726 722 q 763 733 763 722 l 773 728 q 900 1065 822 728 q 905 1102 900 1081 l 900 1102 l 921 1208 l 916 1208 l 921 1218 q 916 1223 921 1223 l 921 1250 l 921 1286 l 916 1297 l 921 1297 q 858 1445 899 1400 q 789 1487 850 1468 q 694 1514 783 1495 l 678 1514 q 647 1503 664 1514 m 138 1569 q 159 1544 152 1567 q 79 1133 111 1404 l 84 1133 q 64 1023 73 1056 l 68 1013 l 68 968 q 59 903 68 926 q 64 884 64 895 l 59 859 q 68 848 68 857 q 54 838 54 848 l 59 838 q 64 844 59 844 q 68 833 64 833 l 64 823 l 64 808 q 68 804 64 804 l 64 793 l 64 743 l 59 743 q 34 898 39 842 l 39 898 l 34 909 l 34 928 l 39 954 l 34 954 l 39 963 l 39 968 q 34 973 39 973 l 39 983 l 39 1048 q 68 1308 49 1242 q 64 1314 68 1314 q 138 1569 104 1569 m 947 1408 l 947 1398 q 989 1303 973 1321 q 968 1208 979 1291 l 974 1197 l 958 1097 q 1031 997 958 1066 q 1053 1107 1053 1085 q 984 1371 1053 1250 q 953 1402 984 1381 l 953 1408 l 947 1408 m 947 1018 q 921 918 921 930 l 989 844 q 995 865 989 856 l 989 865 q 1010 933 1010 922 q 953 1018 1010 958 l 947 1018 m 557 928 l 547 912 l 547 891 q 610 844 555 891 q 615 849 615 844 l 621 886 q 557 928 561 928 m 905 870 q 895 838 905 850 l 895 833 q 947 733 895 792 l 958 728 q 974 791 974 778 l 974 796 q 905 870 913 869 m 526 849 l 526 844 q 520 791 520 798 q 541 764 532 791 q 568 738 561 738 q 573 728 573 738 l 578 728 q 600 791 594 764 l 531 849 l 526 849 m 863 770 l 852 722 q 916 627 893 640 q 942 686 942 651 q 863 770 936 686 m 499 733 q 494 712 499 721 l 499 712 q 484 659 484 670 q 578 570 555 584 l 589 570 l 589 606 q 600 617 591 617 l 557 686 q 505 733 557 690 l 499 733 m 694 675 l 694 669 q 763 564 694 640 l 773 564 l 773 570 q 694 675 764 602 m 758 675 l 758 669 q 773 643 773 652 l 784 643 q 758 675 777 665 m 816 675 l 816 665 l 863 601 l 863 606 q 816 675 842 650 m 794 622 q 842 564 808 592 l 842 574 q 800 622 836 574 l 794 622 m 463 532 q 520 454 480 488 l 526 454 q 583 496 526 464 l 583 506 q 478 596 568 506 q 463 532 463 596 m 1080 487 q 1101 418 1095 487 l 1096 418 q 1107 339 1101 413 q 1059 -67 1107 237 q 996 -193 1035 -81 l 990 -193 l 990 -178 q 1043 102 1027 -62 q 1048 107 1048 102 l 1043 107 l 1080 339 l 1075 339 l 1080 350 l 1075 387 q 1085 397 1085 387 l 1085 403 q 1080 408 1085 408 l 1085 418 q 1080 434 1080 429 l 1085 434 l 1080 445 l 1085 455 q 1080 471 1080 465 l 1085 471 l 1080 481 l 1080 487 m 452 458 q 441 390 452 437 l 446 390 l 441 380 l 441 374 q 505 321 458 350 q 520 401 520 369 q 452 458 512 401 m 852 353 q 784 100 805 197 q 779 95 779 100 q 784 90 784 95 q 742 0 742 37 q 858 -95 846 -95 q 926 121 878 -69 l 921 121 q 937 200 932 144 q 932 205 932 200 l 937 205 l 932 216 l 932 237 q 937 242 932 242 l 932 253 l 932 279 q 852 353 918 279 m 441 316 l 441 285 q 467 237 462 237 q 494 279 485 250 l 441 316 m 1148 237 l 1158 237 l 1169 137 q 1164 132 1164 137 l 1169 132 q 979 -296 1147 -33 q 847 -422 886 -422 l 821 -417 l 821 -406 q 926 -296 914 -320 q 1053 -95 962 -296 q 1116 52 1071 -95 q 1137 111 1137 106 l 1132 121 q 1143 163 1143 140 l 1143 211 l 1148 237 m 710 -37 q 684 -95 684 -83 q 747 -153 684 -107 q 810 -206 747 -170 l 831 -163 l 831 -153 q 773 -90 831 -106 q 715 -37 773 -85 l 710 -37 m 45 -179 q 103 -258 55 -179 q 130 -300 130 -280 l 140 -295 q 351 -464 302 -449 q 382 -496 382 -486 q 388 -490 388 -496 q 494 -543 481 -543 q 477 -559 494 -551 q 472 -553 477 -553 l 472 -559 q 272 -458 399 -546 q 35 -211 35 -274 l 35 -190 q 45 -179 36 -179 m 626 -153 l 626 -159 q 715 -233 659 -193 q 731 -254 731 -245 l 758 -254 l 758 -248 q 652 -138 652 -153 l 642 -138 q 626 -153 634 -138 m 557 -233 q 621 -285 578 -262 l 626 -285 q 557 -233 580 -233 m 636 -233 l 636 -237 q 673 -269 654 -269 q 636 -233 673 -262 m 357 -254 l 357 -258 q 415 -301 358 -267 q 457 -338 415 -310 q 568 -374 457 -351 l 568 -370 q 399 -264 443 -264 q 357 -254 376 -264 m 536 -275 l 536 -280 q 626 -359 564 -313 l 636 -343 q 536 -275 540 -275 m 65 -380 l 76 -380 q 297 -502 172 -454 l 414 -555 q 561 -587 554 -587 l 561 -597 q 530 -613 561 -604 l 519 -608 l 503 -608 q 134 -481 389 -608 l 50 -423 l 44 -397 l 65 -380 z "},"D":{"ha":1607,"x_min":34,"x_max":1546,"o":"m 1077 1731 l 1087 1731 q 1362 1567 1211 1735 q 1543 1239 1512 1363 q 1531 1148 1546 1204 q 1519 1158 1520 1148 l 1517 1179 q 1383 1466 1508 1264 q 1259 1605 1371 1498 q 1069 1704 1132 1706 l 1038 1698 l 1017 1697 q 1046 1725 1019 1714 l 1046 1720 q 1077 1731 1063 1731 m 369 1707 q 389 1702 378 1702 l 390 1687 q 231 1543 267 1586 q 188 1514 203 1514 q 165 1490 189 1496 l 164 1500 q 312 1669 182 1556 q 369 1707 334 1690 m 659 1729 q 678 1719 671 1719 l 680 1685 q 453 1527 640 1685 q 448 1532 452 1531 q 402 1479 449 1512 q 230 1295 303 1385 q 202 1272 217 1295 q 170 1243 186 1251 l 170 1238 l 155 1238 l 155 1248 q 181 1296 167 1248 q 241 1364 188 1297 q 441 1571 240 1392 q 446 1567 441 1567 q 498 1615 446 1584 q 653 1729 552 1676 l 659 1729 m 884 1584 q 889 1579 889 1584 l 916 1584 l 921 1583 l 958 1577 l 958 1582 q 1048 1565 994 1573 l 1047 1571 q 1182 1516 1115 1546 q 1209 1494 1194 1515 q 1319 1397 1284 1451 q 1476 1109 1447 1255 q 1508 987 1506 1036 l 1509 960 q 1515 955 1510 955 l 1510 945 l 1510 939 l 1517 913 l 1512 913 l 1518 903 l 1520 850 q 1515 844 1520 844 l 1521 833 q 1482 444 1518 559 q 1369 181 1434 313 q 1258 -12 1329 84 q 1193 -85 1202 -85 q 1007 -272 1134 -167 q 625 -429 798 -417 l 521 -443 l 510 -437 q 505 -443 505 -437 q 458 -431 458 -436 l 447 -436 l 431 -436 l 420 -430 l 416 -441 q 368 -429 379 -435 q 352 -435 357 -435 l 352 -429 l 341 -434 l 315 -429 l 315 -434 q 260 -385 262 -420 l 260 -375 q 265 -370 260 -370 l 252 -338 q 261 -290 262 -313 q 256 -285 256 -290 l 261 -285 l 255 -275 l 260 -264 q 254 -259 260 -259 q 259 -243 254 -253 q 242 -132 243 -157 l 246 -105 q 233 -47 238 -47 l 237 -37 l 236 1 q 230 5 235 5 q 235 11 230 11 l 227 74 l 223 154 q 226 201 222 173 l 220 212 q 225 217 220 217 q 219 233 224 223 q 220 317 222 287 l 225 328 l 220 328 q 224 334 219 334 l 218 370 l 212 481 q 206 487 212 487 q 212 492 206 492 q 197 555 202 542 l 203 555 l 197 566 q 202 572 197 572 q 196 587 196 582 q 201 603 201 597 l 195 603 q 200 608 195 608 l 186 693 q 189 736 185 707 q 177 878 180 809 l 176 883 l 170 909 l 175 909 q 170 915 175 915 q 174 1031 178 960 l 172 1084 q 166 1090 171 1090 q 406 1339 167 1101 q 477 1396 406 1353 q 686 1529 485 1430 l 687 1524 l 753 1560 l 753 1555 l 806 1575 q 821 1569 816 1569 q 827 1575 821 1575 l 827 1569 q 884 1584 849 1579 m 442 1664 q 463 1649 462 1657 l 463 1630 q 315 1517 420 1631 q 184 1397 200 1398 l 180 1397 l 179 1401 q 183 1417 184 1411 q 178 1421 178 1417 q 395 1646 301 1586 l 414 1660 l 423 1655 l 442 1664 m 819 1506 q 813 1511 819 1511 l 814 1506 l 803 1511 l 715 1476 q 705 1466 716 1465 q 700 1471 705 1471 q 592 1410 699 1463 q 490 1332 570 1382 q 410 1255 452 1284 q 403 1191 410 1191 q 408 1185 403 1185 l 404 1164 l 412 1117 q 407 1107 412 1107 l 415 1053 l 418 985 q 431 837 422 917 q 428 789 427 817 l 435 768 l 430 758 q 436 736 435 748 l 437 731 q 431 726 437 726 q 437 720 431 720 q 433 688 433 692 q 443 604 435 658 q 440 546 439 557 q 450 461 448 492 l 444 462 l 450 450 l 454 377 q 460 372 454 372 l 455 361 l 455 355 q 460 351 455 351 l 456 340 l 456 334 q 463 319 457 319 q 458 303 463 313 q 477 123 471 154 l 473 113 q 479 102 473 102 q 477 22 475 49 l 481 -73 q 488 -77 482 -77 l 483 -88 q 518 -173 487 -173 l 555 -174 l 581 -170 l 581 -174 q 665 -160 650 -165 l 665 -165 l 675 -160 q 681 -166 680 -161 q 712 -155 698 -155 l 712 -161 q 951 -96 877 -135 q 1084 -20 1017 -77 q 1206 79 1108 -13 q 1363 298 1320 231 q 1453 608 1457 517 q 1466 771 1461 643 l 1460 771 l 1466 782 l 1459 913 q 1392 1200 1454 1012 q 1318 1318 1371 1246 q 1088 1496 1227 1441 q 934 1525 980 1525 l 897 1526 q 824 1511 887 1515 q 819 1506 825 1506 m 215 1068 l 221 1041 l 216 1030 q 222 1009 222 1021 l 222 1004 q 218 998 223 998 q 230 967 224 967 l 225 956 l 225 951 q 231 946 225 946 l 226 935 l 228 893 q 234 888 229 888 l 229 878 l 235 851 l 231 840 l 238 808 l 233 808 l 238 798 l 242 724 q 237 718 242 718 l 243 708 l 243 703 q 238 697 243 697 q 260 565 243 684 q 256 545 256 556 q 262 538 262 544 l 256 539 q 262 533 257 534 q 275 391 273 435 l 275 375 q 281 354 276 363 q 277 242 273 326 l 282 126 q 277 121 283 121 l 283 111 l 283 105 q 278 100 283 100 l 284 90 l 285 73 q 280 68 286 68 q 286 52 286 58 q 316 -238 294 -106 q 311 -254 311 -248 l 317 -264 q 309 -312 314 -312 q 315 -329 315 -323 q 390 -245 325 -329 q 435 -198 402 -245 q 440 -193 441 -199 q 422 -50 431 -50 l 427 -24 l 424 34 q 428 55 423 46 q 422 76 422 64 q 425 108 420 100 q 404 325 410 191 l 400 394 q 394 415 400 406 q 398 436 399 425 q 392 452 397 452 l 396 478 l 395 505 q 389 510 395 510 q 395 515 389 515 q 389 526 394 526 l 391 589 l 389 637 l 380 690 l 386 690 q 380 695 385 695 q 385 711 380 701 l 378 748 q 382 764 382 758 q 376 769 376 764 l 382 769 l 376 780 l 374 827 l 378 838 l 373 838 l 378 848 l 377 859 q 372 864 377 864 q 377 869 372 869 l 369 922 l 365 1002 q 353 1155 362 1061 q 361 1186 361 1177 q 355 1208 355 1196 l 215 1068 m 903 977 q 909 971 908 977 l 935 976 l 966 975 l 977 970 l 977 975 q 1100 840 1095 924 l 1105 840 q 1100 836 1105 836 q 1109 745 1107 773 l 1109 741 q 1098 656 1111 712 l 1104 646 q 1008 457 1054 503 q 838 396 957 416 l 821 397 q 812 492 819 442 l 815 524 l 810 524 q 814 529 810 529 l 801 598 q 806 604 806 598 l 801 604 l 806 614 l 802 703 l 795 714 q 800 720 801 714 q 795 725 795 720 l 800 725 l 794 735 l 790 825 q 795 830 789 830 q 781 889 783 852 l 785 926 q 779 931 779 926 q 903 977 872 977 m 927 923 q 843 824 928 907 l 844 803 q 854 793 846 793 q 924 870 854 802 q 954 907 924 876 q 927 923 954 916 m 917 796 l 918 786 q 972 764 946 764 q 1042 831 1041 823 l 1042 837 q 1018 895 1040 859 l 1002 895 q 917 796 976 880 m 989 726 q 1016 615 1008 673 q 1012 594 1011 606 l 1013 583 l 1018 583 q 1052 742 1055 667 l 1050 773 q 989 726 1001 726 m 851 750 l 847 729 q 852 724 852 729 l 848 724 l 853 713 l 857 644 q 862 639 857 639 l 857 629 l 857 623 q 863 607 858 607 l 859 581 l 861 538 l 867 528 q 863 523 862 528 l 868 523 l 863 513 l 864 491 l 871 465 q 947 516 949 480 q 959 595 955 516 l 953 606 q 958 611 953 611 q 862 749 953 711 l 851 750 m 850 -290 l 861 -290 l 948 -245 q 1034 -167 1008 -207 q 1190 -16 1046 -167 l 1190 -11 q 1088 -88 1168 -32 q 980 -144 1082 -104 q 905 -239 924 -195 q 850 -290 883 -238 m 1397 -62 l 1397 -73 q 1370 -157 1386 -130 l 1370 -161 l 1360 -157 l 1355 -178 q 1361 -183 1360 -178 q 1277 -298 1356 -183 q 1242 -334 1267 -298 q 1202 -370 1232 -334 q 880 -570 954 -572 q 815 -528 844 -570 l 814 -517 l 862 -523 q 1097 -390 936 -513 q 1253 -239 1238 -266 q 1337 -130 1318 -189 q 1397 -62 1342 -130 m 814 -199 l 803 -195 l 798 -195 l 639 -371 l 649 -371 q 746 -315 722 -315 q 857 -200 848 -235 q 876 -185 877 -193 l 866 -184 q 814 -199 814 -195 m 678 -214 q 557 -322 679 -223 q 537 -348 558 -349 l 538 -369 l 544 -369 q 660 -260 602 -348 q 654 -255 654 -260 q 688 -219 661 -255 l 688 -214 l 678 -214 m 428 -361 l 433 -362 q 574 -233 468 -363 l 564 -233 q 428 -361 450 -331 m 177 -282 l 178 -287 q 107 -359 178 -290 l 85 -343 q 177 -282 84 -313 m 1373 -326 l 1373 -331 q 1218 -492 1376 -380 q 1188 -517 1199 -497 q 1084 -553 1126 -554 q 1047 -542 1063 -542 q 1139 -496 1046 -530 q 1328 -362 1271 -416 q 1363 -336 1327 -353 q 1373 -326 1364 -326 m 176 -361 q 192 -366 186 -366 l 193 -372 q 58 -528 163 -444 l 53 -528 l 37 -517 q 101 -439 36 -505 q 161 -387 147 -387 l 176 -361 m 191 -461 l 197 -462 q 208 -472 208 -463 l 208 -488 q 95 -644 199 -488 l 61 -703 l 46 -702 q 35 -691 35 -702 l 34 -681 q 172 -477 50 -621 l 191 -461 m 252 -531 l 258 -531 q 195 -652 235 -652 q 185 -641 195 -641 q 252 -531 189 -616 z "},"E":{"ha":1632,"x_min":34,"x_max":1571,"o":"m 1101 1382 q 1455 1319 1242 1382 q 1450 1298 1450 1310 q 1133 1345 1417 1298 l 1122 1340 l 1065 1350 q 1049 1345 1055 1345 l 1049 1350 q 1044 1345 1044 1350 q 1002 1350 1015 1350 l 991 1345 l 980 1350 q 959 1345 971 1345 l 954 1356 l 954 1361 q 1101 1382 991 1382 m 1160 1293 l 1170 1293 q 1192 1287 1182 1293 q 1196 1293 1196 1287 q 1471 1208 1373 1272 q 1550 1082 1550 1144 q 1529 1034 1549 1058 q 1513 1040 1518 1040 l 1513 1076 q 1329 1224 1513 1156 q 1249 1251 1249 1245 l 1244 1251 l 1234 1245 q 1149 1261 1149 1257 l 1139 1255 l 1122 1266 l 1122 1261 q 1101 1282 1107 1265 q 1160 1293 1122 1293 m 646 1171 q 667 1165 655 1165 l 778 1165 l 788 1160 l 788 1165 q 867 1149 804 1160 l 867 1155 l 878 1149 l 894 1149 q 899 1155 899 1149 q 904 1149 904 1155 l 925 1155 q 989 1144 939 1155 q 994 1149 994 1144 q 1084 1139 1067 1143 l 1136 1149 q 1205 1139 1160 1139 l 1226 1139 q 1231 1134 1231 1139 q 1236 1139 1236 1134 l 1263 1134 l 1274 1134 q 1289 1139 1289 1134 l 1316 1134 l 1352 1134 q 1358 1139 1358 1134 l 1369 1134 l 1405 1134 q 1442 1039 1440 1082 l 1516 897 q 1521 880 1521 897 q 1500 812 1500 836 l 1506 812 l 1479 686 l 1485 686 q 1442 580 1448 580 q 1416 553 1416 566 q 1384 564 1407 553 l 1352 559 q 1348 564 1348 559 l 1337 559 l 1321 559 q 1300 564 1309 559 q 1247 553 1287 559 q 1226 564 1226 557 l 1162 553 q 1158 559 1162 559 l 1158 553 q 1205 506 1175 553 q 1326 348 1326 375 q 1310 190 1316 348 l 1321 121 l 1316 121 q 1458 -43 1379 0 q 1447 -174 1458 -83 l 1453 -174 l 1442 -211 q 1447 -216 1447 -211 l 1442 -216 l 1447 -227 l 1442 -311 q 1447 -364 1447 -357 q 1442 -370 1447 -370 q 1453 -512 1453 -420 q 1432 -559 1445 -559 l 1426 -559 q 1373 -543 1419 -552 l 1363 -549 l 1352 -549 q 1226 -533 1339 -533 q 1221 -528 1226 -528 l 1221 -533 q 1084 -517 1213 -524 l 1084 -522 q 1041 -512 1064 -512 q 1036 -517 1036 -512 l 1025 -512 l 1010 -512 q 846 -491 910 -512 l 846 -496 q 772 -480 811 -480 l 751 -480 q 730 -486 739 -480 q 414 -454 672 -465 q 208 -280 374 -414 l 192 -248 q 256 311 229 161 q 271 411 256 380 l 266 411 l 271 422 l 271 479 q 292 580 271 505 q 165 717 283 581 q 218 1107 187 803 l 213 1155 l 277 1165 q 292 1160 282 1165 q 551 1165 456 1165 l 625 1165 q 646 1171 637 1165 m 361 1113 l 308 1113 q 250 991 250 1113 q 218 760 229 810 q 250 738 224 738 l 277 738 q 282 743 282 738 q 287 738 287 743 q 330 743 316 743 q 355 722 353 733 q 340 643 340 663 l 345 596 q 319 485 340 554 q 324 479 319 479 q 303 327 324 444 q 308 321 303 321 q 282 179 294 201 l 287 179 l 266 37 l 271 37 q 266 21 266 26 q 250 -190 266 2 l 245 -190 q 324 -216 245 -216 l 340 -216 q 467 -211 392 -216 q 524 -222 487 -222 l 556 -222 q 562 -216 562 -222 q 672 -233 564 -222 l 683 -227 q 699 -233 693 -233 l 699 -227 q 867 -248 738 -236 q 930 -243 876 -248 q 1110 -254 1041 -254 l 1120 -254 l 1147 -258 l 1147 -254 l 1158 -258 l 1215 -258 q 1231 -243 1223 -258 l 1231 -159 q 1226 -153 1231 -153 l 1231 -142 l 1231 -85 l 1236 -74 l 1231 -74 l 1236 -64 l 1236 -37 q 1247 47 1247 40 l 1242 47 l 1247 58 l 1247 63 q 1126 52 1157 52 l 1088 52 l 1063 47 l 1063 52 l 968 37 q 962 42 962 37 q 883 31 911 31 l 883 37 l 873 31 l 841 31 q 820 68 836 31 l 814 68 l 814 111 q 820 116 814 116 l 814 126 l 814 200 q 820 221 814 212 q 814 242 814 231 q 925 264 825 242 q 946 258 935 258 l 946 264 q 983 253 968 253 q 1063 264 1033 264 l 1099 264 q 1136 300 1136 264 l 1136 401 q 1131 458 1136 422 q 1136 475 1136 469 q 1131 490 1131 485 l 1110 490 l 1084 496 l 1084 490 l 1073 496 l 1067 496 l 1057 490 q 1046 506 1057 499 q 972 490 1035 497 l 930 501 l 930 496 q 899 506 913 506 q 878 496 878 505 q 836 532 846 501 l 841 543 l 836 596 l 841 596 q 825 722 831 637 q 846 770 833 770 l 894 764 q 915 770 905 764 q 1063 760 1038 760 q 1099 764 1083 764 q 1105 760 1099 760 l 1105 764 l 1115 760 l 1236 760 q 1242 764 1242 760 l 1253 760 q 1300 828 1300 760 l 1337 975 l 1331 986 q 1348 1055 1342 1000 q 1321 1086 1348 1081 l 1321 1081 q 1305 1086 1311 1086 q 1147 1097 1209 1086 q 1141 1092 1141 1097 l 1105 1097 l 1088 1097 q 1073 1092 1073 1097 q 936 1107 994 1097 l 936 1102 q 930 1107 930 1102 l 894 1102 l 878 1102 q 825 1113 825 1102 l 814 1107 q 751 1118 778 1118 q 693 1113 729 1118 q 625 1118 667 1118 l 625 1113 l 614 1118 l 588 1118 q 583 1113 583 1118 l 572 1118 l 551 1118 q 545 1113 545 1118 l 535 1118 l 509 1118 q 503 1113 503 1118 l 493 1118 q 472 1113 484 1113 l 472 1118 q 467 1113 467 1118 l 440 1118 l 425 1118 l 414 1113 l 414 1118 l 403 1113 q 387 1118 387 1113 l 361 1113 m 1395 1023 q 1384 949 1384 957 l 1453 849 l 1463 865 q 1416 986 1463 883 q 1395 1023 1416 1023 m 66 897 l 81 897 q 92 886 92 895 q 66 828 66 855 q 203 574 66 683 q 256 538 256 559 l 245 532 l 239 532 q 39 749 114 532 q 34 796 34 768 q 66 897 39 890 m 1369 880 q 1358 838 1369 865 q 1405 749 1367 834 l 1432 728 q 1447 764 1442 728 q 1369 880 1375 880 m 1342 764 l 1342 749 q 1416 643 1367 691 q 1426 686 1426 670 q 1348 764 1411 686 l 1342 764 m 951 717 l 951 707 q 1025 617 1019 617 l 1031 617 l 1031 622 q 968 712 1010 622 q 951 717 962 712 m 1105 712 l 1105 696 q 1141 638 1117 696 l 1152 633 l 1158 633 l 1158 638 q 1105 712 1131 712 m 1173 712 q 1231 622 1173 692 q 1247 612 1231 617 l 1253 622 q 1189 712 1189 686 l 1173 712 m 1247 712 q 1300 627 1247 692 l 1310 622 q 1321 633 1321 622 l 1321 638 q 1263 712 1303 652 l 1247 712 m 250 707 l 250 701 q 277 669 270 669 l 282 669 q 260 707 269 707 l 250 707 m 1036 707 l 1036 686 q 1088 622 1043 686 l 1094 633 l 1094 638 q 1041 707 1046 707 l 1036 707 m 883 643 l 888 606 l 925 606 l 925 612 q 894 643 925 619 l 883 643 m 983 549 l 983 543 l 1010 549 l 1073 549 l 1084 543 l 1084 549 l 1094 543 q 1099 549 1099 543 q 1115 543 1109 543 l 1141 549 l 1141 553 q 1126 559 1126 553 q 1110 553 1116 553 q 1057 564 1096 553 q 983 549 983 560 m 45 564 l 55 564 q 192 464 145 473 q 218 475 210 475 l 224 464 q 187 432 219 444 q 39 543 111 432 q 45 564 45 552 m 1183 448 l 1189 437 l 1183 427 q 1263 321 1192 393 l 1263 327 q 1257 332 1263 332 l 1263 359 l 1263 369 q 1189 448 1256 370 l 1183 448 m 1371 246 q 1571 9 1489 182 l 1550 3 q 1397 188 1430 155 q 1371 246 1377 208 m 1189 332 l 1189 316 q 1257 242 1249 242 l 1263 253 l 1263 258 q 1236 290 1256 258 q 1189 332 1200 332 m 1194 242 l 1194 237 q 1263 158 1213 199 l 1263 184 q 1200 242 1230 224 l 1194 242 m 1057 211 l 1057 205 q 1120 126 1101 140 l 1120 132 l 1057 211 m 1158 174 l 1158 169 q 1231 116 1203 116 q 1158 174 1211 144 m 867 158 q 862 153 867 153 l 867 142 l 867 84 l 873 84 l 909 90 q 915 84 909 84 l 920 95 l 867 158 m 999 158 q 1020 137 999 150 q 1025 142 1020 142 q 1046 121 1027 121 q 999 158 1028 158 m 1300 42 q 1284 -58 1289 -3 q 1316 -95 1306 -58 q 1352 -138 1324 -95 q 1395 -185 1391 -185 l 1400 -185 q 1395 -180 1400 -180 q 1405 -85 1405 -127 l 1305 42 l 1300 42 m 137 -127 l 137 -138 q 142 -164 137 -155 l 137 -195 q 311 -507 151 -326 q 475 -602 418 -589 l 507 -602 q 549 -591 529 -602 q 564 -596 559 -596 q 517 -628 563 -607 l 475 -628 q 222 -480 355 -628 q 90 -195 90 -312 q 137 -127 97 -127 m 1278 -127 l 1278 -163 q 1379 -290 1341 -256 l 1379 -296 l 1384 -296 q 1395 -285 1395 -296 l 1395 -237 q 1284 -127 1290 -127 l 1278 -127 m 1278 -237 l 1274 -290 q 1310 -328 1274 -298 q 1395 -433 1310 -336 l 1400 -433 l 1400 -422 q 1395 -401 1400 -410 q 1400 -380 1400 -392 q 1337 -301 1400 -349 q 1278 -237 1335 -289 m 372 -264 l 372 -275 q 477 -359 379 -275 q 514 -380 484 -359 q 419 -280 514 -374 l 419 -264 l 372 -264 m 498 -275 l 498 -280 q 619 -391 605 -390 l 619 -385 q 583 -349 612 -385 q 498 -275 519 -275 m 583 -275 l 725 -427 l 751 -427 l 625 -280 q 583 -275 595 -275 m 298 -280 l 298 -290 q 372 -349 311 -290 l 377 -349 q 298 -280 361 -311 m 730 -285 q 772 -353 744 -299 q 846 -438 825 -408 l 883 -444 l 788 -338 q 730 -285 764 -285 m 825 -296 q 962 -444 883 -376 l 972 -438 l 972 -459 l 999 -459 l 999 -454 q 930 -380 962 -408 q 857 -301 892 -349 q 836 -296 848 -296 l 825 -296 m 925 -296 l 925 -301 l 989 -364 l 1046 -444 q 1088 -465 1063 -444 l 1099 -465 l 1099 -459 q 962 -317 979 -323 q 951 -296 951 -304 l 925 -296 m 1031 -301 l 1031 -306 q 1179 -459 1168 -459 l 1183 -459 l 1183 -454 q 1063 -301 1144 -409 l 1057 -301 q 1052 -306 1052 -301 l 1041 -301 l 1031 -301 m 1136 -306 l 1136 -332 q 1257 -454 1145 -332 l 1263 -454 q 1200 -359 1233 -418 q 1141 -306 1141 -315 l 1136 -306 m 191 -575 l 196 -575 q 359 -649 227 -575 q 365 -644 365 -649 q 502 -696 486 -696 l 502 -691 l 534 -701 q 549 -696 544 -696 l 549 -701 q 633 -665 633 -689 l 639 -665 l 639 -680 q 534 -728 600 -716 q 286 -654 438 -728 q 191 -575 208 -612 z "},"F":{"ha":1506,"x_min":34,"x_max":1444,"o":"m 1202 1803 l 1212 1782 l 1223 1788 l 1228 1788 q 1297 1756 1249 1769 q 1365 1708 1338 1716 q 1371 1714 1365 1714 q 1434 1666 1371 1704 l 1444 1624 q 1428 1582 1428 1598 l 1428 1540 q 1423 1535 1428 1535 l 1434 1472 q 1418 1260 1423 1472 q 1392 1187 1418 1257 l 1354 1187 q 1312 1176 1332 1187 q 1307 1181 1312 1181 q 1270 1165 1307 1171 q 1255 1171 1260 1171 q 1139 1139 1245 1153 q 932 1076 1003 1105 q 927 1065 932 1065 q 932 1060 927 1060 q 927 1044 932 1055 q 938 986 932 994 q 1091 1049 949 986 q 1207 944 1099 1016 q 1265 912 1221 944 l 1259 902 l 1259 743 l 1265 733 q 1259 728 1259 733 q 1265 722 1265 728 q 1255 712 1255 721 l 1259 659 q 1202 612 1259 648 q 1069 485 1202 596 q 959 359 959 393 q 964 327 959 355 l 959 295 l 970 184 q 964 142 964 164 l 964 105 q 970 84 964 94 q 959 42 959 52 q 964 37 959 37 l 954 -95 q 959 -116 959 -104 l 954 -116 l 959 -127 l 959 -142 q 954 -148 959 -148 q 959 -153 954 -153 l 954 -180 l 954 -269 q 801 -359 941 -269 q 690 -438 782 -359 q 642 -459 686 -438 q 416 -301 547 -428 q 342 342 416 -54 q 305 770 321 518 l 284 902 q 289 907 284 907 q 258 1113 289 915 l 263 1123 l 263 1134 q 237 1282 263 1156 q 241 1286 237 1286 q 231 1360 231 1326 l 231 1392 q 237 1398 231 1398 q 220 1476 220 1423 l 220 1493 l 247 1529 l 258 1524 q 289 1556 289 1540 l 311 1556 q 616 1645 468 1619 q 627 1656 618 1656 l 627 1651 q 991 1756 715 1683 q 996 1751 996 1756 q 1175 1799 1115 1777 q 1202 1803 1182 1803 m 975 1698 l 975 1704 q 790 1645 947 1689 q 685 1619 787 1639 q 585 1588 671 1607 q 558 1577 585 1582 l 558 1582 q 389 1519 435 1545 l 389 1514 l 379 1514 q 374 1519 374 1514 q 315 1487 316 1499 q 384 1440 326 1465 q 453 1408 407 1408 q 716 1493 529 1445 q 854 1529 716 1508 q 959 1561 879 1547 q 1112 1609 959 1575 q 1143 1630 1112 1612 l 1154 1624 q 1249 1651 1192 1630 l 1249 1656 q 1255 1651 1255 1656 l 1329 1661 l 1329 1666 q 1265 1708 1314 1666 q 1186 1746 1192 1746 q 975 1698 1048 1708 m 298 1879 q 330 1841 330 1879 q 303 1831 303 1836 l 292 1836 q 224 1710 268 1836 q 171 1415 171 1499 q 176 1409 171 1409 l 171 1383 l 171 1298 q 165 1277 171 1286 q 208 1103 182 1230 l 197 1098 l 245 956 q 239 903 239 909 l 235 903 q 60 1372 144 1116 l 66 1372 q 39 1493 39 1452 l 45 1493 q 34 1567 39 1500 l 45 1567 q 129 1282 81 1468 l 134 1282 l 134 1324 q 129 1372 134 1343 l 134 1383 q 129 1388 134 1388 q 298 1879 172 1879 m 1191 1577 l 1181 1582 q 1096 1556 1170 1570 q 864 1487 1087 1556 q 716 1445 829 1487 q 621 1413 703 1445 l 621 1419 l 453 1366 l 453 1350 q 479 1118 453 1255 q 474 1113 479 1113 l 522 754 q 564 363 553 414 l 558 363 q 632 -37 574 303 q 664 -163 642 -118 l 653 -169 q 674 -258 664 -232 q 669 -306 669 -287 q 674 -311 669 -311 l 669 -322 q 674 -328 669 -328 l 669 -353 l 669 -374 q 680 -385 671 -385 q 817 -280 795 -280 q 896 -227 831 -280 q 890 -206 896 -215 q 906 -142 900 -181 q 901 -127 906 -137 q 911 221 911 56 l 911 242 q 917 248 911 248 l 911 258 l 911 337 q 901 385 911 351 q 932 427 901 427 q 1107 585 1020 526 q 1186 669 1152 626 l 1207 686 l 1202 712 l 1202 717 q 1207 722 1202 722 q 1202 728 1207 728 q 1212 828 1212 770 l 1212 865 l 1207 865 q 949 749 1016 806 l 932 749 q 885 781 907 749 l 885 844 q 880 849 885 849 q 885 865 885 859 q 875 902 885 902 l 880 912 l 880 923 q 875 928 880 928 l 880 939 q 875 944 880 944 l 880 954 l 880 1081 q 875 1086 880 1086 q 901 1134 879 1117 l 911 1128 l 917 1128 l 927 1134 l 927 1128 q 1307 1234 1300 1234 l 1307 1229 q 1365 1265 1358 1229 q 1360 1271 1365 1271 l 1381 1487 l 1376 1487 l 1381 1497 l 1381 1619 l 1376 1619 q 1191 1577 1295 1619 m 279 1434 l 284 1371 l 284 1355 q 294 1345 286 1345 l 294 1350 q 400 1282 304 1350 l 400 1345 q 294 1440 395 1366 q 279 1434 284 1434 m 294 1292 l 294 1255 q 311 1192 307 1192 q 305 1187 311 1187 q 315 1118 315 1144 l 311 1107 q 347 1039 319 1039 q 437 965 370 1008 l 437 970 q 416 1155 427 1137 l 421 1165 q 294 1292 421 1223 m 932 923 l 932 902 l 938 891 q 932 886 932 891 l 938 886 l 932 876 q 938 870 932 870 q 932 854 932 860 q 949 823 949 833 q 1038 859 958 823 l 1164 907 l 1086 975 q 938 923 1032 975 l 932 923 m 336 970 l 336 944 q 342 939 336 939 l 336 928 l 336 923 q 342 918 336 918 q 336 912 342 912 q 389 749 345 749 l 474 690 l 474 696 q 448 912 469 796 q 453 918 453 912 l 442 923 q 437 918 437 923 q 336 970 432 918 m 363 701 q 358 680 363 680 q 379 585 365 602 l 374 574 l 374 543 q 379 464 374 517 q 410 437 393 464 l 500 369 l 505 369 q 495 469 505 427 l 500 469 q 469 638 484 638 q 374 701 465 638 l 363 701 m 389 385 l 389 380 q 416 227 407 227 l 431 227 q 495 153 441 199 q 547 111 495 133 l 547 142 q 537 184 547 165 l 543 184 q 516 300 520 294 q 389 385 401 385 m 1017 321 l 1022 321 q 1086 211 1047 311 q 1143 63 1100 211 l 1265 -227 l 1259 -227 q 1117 21 1240 -227 q 1022 264 1117 33 q 1012 306 1012 290 q 1017 321 1017 316 m 1107 300 q 1160 205 1141 258 q 1265 84 1228 116 l 1265 74 l 1249 74 q 1096 274 1128 163 q 1091 290 1096 279 l 1107 300 m 427 153 l 427 147 l 442 74 l 442 31 q 522 -43 450 31 q 579 -85 543 -56 l 585 -85 q 547 52 574 52 q 427 153 522 63 m 1001 142 l 1012 142 q 1044 37 1027 142 q 1160 -311 1080 -92 q 1175 -338 1163 -338 q 1228 -459 1228 -446 l 1223 -459 q 1033 -53 1128 -367 q 991 137 991 87 l 1001 142 m 453 -47 l 453 -53 q 469 -116 453 -116 q 537 -180 473 -116 q 606 -216 543 -180 l 606 -206 q 574 -132 606 -146 q 458 -47 555 -132 l 453 -47 m 300 -174 l 321 -174 l 321 -180 l 315 -227 q 553 -480 357 -337 l 627 -507 q 632 -501 632 -507 q 722 -512 674 -512 l 727 -512 q 732 -507 732 -512 l 743 -512 l 801 -512 l 827 -507 q 832 -512 827 -512 q 690 -554 832 -542 l 674 -554 q 379 -391 515 -554 q 279 -222 279 -295 q 300 -174 286 -174 m 463 -185 l 463 -211 q 532 -264 489 -211 q 611 -317 558 -275 l 616 -317 l 616 -280 q 469 -185 498 -209 l 463 -185 m 474 -275 l 474 -290 q 569 -364 483 -290 q 600 -385 600 -364 l 616 -385 l 616 -364 q 505 -296 616 -355 q 479 -275 505 -292 l 474 -275 m 363 -512 l 379 -512 l 389 -517 l 389 -512 l 400 -517 q 406 -512 406 -517 q 685 -575 513 -554 q 690 -570 690 -575 l 716 -575 q 722 -570 722 -575 l 785 -581 q 827 -575 806 -575 l 827 -581 q 706 -617 799 -617 q 395 -549 517 -617 q 363 -522 376 -522 l 363 -512 m 896 -612 l 896 -638 q 774 -670 837 -670 q 669 -659 690 -659 q 680 -649 671 -649 l 727 -649 q 785 -638 733 -649 l 795 -638 q 817 -644 808 -638 q 896 -612 861 -633 z "},"G":{"ha":1667,"x_min":34,"x_max":1606,"o":"m 330 1909 l 351 1909 q 446 1598 403 1756 l 440 1588 q 450 1577 441 1577 q 446 1561 446 1567 l 425 1561 q 330 1909 330 1845 m 503 1814 l 524 1814 q 535 1714 535 1772 l 535 1651 l 524 1614 q 503 1640 513 1616 l 509 1651 q 493 1809 493 1775 l 503 1814 m 250 1772 l 260 1772 q 308 1687 264 1772 q 361 1588 316 1686 q 387 1550 367 1588 l 387 1529 l 377 1529 q 239 1756 311 1605 l 239 1761 q 250 1772 241 1772 m 1110 1730 l 1110 1735 q 1215 1708 1160 1729 l 1226 1714 q 1453 1598 1367 1662 q 1542 1508 1462 1578 q 1606 1334 1579 1443 q 1558 1128 1606 1214 q 1563 1123 1563 1128 q 1506 1018 1553 1122 q 1421 923 1495 1018 q 1226 796 1388 887 l 1205 796 q 951 880 1158 796 q 878 912 920 912 l 894 970 l 888 970 q 915 1039 915 1033 l 909 1049 q 920 1081 920 1067 l 920 1113 q 904 1118 914 1113 q 799 849 830 979 l 720 612 l 730 612 q 857 701 837 682 l 867 696 l 878 701 l 951 669 l 951 675 q 983 665 969 665 q 989 669 989 665 q 1088 638 1025 654 l 1099 643 q 1226 606 1205 606 q 1310 591 1249 596 q 1398 568 1310 580 q 1416 416 1435 568 q 1395 121 1416 239 l 1400 121 q 1337 -138 1379 -104 q 1194 -285 1280 -241 q 1120 -338 1145 -313 q 1041 -374 1107 -338 q 915 -438 1029 -374 l 830 -465 q 825 -459 825 -465 l 799 -465 l 751 -465 q 693 -444 738 -465 l 693 -448 l 619 -422 q 614 -427 619 -427 q 461 -364 563 -385 q 134 -169 176 -243 q 34 31 55 -91 l 34 47 q 76 363 34 152 q 81 369 81 363 l 76 369 q 155 696 140 652 q 235 1034 182 791 q 245 1049 239 1034 l 239 1049 q 334 1329 334 1318 q 414 1445 393 1424 q 577 1561 435 1456 q 709 1651 701 1651 q 804 1698 709 1657 l 804 1704 q 809 1698 809 1704 q 1110 1730 983 1743 m 930 1666 q 762 1619 813 1652 q 635 1524 714 1600 q 519 1223 541 1379 q 461 960 496 1223 l 467 960 l 440 812 l 446 812 q 390 501 414 642 q 345 169 366 359 l 345 132 q 429 -58 345 -33 q 562 -153 429 -76 q 941 -269 680 -216 q 989 -275 960 -269 q 1010 -264 1010 -271 q 1015 -269 1015 -264 q 1194 -216 1087 -267 q 1326 -37 1326 -109 q 1363 253 1335 -37 l 1363 274 q 1358 279 1363 279 l 1373 380 q 1369 401 1369 389 q 1373 406 1369 406 l 1369 416 l 1369 427 q 1373 432 1369 432 l 1369 443 l 1373 517 q 1231 553 1268 553 l 888 638 q 836 432 867 543 q 820 353 820 358 l 820 348 q 836 332 820 340 l 862 332 q 867 337 867 332 q 941 274 919 337 q 920 205 920 215 l 925 205 q 814 58 897 111 q 778 47 778 56 q 630 184 630 87 q 614 264 614 222 l 614 363 q 699 722 630 527 q 767 944 725 781 q 857 1149 830 1099 q 925 1218 916 1218 l 925 1213 q 1031 1244 979 1244 q 1147 1160 1113 1244 l 1147 1149 q 1131 1092 1147 1141 l 1136 1081 q 1126 1049 1126 1063 l 1126 1039 q 1226 1018 1126 1025 q 1247 1023 1235 1023 q 1310 997 1247 1010 l 1310 1002 q 1384 986 1354 986 q 1390 991 1384 991 l 1390 986 q 1479 1070 1417 986 l 1537 1208 q 1553 1265 1553 1257 l 1553 1329 q 1458 1514 1522 1464 q 1215 1656 1321 1642 q 930 1666 1059 1693 m 151 1468 l 167 1441 q 156 1187 163 1217 l 161 1179 q 158 1160 157 1170 l 167 1160 q 222 1402 189 1270 l 231 1407 l 234 1369 q 190 1176 214 1178 q 153 1026 191 1154 q 127 905 127 918 l 118 905 l 113 975 l 122 991 q 115 1028 121 1010 q 121 1143 114 1128 l 116 1142 q 122 1195 117 1195 l 117 1204 l 121 1214 l 115 1223 q 119 1242 119 1232 l 114 1242 l 118 1252 q 123 1385 115 1385 l 119 1385 q 151 1468 132 1467 m 229 796 l 235 796 q 155 443 155 530 q 140 390 151 443 l 144 390 q 123 274 123 348 l 129 274 q 108 179 113 242 l 113 179 l 203 232 q 308 274 206 236 q 440 1113 393 758 q 488 1312 450 1170 q 531 1434 522 1418 q 541 1466 541 1449 l 535 1466 q 419 1377 458 1415 q 229 796 342 1274 m 941 1155 q 972 1107 972 1128 l 978 1107 q 1073 1165 1065 1165 l 1073 1176 q 1010 1202 1073 1194 q 941 1155 943 1166 m 968 1034 q 972 1028 972 1034 q 941 965 965 1021 l 941 960 l 946 960 l 1010 1002 q 1063 1065 1063 1020 l 1073 1060 l 1078 1070 l 1078 1123 l 1073 1123 q 968 1034 1048 1104 m 1533 963 l 1541 962 l 1536 928 q 1406 762 1505 847 q 1230 701 1304 690 l 1220 720 q 1320 745 1253 732 q 1368 772 1321 750 q 1533 963 1472 848 m 71 1154 q 96 1080 80 1143 q 91 1074 96 1075 l 98 1050 l 99 1027 l 95 1017 l 100 1018 l 96 1008 l 102 979 l 94 965 l 100 880 q 96 861 101 869 q 103 842 102 852 l 104 818 l 96 804 l 98 765 l 96 732 q 86 741 87 731 l 85 750 q 76 816 83 776 q 79 836 80 825 q 74 840 75 835 l 79 840 l 73 849 l 77 878 l 72 878 q 76 883 71 882 l 68 930 l 66 949 q 71 954 66 953 l 66 963 l 64 982 q 69 987 64 987 l 63 996 q 68 1001 63 1001 l 62 1010 l 62 1019 q 66 1025 62 1025 l 61 1034 l 59 1058 q 64 1063 59 1062 l 58 1072 l 56 1101 q 71 1154 52 1152 m 1015 891 l 1020 891 q 1115 944 1062 895 q 1162 975 1127 944 l 1158 975 l 1158 970 l 1147 975 l 1120 975 l 1015 891 m 1105 870 l 1115 870 q 1253 954 1221 920 l 1253 960 l 1247 960 q 1105 870 1224 960 m 1205 865 l 1215 865 q 1337 939 1305 907 l 1310 944 l 1305 944 l 1205 865 m 1502 819 l 1501 814 q 1314 649 1419 682 l 1288 649 l 1271 651 q 1257 671 1264 652 q 1391 721 1333 675 q 1502 819 1471 801 m 688 485 q 693 479 693 485 q 667 337 680 479 q 672 321 672 327 l 667 321 q 672 290 672 313 q 772 390 772 336 l 825 596 l 825 606 q 688 490 688 541 l 688 485 m 688 227 l 699 227 q 788 274 766 274 q 814 290 800 290 l 814 295 l 793 295 q 741 269 781 295 q 688 227 688 239 m 867 258 q 825 232 867 240 q 814 221 825 221 l 814 227 l 762 190 q 704 147 741 190 l 704 142 q 714 132 705 132 q 873 237 836 237 l 873 258 l 867 258 m 92 116 l 92 111 q 87 52 92 89 q 92 37 92 42 l 87 37 q 97 5 97 20 l 102 5 q 298 84 119 5 l 298 105 q 292 111 298 111 q 298 116 292 116 l 292 142 q 303 200 292 180 l 298 200 l 303 211 l 303 242 l 92 116 m 767 105 l 778 100 q 841 147 806 100 l 841 153 q 767 105 767 112 m 118 -43 q 134 -79 118 -55 l 161 -74 l 171 -74 l 182 -79 q 260 -47 182 -73 l 313 -21 l 303 47 l 292 47 q 118 -43 226 -3 m 171 -127 l 171 -132 q 187 -148 187 -132 q 377 -95 226 -148 q 345 -53 345 -64 q 171 -127 229 -127 m 1447 -58 l 1453 -58 l 1468 -74 q 1463 -90 1463 -84 l 1468 -100 l 1421 -233 q 1348 -343 1421 -243 q 1305 -412 1348 -357 l 1300 -412 q 1295 -391 1300 -399 q 1305 -353 1305 -370 q 972 -538 1048 -538 q 946 -517 958 -536 l 941 -517 l 941 -512 q 983 -496 957 -512 l 983 -501 q 1337 -280 1071 -479 q 1421 -142 1377 -239 q 1442 -100 1426 -115 q 1447 -58 1442 -79 m 250 -190 l 250 -195 q 277 -216 250 -203 l 282 -216 l 303 -201 q 308 -206 308 -201 l 440 -159 l 440 -142 q 414 -121 437 -132 q 250 -190 260 -190 m 493 -180 q 351 -248 422 -225 l 351 -258 l 377 -258 q 477 -216 407 -258 q 524 -201 515 -201 l 524 -190 l 493 -180 m 46 -226 q 52 -231 52 -226 l 62 -226 q 110 -294 75 -226 q 157 -342 149 -342 q 374 -547 157 -366 q 500 -616 482 -616 l 500 -621 q 452 -627 452 -621 q 136 -384 364 -600 q 41 -241 73 -318 q 46 -226 46 -231 m 566 -233 l 556 -227 q 467 -269 475 -256 l 467 -280 q 593 -222 523 -280 l 577 -222 q 566 -233 566 -223 m 541 -301 l 541 -311 q 646 -258 636 -273 l 651 -258 l 651 -254 l 646 -254 q 541 -301 549 -278 m 709 -269 q 609 -322 709 -274 l 609 -338 l 619 -338 q 741 -275 648 -319 l 741 -269 l 709 -269 m 651 -374 l 651 -380 q 851 -317 744 -380 l 867 -317 l 867 -306 l 814 -290 q 651 -374 689 -343 m 778 -396 l 778 -412 l 793 -412 q 920 -380 839 -412 q 1025 -328 982 -340 l 1031 -317 l 1025 -317 q 978 -328 978 -320 q 946 -317 956 -317 q 778 -396 806 -396 m 273 -420 l 283 -426 l 283 -420 q 463 -510 445 -510 q 632 -579 621 -568 l 642 -595 l 642 -600 l 632 -600 q 321 -489 481 -566 l 262 -431 q 273 -420 264 -420 m 110 -441 q 262 -557 120 -441 q 347 -610 292 -564 l 347 -621 q 321 -627 321 -621 q 110 -468 195 -572 l 115 -468 l 110 -458 l 110 -441 m 1168 -522 q 1173 -538 1173 -532 l 1183 -533 l 1189 -533 l 1189 -543 q 989 -602 1038 -602 l 978 -581 l 1078 -549 l 1078 -554 q 1105 -533 1105 -547 q 1120 -543 1120 -538 q 1168 -522 1160 -522 z "},"H":{"ha":1431,"x_min":34,"x_max":1370,"o":"m 1054 1761 q 1101 1730 1101 1746 q 827 1609 987 1718 l 827 1598 l 832 1598 q 1017 1666 902 1645 l 1022 1666 q 1128 1645 1128 1666 l 1128 1635 l 1112 1635 q 1033 1640 1085 1635 l 1033 1635 q 1017 1640 1023 1640 q 853 1567 857 1597 l 843 1571 l 843 1567 q 848 1561 848 1567 q 748 1497 828 1561 q 722 1466 741 1478 q 711 1440 711 1453 l 705 1440 q 695 1450 695 1440 q 822 1640 730 1534 q 932 1719 928 1719 q 1054 1761 1017 1756 m 277 1560 q 282 1555 282 1560 l 292 1560 q 313 1529 313 1555 q 250 1423 250 1446 q 461 1465 330 1455 q 467 1460 461 1460 l 467 1465 q 503 1434 498 1453 l 488 1423 l 472 1434 l 456 1434 l 446 1428 l 440 1439 q 351 1413 370 1428 l 351 1417 q 213 1354 213 1390 l 155 1202 l 97 1054 q 87 1043 97 1043 l 81 1043 l 81 1069 q 87 1075 81 1075 q 81 1080 87 1080 q 165 1349 105 1214 l 165 1354 l 155 1349 l 140 1349 q 129 1360 129 1349 q 213 1449 193 1385 l 277 1560 m 895 1487 q 927 1476 913 1476 l 938 1476 l 948 1482 l 948 1476 l 990 1487 q 1064 1482 1036 1482 l 1138 1482 l 1149 1476 l 1149 1482 l 1185 1472 q 1244 1476 1221 1476 l 1301 1476 q 1370 1434 1340 1476 q 1349 1097 1349 1152 q 1344 1081 1349 1091 q 1349 1076 1344 1076 l 1344 1049 l 1344 1028 q 1318 738 1333 818 l 1322 738 l 1318 728 l 1318 686 q 1312 665 1318 673 q 1318 648 1318 654 l 1312 638 l 1318 627 q 1280 111 1295 476 l 1275 111 q 1280 105 1275 105 l 1275 79 l 1275 -79 q 1280 -85 1275 -85 l 1275 -95 q 1280 -100 1275 -100 l 1275 -127 l 1275 -148 q 1280 -153 1275 -153 q 1238 -201 1280 -167 q 1122 -374 1176 -274 q 1080 -385 1108 -374 q 1033 -374 1040 -374 l 1033 -380 q 1027 -374 1027 -380 q 943 -385 972 -385 q 890 -374 890 -385 l 880 -380 q 859 -374 871 -374 l 859 -380 q 790 -370 850 -374 q 753 -380 769 -380 q 727 -349 727 -376 l 727 -280 q 732 -275 727 -275 l 722 -237 q 727 -233 727 -237 l 722 -233 q 732 -180 727 -180 q 722 -121 728 -168 l 711 -121 q 690 -142 703 -121 q 701 -174 690 -157 q 653 -243 701 -204 q 606 -296 653 -250 l 553 -370 l 547 -370 q 516 -359 538 -370 q 458 -374 491 -368 q 447 -364 458 -364 l 395 -370 l 395 -364 l 384 -370 l 374 -364 q 310 -374 337 -374 q 304 -370 310 -370 q 300 -374 304 -374 l 300 -370 q 226 -396 226 -370 q 168 -359 168 -387 q 131 47 131 15 l 131 58 q 99 738 131 134 l 104 738 l 99 749 q 94 907 99 802 q 141 1007 110 920 q 236 1181 196 1181 l 236 1176 l 247 1181 l 257 1181 q 342 1176 312 1181 q 426 1181 372 1181 q 431 1176 431 1181 q 521 1187 435 1181 l 568 1181 q 595 1192 586 1192 q 627 1144 612 1192 l 621 1144 l 632 1097 q 627 1092 632 1092 q 637 991 633 1002 q 632 986 637 986 l 637 960 l 637 933 l 632 897 q 637 891 637 897 l 632 891 q 648 791 642 856 l 642 781 q 653 749 648 749 l 648 722 q 669 570 653 570 l 680 574 l 690 570 q 743 591 743 570 q 737 606 737 601 q 743 612 743 606 l 737 612 q 743 617 737 617 q 737 707 737 679 l 737 833 q 732 838 737 838 l 737 849 l 737 886 l 743 912 l 737 912 l 743 923 l 743 933 q 737 939 743 939 q 743 954 743 949 q 737 1102 743 974 l 732 1102 l 737 1113 q 732 1128 732 1123 l 737 1128 q 732 1144 732 1139 q 727 1234 732 1172 q 769 1286 730 1258 l 838 1419 l 843 1419 l 843 1445 q 895 1487 862 1487 m 140 1534 l 155 1534 l 161 1512 q 144 1449 155 1470 l 150 1449 q 97 1233 134 1426 q 87 1217 92 1217 l 92 1206 l 81 1185 l 87 1185 q 39 1038 62 1068 q 34 1064 39 1064 q 39 1080 39 1074 q 123 1523 39 1200 l 140 1534 m 932 1402 l 938 1402 l 932 1392 l 932 1381 q 938 1377 932 1377 l 932 1366 l 932 1360 q 938 1355 932 1355 l 932 1345 l 932 1255 q 938 1213 932 1218 q 932 1155 932 1177 l 932 991 q 938 918 932 962 q 927 849 934 895 q 932 844 927 844 q 927 785 927 797 q 932 675 932 693 l 927 675 l 932 665 q 901 549 917 557 l 890 553 q 764 517 844 553 l 743 517 l 743 522 l 690 506 q 674 511 680 511 l 648 496 l 637 496 q 610 517 610 513 q 595 701 610 578 l 600 701 q 595 707 600 707 q 600 722 595 712 q 579 1118 579 976 q 521 1134 567 1130 q 421 1123 447 1123 l 421 1128 l 410 1123 l 368 1123 l 357 1128 l 352 1118 l 342 1123 l 315 1123 q 262 1107 262 1123 q 257 1065 257 1087 l 257 1013 q 283 812 273 920 l 279 802 l 294 717 l 289 717 l 294 707 l 289 675 q 294 669 289 669 q 289 665 294 665 l 294 612 l 294 543 l 300 532 l 294 532 l 300 522 l 300 469 q 342 -79 317 139 q 336 -85 342 -85 q 352 -169 345 -169 q 374 -163 374 -169 l 426 -169 q 637 -153 527 -169 l 637 -95 q 632 -79 637 -79 l 637 -53 l 637 68 q 690 74 662 68 l 711 68 l 779 79 l 790 74 q 806 79 800 79 l 806 74 q 848 84 825 84 l 880 84 q 901 31 895 84 q 885 -43 892 1 l 890 -53 q 885 -58 890 -58 l 890 -85 l 890 -90 q 885 -95 890 -95 q 895 -121 890 -121 l 890 -132 l 895 -159 l 938 -159 l 948 -153 l 948 -159 q 990 -148 981 -148 q 996 -153 990 -153 l 996 -148 l 1006 -153 l 1012 -153 q 1017 -148 1017 -153 q 1022 -153 1022 -148 q 1170 -132 1142 -140 q 1175 -138 1175 -132 l 1217 -127 q 1212 -111 1217 -111 l 1217 -58 l 1217 -11 q 1223 10 1217 1 l 1217 21 l 1223 52 l 1223 58 l 1217 68 l 1223 68 l 1217 79 l 1217 95 l 1223 105 l 1217 105 q 1227 132 1223 132 q 1223 137 1227 137 l 1227 163 l 1227 216 l 1233 227 l 1227 227 l 1233 237 q 1259 622 1233 351 l 1254 622 l 1265 675 l 1259 701 l 1286 912 l 1280 912 l 1291 965 l 1286 965 l 1291 975 q 1312 1260 1297 1167 q 1307 1303 1307 1281 q 1312 1308 1312 1303 l 1307 1308 l 1312 1318 l 1312 1377 q 1318 1381 1312 1381 l 1312 1392 l 1312 1419 q 1297 1424 1297 1419 q 1291 1419 1291 1424 l 1265 1424 l 1254 1424 q 1249 1419 1249 1424 q 1244 1424 1244 1419 l 1180 1419 q 1143 1429 1143 1419 q 1138 1424 1138 1429 q 1122 1429 1133 1424 q 1033 1424 1067 1424 l 985 1429 q 969 1424 975 1424 q 964 1429 969 1429 l 964 1424 l 954 1429 l 948 1429 q 932 1402 939 1429 m 874 1381 q 785 1181 785 1208 l 785 1165 q 790 1144 785 1154 q 785 1139 790 1139 l 800 1002 l 795 1002 l 800 991 q 795 975 795 981 q 800 970 795 970 l 795 944 l 795 870 q 790 770 795 827 q 795 754 795 760 l 790 754 l 795 743 l 795 712 q 790 707 795 707 l 795 696 q 790 690 795 690 l 795 680 l 795 643 l 800 591 q 869 627 869 591 q 880 712 874 712 l 874 738 q 885 923 874 850 l 880 933 l 885 944 q 880 949 885 949 l 885 975 l 880 1013 q 885 1018 880 1018 l 880 1044 l 880 1081 q 885 1086 880 1086 l 880 1097 l 880 1102 l 885 1113 l 880 1113 l 885 1123 l 885 1160 q 880 1165 885 1165 q 885 1171 880 1171 q 880 1187 885 1176 l 885 1271 l 880 1292 l 885 1292 q 880 1297 885 1297 l 885 1350 l 885 1381 l 874 1381 m 440 1396 l 503 1396 q 519 1381 511 1396 l 519 1370 q 477 1354 519 1358 l 477 1360 l 467 1354 q 446 1360 454 1354 l 435 1354 l 425 1360 q 330 1344 399 1344 l 303 1344 q 440 1396 303 1383 m 205 1039 q 146 891 146 918 l 146 880 l 152 870 l 146 870 l 157 823 q 152 807 157 817 l 162 648 q 157 612 157 627 l 162 612 q 157 606 162 606 q 168 511 164 522 q 162 506 168 506 l 168 469 l 168 401 l 173 390 l 168 390 l 173 380 l 173 232 q 194 74 186 74 l 189 63 l 189 -5 q 215 -206 212 -206 q 210 -211 215 -211 l 220 -275 l 226 -275 q 294 -163 292 -192 l 283 -58 l 289 -58 q 273 31 277 31 l 279 42 q 273 58 273 52 l 279 58 q 257 327 268 87 q 262 342 257 332 q 252 485 252 393 l 252 496 q 247 501 252 501 q 252 506 247 506 q 247 522 252 512 q 241 738 241 659 l 241 749 q 220 965 231 791 q 210 1039 211 965 l 205 1039 m 737 -43 l 743 -43 q 795 21 795 13 l 790 21 q 737 -43 737 -21 m 684 -5 q 690 -21 690 -16 l 695 -21 l 722 16 l 705 16 q 684 -5 701 16 m 774 -85 l 774 -100 l 779 -127 l 785 -127 q 838 -32 838 -96 l 838 -11 q 774 -85 814 -21 m 774 -233 l 779 -243 l 774 -243 q 779 -264 779 -252 q 832 -169 832 -220 l 832 -138 q 790 -201 811 -153 q 774 -233 774 -206 m 1080 -322 l 1080 -328 l 1085 -328 q 1175 -195 1124 -264 l 1164 -195 q 1101 -290 1147 -202 q 1080 -322 1089 -290 m 996 -322 l 1001 -322 q 1101 -201 1057 -266 l 1085 -201 q 996 -322 1082 -201 m 990 -237 q 996 -243 996 -237 q 959 -275 983 -243 l 964 -275 q 969 -269 964 -269 q 975 -275 969 -275 q 1017 -216 1017 -223 l 1017 -206 q 990 -237 1007 -206 m 832 -317 l 843 -322 q 895 -275 843 -311 q 943 -227 896 -265 l 948 -216 l 948 -211 q 848 -306 871 -254 q 832 -317 832 -306 m 537 -285 l 542 -285 q 600 -216 600 -239 l 589 -216 q 537 -285 537 -279 m 416 -222 q 378 -275 416 -227 l 384 -275 q 426 -237 408 -265 l 426 -233 q 416 -222 426 -222 m 431 -301 l 431 -306 l 447 -306 q 500 -254 447 -289 l 521 -227 l 521 -222 l 516 -222 q 431 -301 487 -222 m 82 -295 l 92 -295 q 98 -311 92 -300 l 87 -363 q 145 -453 99 -404 q 298 -500 230 -500 q 367 -490 314 -500 l 372 -500 l 372 -511 q 250 -537 372 -528 q 103 -474 171 -537 q 56 -369 56 -416 q 82 -295 66 -295 m 283 -290 l 294 -290 q 342 -243 300 -290 l 342 -237 l 326 -237 q 283 -290 304 -250 m 660 -422 q 681 -470 667 -422 q 876 -549 718 -508 q 971 -565 953 -565 l 971 -559 q 1045 -591 1045 -574 q 961 -602 1022 -602 l 950 -602 q 929 -597 939 -602 q 924 -602 924 -597 q 639 -454 639 -554 l 639 -444 q 660 -422 639 -435 m 813 -459 l 882 -475 q 887 -470 887 -475 q 1034 -486 890 -470 q 1050 -481 1045 -481 q 1066 -486 1061 -486 l 1087 -481 l 1108 -486 l 1145 -481 l 1156 -486 l 1246 -475 l 1251 -486 q 1203 -512 1251 -496 l 1203 -507 q 1050 -523 1183 -523 q 1045 -528 1050 -528 l 1045 -523 q 1040 -528 1040 -523 q 950 -523 978 -523 l 935 -523 q 929 -517 929 -523 l 918 -523 l 913 -523 l 903 -517 l 903 -523 q 797 -491 797 -512 q 813 -459 797 -472 m 106 -535 l 296 -557 l 296 -551 q 301 -557 301 -551 q 444 -535 421 -545 l 449 -546 l 449 -557 q 338 -588 449 -570 l 338 -583 l 328 -588 l 217 -588 q 212 -583 212 -588 q 206 -588 206 -583 q 96 -557 123 -574 q 106 -535 106 -544 m 644 -554 l 665 -554 q 903 -639 793 -639 q 918 -649 903 -644 q 903 -671 911 -671 l 861 -671 q 644 -581 753 -671 l 644 -554 z "},"I":{"ha":889,"x_min":12,"x_max":875,"o":"m 496 1700 l 502 1699 q 546 1357 534 1693 l 545 1331 l 529 1334 l 485 1687 l 485 1691 q 496 1700 488 1702 m 640 1581 q 671 1565 649 1579 l 608 1312 q 587 1338 587 1322 q 616 1507 591 1417 l 611 1508 q 640 1581 626 1584 m 703 1415 l 729 1410 q 739 1398 739 1407 q 652 1225 673 1221 l 647 1226 l 647 1231 q 703 1415 649 1272 m 314 1360 l 336 1356 q 345 1345 345 1353 q 195 1177 249 1316 q 122 907 125 1005 q 176 802 132 842 q 197 783 197 791 l 192 774 q 103 887 135 786 q 72 1097 73 903 q 119 1282 85 1289 q 124 1276 119 1277 q 138 1292 132 1293 q 151 1284 145 1286 q 121 1215 151 1280 q 104 1115 109 1114 l 109 1038 l 114 1036 q 250 1331 162 1246 q 314 1360 255 1343 m 457 1259 q 520 1235 520 1240 l 531 1238 q 705 1093 600 1215 q 850 878 852 904 q 871 747 873 782 l 871 721 q 875 715 870 715 q 851 650 863 661 q 857 644 851 645 q 730 543 805 556 q 661 525 684 526 l 661 519 q 831 290 833 340 l 831 285 q 823 191 830 253 q 824 117 825 125 q 814 -8 817 53 q 819 -14 819 -9 l 814 -14 l 819 -24 l 818 -35 q 813 -39 818 -40 q 822 -73 817 -72 q 817 -77 822 -79 q 821 -88 816 -87 q 812 -193 813 -158 l 804 -408 q 739 -443 802 -441 q 436 -445 608 -448 q 324 -449 364 -441 l 325 -444 q 202 -451 214 -454 q 142 -370 203 -446 q 87 -285 142 -353 q 41 -229 83 -269 q 80 -56 64 -113 q 75 -50 80 -51 q 115 149 97 93 l 110 149 q 149 316 121 172 l 143 317 q 202 596 165 372 q 298 604 203 616 l 399 604 l 399 610 q 221 804 399 616 q 181 996 178 898 l 186 996 q 182 1002 187 1001 q 258 1192 193 1093 q 388 1251 330 1251 l 394 1261 q 399 1255 399 1259 l 441 1256 l 441 1251 q 457 1259 457 1253 m 460 1195 q 423 1207 439 1204 q 282 1130 376 1217 q 240 1001 258 1075 q 276 840 235 874 q 369 779 325 788 l 369 774 q 583 821 439 760 q 663 979 662 937 l 665 1000 l 659 1012 l 665 1011 q 591 1142 647 1093 l 518 1194 l 492 1198 q 460 1195 477 1202 m 717 1000 l 717 995 l 721 968 l 714 932 q 790 838 723 930 q 805 814 805 824 l 810 812 l 811 828 q 727 982 814 895 q 722 1000 722 994 l 717 1000 m 47 932 q 77 873 64 932 q 167 745 138 745 q 170 748 166 748 q 197 732 171 740 l 197 726 l 180 726 q 87 803 133 726 q 43 909 74 803 l 43 912 l 50 912 l 50 920 l 44 928 q 47 932 48 927 m 679 844 q 810 690 802 692 q 823 736 817 699 l 819 763 q 825 778 825 772 q 733 854 788 785 q 708 891 707 875 l 703 892 q 679 844 692 894 m 651 812 l 635 789 q 760 621 721 699 l 760 616 q 793 646 770 614 l 651 812 m 622 739 l 621 734 q 692 640 656 678 l 702 638 q 622 739 678 680 m 467 722 l 466 701 q 522 627 479 699 q 526 610 527 616 l 536 608 q 548 616 547 606 q 467 722 505 705 m 388 728 l 356 734 l 356 729 q 452 609 430 650 l 462 602 l 467 601 l 505 598 l 505 604 q 414 728 476 640 l 388 728 m 109 -136 l 114 -137 l 109 -146 l 107 -173 q 123 -181 113 -174 q 531 -184 338 -193 l 532 -157 q 549 -134 545 -134 l 545 -123 l 552 61 q 557 64 552 66 l 553 77 q 569 226 567 177 l 570 242 l 576 267 l 570 269 l 576 277 l 580 357 q 574 363 580 361 q 588 429 579 374 l 583 430 q 588 434 583 435 q 566 538 592 533 l 317 552 q 248 550 317 544 q 201 305 224 471 q 161 123 191 292 q 121 -102 150 125 q 109 -136 112 -100 m 637 472 q 632 467 637 467 l 637 456 l 635 429 q 630 426 635 425 l 635 414 l 629 383 q 770 208 639 381 l 770 202 l 775 201 q 783 283 777 243 q 673 438 785 311 l 637 472 m 625 305 l 622 221 q 667 154 667 159 q 728 83 675 152 q 764 50 758 51 q 770 64 764 55 l 764 66 l 770 75 l 772 127 q 777 132 772 133 q 676 252 777 142 l 631 304 l 625 305 m 613 144 l 612 101 q 606 81 611 90 q 646 20 610 53 q 756 -139 645 10 l 761 -140 q 756 -134 762 -135 l 762 -124 l 763 -103 q 758 -81 763 -92 q 764 -62 764 -73 l 765 -46 q 760 -39 765 -41 l 766 -30 q 629 135 766 -20 q 613 144 619 142 m 606 -41 l 606 -45 q 711 -199 665 -141 l 747 -233 l 758 -235 l 758 -229 q 753 -213 753 -218 l 758 -214 q 692 -132 759 -204 q 627 -34 694 -114 l 617 -32 q 606 -41 606 -32 m 602 -145 l 595 -181 q 656 -256 605 -183 l 753 -339 l 755 -303 l 602 -145 m 492 -250 q 557 -337 557 -331 q 597 -387 556 -353 l 602 -389 q 613 -380 612 -391 q 573 -319 583 -353 q 502 -241 555 -309 q 492 -250 492 -241 m 423 -241 l 422 -246 q 534 -391 522 -388 l 534 -380 q 488 -328 534 -371 q 439 -245 438 -256 l 423 -241 m 338 -245 q 445 -362 382 -309 q 353 -259 387 -266 l 354 -243 q 338 -245 344 -247 m 205 -250 q 311 -393 248 -328 l 310 -399 l 331 -403 l 332 -382 q 227 -244 226 -251 l 216 -242 q 205 -250 205 -241 m 115 -238 q 146 -271 130 -267 l 140 -280 l 140 -296 q 241 -395 186 -330 l 257 -399 l 258 -382 q 120 -239 149 -244 l 115 -238 m 289 -273 l 288 -288 q 379 -397 288 -295 q 396 -384 387 -398 q 294 -273 396 -379 l 289 -273 m 29 -317 l 33 -317 q 219 -564 31 -399 l 280 -595 q 285 -591 285 -596 l 309 -601 l 351 -610 l 351 -628 q 312 -630 347 -627 l 260 -620 q 57 -441 176 -603 q 13 -361 12 -389 l 14 -342 q 29 -317 18 -314 m 865 -488 q 666 -537 809 -526 q 406 -550 535 -550 q 399 -554 405 -555 l 385 -534 l 386 -522 q 423 -511 386 -515 l 422 -515 q 460 -512 450 -511 l 460 -517 q 801 -487 596 -513 l 865 -488 m 845 -553 q 866 -578 867 -561 q 552 -595 804 -593 q 547 -590 547 -594 l 520 -590 l 515 -589 q 479 -566 486 -585 q 686 -562 479 -551 q 840 -557 707 -555 q 845 -553 840 -552 m 35 -543 q 201 -629 98 -587 l 202 -624 q 260 -646 230 -640 q 418 -646 367 -668 l 423 -658 l 422 -673 q 321 -695 356 -702 l 321 -690 l 311 -693 l 200 -671 l 190 -663 l 190 -669 q 24 -551 22 -607 q 35 -543 35 -553 m 507 -629 l 608 -648 q 613 -655 613 -650 q 618 -651 618 -656 l 644 -661 l 696 -672 q 703 -667 702 -673 q 718 -676 712 -675 l 718 -692 l 701 -688 l 665 -686 l 665 -681 q 570 -677 570 -673 q 564 -672 564 -677 l 538 -671 q 476 -633 475 -646 q 507 -629 493 -625 z "},"J":{"ha":1588,"x_min":34,"x_max":1527,"o":"m 801 1597 l 832 1597 q 843 1586 843 1595 q 790 1533 843 1579 q 690 1191 690 1369 l 695 1191 q 690 1185 695 1185 q 737 969 690 1095 l 727 969 q 653 1122 690 969 l 653 1170 q 780 1581 653 1444 l 801 1597 m 1194 1508 q 1278 1445 1194 1495 q 1316 1413 1278 1438 q 1321 1419 1316 1419 q 1369 1387 1321 1396 q 1395 1334 1369 1380 l 1390 1334 q 1447 1181 1435 1255 q 1511 928 1485 1088 q 1506 923 1511 923 l 1521 859 l 1521 817 q 1527 812 1521 812 q 1521 807 1527 807 l 1527 781 l 1527 722 q 1521 717 1527 717 l 1527 707 l 1527 686 q 1521 680 1527 680 l 1527 669 l 1527 570 l 1521 559 q 1527 553 1527 559 q 1521 549 1521 553 l 1527 549 q 1458 306 1497 361 q 1084 -64 1389 129 q 604 -222 812 -222 l 588 -222 q 566 -227 576 -222 q 213 -85 437 -227 q 71 121 71 73 q 39 221 56 153 l 45 221 l 39 232 q 34 359 39 236 l 39 359 q 34 363 39 363 q 45 448 39 439 l 39 448 l 45 458 l 45 469 q 39 490 45 481 q 71 654 71 612 q 102 686 74 654 q 118 675 118 680 q 134 686 134 680 l 144 680 l 155 686 l 155 680 q 224 701 191 694 q 229 696 229 701 l 334 722 l 334 717 q 541 775 501 762 q 583 791 566 785 q 625 743 602 791 q 699 680 677 693 q 756 622 731 662 l 778 606 q 725 464 745 541 l 725 448 q 846 490 821 448 q 904 686 904 544 l 904 696 q 851 960 904 741 q 820 1081 825 1040 l 825 1081 q 767 1292 782 1263 l 767 1297 q 804 1350 767 1320 l 804 1345 q 888 1377 844 1345 l 899 1371 q 1046 1434 959 1408 q 1147 1476 1102 1468 q 1194 1508 1147 1500 m 1088 1398 q 994 1355 1088 1381 q 851 1297 892 1308 l 851 1292 q 899 1255 882 1276 l 930 1234 l 941 1239 q 957 1234 947 1239 q 1253 1360 1003 1234 q 1274 1377 1274 1360 q 1200 1434 1260 1398 q 1110 1398 1177 1434 l 1088 1398 m 593 1381 l 598 1381 q 609 1355 600 1355 l 604 1329 l 604 1282 q 709 918 604 1038 l 699 912 q 604 1028 633 944 q 593 1049 604 1036 l 598 1049 q 588 1081 588 1071 q 593 1086 593 1081 q 562 1329 568 1086 q 593 1381 576 1381 m 1200 1276 q 1194 1282 1200 1282 q 983 1181 1135 1242 l 983 1149 q 1025 1039 983 1114 q 1020 1023 1025 1034 l 1067 733 q 1094 543 1078 689 q 1088 522 1088 534 l 1088 511 q 1094 506 1088 506 q 1036 342 1078 390 q 851 258 962 287 q 836 264 841 264 q 820 258 830 264 q 661 411 661 258 q 667 416 667 411 l 661 416 l 693 553 q 688 559 688 553 q 541 527 644 543 l 541 532 q 477 517 477 527 l 467 522 q 429 511 446 511 l 419 517 q 287 479 306 490 q 260 342 260 437 q 266 121 266 161 q 277 90 277 100 l 271 90 q 330 -68 294 -30 q 530 -169 378 -130 l 609 -169 q 614 -174 614 -169 l 625 -169 l 656 -169 q 1168 52 890 -142 q 1305 184 1225 98 q 1426 363 1383 258 q 1474 585 1457 412 q 1468 591 1474 591 l 1474 627 l 1474 654 l 1468 707 q 1474 712 1474 707 l 1468 712 l 1474 722 q 1390 1202 1474 901 q 1321 1329 1337 1329 q 1200 1276 1259 1310 m 846 1223 q 930 1123 857 1191 l 936 1123 l 936 1139 q 851 1229 910 1190 q 846 1223 846 1229 m 862 1134 q 941 939 899 939 q 989 897 941 935 l 989 902 q 946 1070 964 1070 q 878 1134 878 1120 l 862 1134 m 920 902 l 920 897 q 951 701 946 802 l 957 701 q 951 696 957 696 l 957 669 l 957 627 q 909 469 931 469 q 778 385 909 437 q 730 374 749 385 q 725 380 730 380 l 730 369 l 725 359 q 804 306 725 331 q 820 311 810 306 q 841 306 829 306 l 846 306 q 972 359 930 323 q 1036 485 1024 414 l 1036 585 q 1031 591 1036 591 q 1036 596 1031 596 q 989 849 1007 849 q 920 902 929 902 m 235 638 q 229 643 235 643 l 224 633 q 218 638 218 633 q 161 622 161 634 q 250 543 229 543 l 260 549 q 308 538 280 538 l 345 549 l 345 543 q 403 564 362 552 l 414 559 q 482 574 469 574 q 488 570 488 574 q 677 606 574 580 q 593 701 677 640 l 562 717 q 545 712 551 712 l 545 717 q 398 675 426 689 q 235 638 290 654 m 118 585 q 102 464 102 511 l 102 454 l 213 348 l 224 416 q 218 437 218 426 l 224 448 q 161 543 224 489 q 123 585 161 559 l 118 585 m 102 380 q 92 359 102 371 q 134 237 92 257 q 213 163 180 209 l 218 163 l 218 290 q 108 380 114 370 l 102 380 m 108 200 l 108 195 q 203 100 108 164 q 224 79 203 92 l 224 111 q 108 200 211 111 m 1379 68 l 1384 68 l 1384 52 q 1284 -127 1316 -77 q 1046 -353 1092 -344 q 841 -480 935 -450 l 841 -475 l 830 -480 l 804 -480 q 925 -396 804 -448 q 1162 -201 1052 -308 l 1210 -148 l 1194 -148 q 1099 -237 1194 -156 l 1088 -233 q 1052 -269 1078 -233 q 1020 -285 1042 -269 l 846 -370 q 625 -444 761 -406 q 372 -496 480 -486 q 266 -444 284 -496 l 277 -438 l 282 -438 q 324 -448 319 -448 l 377 -448 q 651 -391 453 -448 l 651 -385 q 630 -380 630 -385 l 619 -385 q 614 -380 614 -385 q 609 -385 609 -380 q 551 -374 551 -380 q 545 -380 545 -374 q 435 -353 463 -368 l 435 -359 q 129 -227 129 -276 q 108 -185 121 -227 q 129 -153 119 -153 q 144 -201 140 -153 q 493 -328 229 -266 q 583 -343 568 -338 q 588 -338 583 -338 l 588 -343 q 593 -338 593 -343 l 619 -343 l 677 -343 q 793 -332 793 -343 l 804 -338 q 1126 -174 955 -288 q 1141 -159 1126 -167 l 1141 -169 l 1147 -169 l 1210 -127 l 1221 -127 l 1215 -138 l 1215 -142 q 1295 -43 1256 -103 q 1379 63 1342 26 l 1379 68 m 176 47 q 245 -26 225 -26 l 245 -21 q 187 47 187 41 l 176 47 z "},"K":{"ha":1475,"x_min":34,"x_max":1414,"o":"m 960 1535 q 981 1514 981 1529 q 913 1128 981 1392 q 844 975 888 1004 l 839 975 q 945 1497 907 1251 l 945 1503 q 939 1508 939 1503 l 945 1508 l 939 1519 q 960 1535 939 1532 m 415 1497 q 447 1474 444 1486 l 447 1461 l 442 1461 l 410 1466 l 410 1461 q 406 1466 406 1461 q 199 1355 330 1466 q 190 1364 190 1355 l 190 1378 q 309 1474 227 1441 q 415 1497 360 1497 m 437 1410 q 507 1346 504 1376 l 497 1341 q 424 1378 458 1378 l 415 1378 q 107 1172 292 1378 q 57 1061 62 1099 l 62 1053 q 52 1043 62 1043 l 43 1043 q 34 1080 34 1078 q 190 1309 34 1160 q 378 1410 309 1398 l 437 1410 m 1087 1381 q 1093 1377 1087 1377 q 1097 1381 1093 1381 l 1103 1371 l 1103 1360 q 992 1139 1082 1286 q 955 1113 985 1139 l 955 1118 q 1040 1308 972 1183 q 1087 1381 1056 1354 m 760 1234 q 791 1187 784 1234 q 770 1049 770 1139 q 765 1044 770 1044 q 770 1028 770 1034 l 765 1002 l 770 1002 q 755 870 755 964 l 755 859 l 749 849 l 755 849 l 749 838 l 749 823 l 755 812 q 739 754 739 812 l 739 733 l 749 733 q 934 902 819 784 q 1076 1028 1065 1028 q 1135 1092 1131 1091 l 1166 1092 q 1219 975 1182 1080 q 1266 907 1227 975 l 1261 907 l 1330 802 l 1330 775 q 1224 680 1330 733 q 1050 564 1175 631 q 960 496 1050 552 q 918 464 918 471 q 1256 84 1221 113 q 1414 -90 1315 -4 l 1414 -95 q 1409 -116 1414 -107 q 1414 -138 1414 -125 q 1351 -163 1396 -152 l 1251 -243 q 1093 -417 1104 -378 q 960 -528 1040 -446 l 928 -533 q 818 -322 911 -515 q 791 -269 804 -322 q 739 -159 755 -209 q 686 -79 728 -149 q 670 -47 677 -47 q 660 -163 660 -149 q 665 -206 665 -201 q 591 -290 653 -251 q 538 -396 538 -357 q 459 -391 486 -391 l 296 -391 q 290 -396 290 -391 q 275 -385 275 -391 l 248 -391 q 191 -385 237 -391 q 164 -396 173 -396 l 138 -391 l 127 -396 q 122 -391 122 -396 l 96 -396 l 75 -396 q 43 -364 68 -396 q 53 -311 48 -311 l 48 -285 l 48 -95 q 43 -90 48 -90 q 48 -85 43 -85 l 43 -58 l 43 -53 q 48 -47 43 -47 l 43 -37 l 43 -16 l 48 10 l 43 10 l 48 21 q 43 79 48 60 q 64 406 58 222 l 69 406 l 64 416 l 64 422 q 79 532 64 450 l 75 532 l 79 543 l 79 574 q 96 722 89 623 l 90 722 q 100 764 100 755 l 96 764 q 122 1018 105 806 q 212 1134 162 1044 q 286 1208 218 1134 l 307 1223 q 333 1218 324 1223 q 433 1223 391 1223 l 507 1223 q 512 1218 512 1223 l 523 1223 l 538 1223 q 544 1218 544 1223 l 554 1223 l 565 1218 l 565 1223 q 570 1218 570 1223 q 749 1229 633 1229 q 755 1223 749 1223 q 760 1234 755 1234 m 681 1176 l 675 1176 q 596 1171 649 1176 l 596 1176 l 586 1171 l 491 1171 q 486 1165 486 1171 l 444 1176 q 422 1171 434 1171 l 417 1171 q 412 1176 412 1171 l 401 1171 l 396 1171 q 375 1176 384 1171 q 343 1165 353 1165 q 328 1171 333 1171 q 307 1060 317 1164 q 312 1055 312 1060 l 307 1055 l 312 1044 q 301 954 312 1025 l 307 954 l 301 944 l 301 912 q 307 907 301 907 l 301 897 l 301 865 q 296 754 301 804 l 301 701 q 290 617 297 617 l 296 591 l 296 490 q 290 469 296 478 l 296 458 l 280 348 l 286 321 l 286 190 l 280 158 q 286 153 280 153 l 275 84 q 280 58 280 75 l 275 47 l 280 47 q 275 31 275 37 q 280 -58 280 -41 l 275 -58 l 280 -68 q 275 -74 280 -74 q 280 -79 275 -79 l 275 -127 l 280 -163 q 275 -180 275 -174 l 286 -185 q 328 -180 298 -185 q 407 -185 374 -185 q 417 -180 417 -185 l 444 -185 l 538 -185 q 602 -169 602 -185 q 607 -153 602 -163 l 602 -153 l 644 121 l 660 211 l 660 216 q 654 221 660 221 q 670 285 670 250 q 728 227 701 267 q 971 -206 914 -118 q 1061 -343 1029 -288 q 1140 -275 1089 -343 q 1240 -185 1177 -255 q 1345 -116 1331 -116 q 1287 -43 1295 -63 q 1182 74 1280 -43 q 876 411 916 376 q 833 479 833 461 q 1061 633 907 521 q 1124 675 1090 647 q 1129 669 1124 669 q 1161 696 1129 680 q 1230 749 1161 703 q 1266 781 1230 753 q 1177 960 1259 815 q 1150 1018 1150 1015 l 1140 1018 q 976 870 1077 976 q 839 733 966 870 q 723 654 827 731 l 718 654 q 702 669 710 654 q 696 796 702 680 l 702 844 l 696 844 q 713 902 713 880 l 707 933 q 723 1013 718 996 l 718 1013 q 723 1028 723 1023 q 734 1176 723 1048 l 696 1176 q 691 1181 691 1176 l 681 1176 m 174 1013 l 180 1002 l 170 970 l 174 970 q 153 838 164 928 l 159 812 l 143 717 q 148 712 143 712 q 138 654 142 665 l 143 643 q 106 190 106 378 q 100 174 100 180 l 106 174 q 96 105 100 169 q 100 100 100 105 l 96 100 l 100 90 l 96 26 l 100 26 q 96 21 100 21 l 100 -5 l 100 -79 q 106 -85 100 -85 l 100 -95 l 100 -111 q 106 -195 100 -165 q 100 -280 100 -225 l 100 -290 l 106 -301 q 195 -190 195 -235 q 227 -68 220 -190 l 222 -68 l 227 -58 q 222 -16 222 -29 q 227 -5 222 -5 q 222 10 227 0 q 227 137 227 85 l 227 153 l 233 179 l 227 179 l 233 190 l 233 327 q 227 332 233 332 q 248 722 238 332 l 243 760 q 254 833 250 818 q 248 849 248 844 l 254 849 l 248 859 q 254 865 248 865 q 248 880 254 870 l 254 933 l 248 933 l 254 944 l 254 991 l 259 1023 q 254 1039 254 1034 q 259 1107 259 1074 q 174 1013 174 1029 m 1305 549 q 1158 400 1159 408 q 1364 176 1297 239 q 1373 158 1369 176 l 1360 158 q 1135 378 1308 188 q 1108 351 1135 372 l 1099 351 q 1086 378 1086 355 q 1108 410 1090 392 l 1081 450 l 1081 468 q 1095 481 1081 474 q 1131 436 1122 437 q 1216 517 1139 436 q 1305 549 1216 534 m 1373 517 q 1377 504 1373 512 q 1206 374 1319 454 l 1194 374 q 1189 382 1194 382 q 1373 517 1218 429 m 728 116 l 696 63 l 696 58 q 707 47 699 47 q 739 111 739 87 l 728 116 m 718 0 l 718 -5 q 728 -16 720 -16 q 770 42 728 -7 l 760 47 q 718 0 757 47 m 744 -53 l 749 -79 l 802 -21 q 791 -5 797 -5 q 744 -53 777 -7 m 781 -116 l 781 -132 q 791 -142 783 -142 l 839 -90 q 823 -64 829 -64 q 781 -116 815 -64 m 812 -185 l 812 -195 q 829 -211 812 -203 q 871 -153 829 -204 q 860 -142 871 -142 l 855 -142 q 812 -185 848 -142 m 886 -201 q 844 -258 886 -208 l 844 -264 q 855 -275 846 -275 q 903 -201 903 -221 l 886 -201 m 243 -332 l 248 -332 q 328 -258 278 -295 l 343 -237 l 343 -233 l 338 -233 q 243 -332 260 -281 m 153 -332 l 153 -338 l 170 -338 q 259 -237 229 -285 q 153 -332 237 -241 m 312 -332 l 328 -332 q 428 -248 404 -279 l 433 -248 l 433 -237 q 312 -332 384 -248 m 501 -237 l 401 -332 l 428 -338 l 438 -338 q 517 -237 517 -254 l 507 -243 q 501 -237 507 -237 m 876 -317 l 876 -322 l 881 -322 q 928 -269 890 -322 l 928 -264 l 924 -264 q 876 -317 911 -264 m 903 -370 l 903 -374 q 913 -385 904 -385 q 971 -317 954 -351 l 971 -301 l 966 -301 q 903 -370 946 -306 m 677 -321 l 688 -321 l 693 -342 q 492 -564 693 -462 q 424 -574 445 -574 l 392 -574 l 366 -569 l 366 -574 q 255 -500 264 -528 l 276 -500 q 382 -537 276 -522 q 456 -526 456 -533 l 466 -532 q 471 -526 471 -532 l 482 -532 q 646 -406 574 -490 q 677 -321 677 -336 m 698 -332 l 709 -332 q 751 -400 751 -357 l 751 -416 q 650 -579 751 -488 q 561 -616 587 -616 l 555 -606 q 667 -511 646 -548 l 661 -511 q 719 -389 709 -437 q 714 -384 714 -389 l 719 -384 q 698 -353 719 -379 l 698 -332 m 934 -427 l 934 -433 l 939 -433 q 1008 -370 971 -433 l 1008 -359 l 1002 -359 q 934 -427 996 -359 z "},"L":{"ha":1303,"x_min":34,"x_max":1242,"o":"m 567 1698 q 583 1693 577 1693 l 593 1698 q 772 1561 680 1683 q 873 1229 873 1396 q 867 1208 867 1219 l 873 1208 q 820 1060 853 1105 l 804 1060 q 830 1223 804 1094 q 651 1635 830 1466 l 572 1677 l 556 1677 q 551 1672 551 1677 l 541 1677 l 535 1677 l 524 1672 l 524 1683 q 567 1698 524 1695 m 793 1672 q 978 1398 978 1558 q 941 1255 978 1318 l 925 1255 q 920 1271 925 1261 q 941 1366 936 1326 l 936 1377 q 941 1381 936 1381 q 783 1651 941 1507 l 783 1661 q 793 1672 785 1672 m 688 1493 q 704 1472 699 1472 l 699 1419 l 699 1398 q 704 1392 699 1392 q 699 1387 704 1387 l 704 1360 l 704 1345 q 699 1339 704 1339 l 704 1329 q 699 1324 704 1324 q 735 997 730 1074 l 741 997 q 735 991 741 991 l 741 970 q 746 781 741 962 l 741 781 l 746 770 l 741 760 q 746 743 746 749 l 741 743 q 772 501 755 681 q 804 221 788 281 l 804 200 l 820 200 l 820 211 l 862 211 l 888 216 l 888 211 q 1120 248 1084 237 q 1126 253 1120 253 q 1147 205 1126 237 l 1141 195 q 1152 90 1147 90 l 1147 58 q 1158 -16 1158 1 l 1158 -47 l 1162 -58 l 1158 -58 l 1162 -68 l 1162 -95 q 1168 -153 1162 -117 q 1010 -374 1087 -255 l 968 -385 q 947 -380 958 -380 q 936 -391 947 -391 l 867 -391 q 836 -401 853 -391 q 830 -396 830 -401 q 778 -406 791 -401 l 778 -401 q 735 -417 735 -414 l 725 -412 q 503 -454 624 -427 l 482 -454 q 477 -448 477 -454 q 334 -475 429 -468 q 319 -480 334 -480 q 303 -448 319 -466 l 309 -448 q 245 -142 298 -374 q 192 190 214 9 q 129 638 140 528 l 123 638 l 129 648 q 66 1092 92 880 q 45 1113 58 1092 l 45 1144 q 102 1244 91 1215 q 166 1377 123 1274 l 203 1402 q 224 1408 224 1402 q 229 1402 229 1408 q 514 1455 240 1402 q 688 1493 593 1466 m 604 1413 l 604 1419 l 593 1413 l 577 1413 q 572 1419 572 1413 q 482 1402 556 1410 q 477 1408 482 1408 q 345 1377 465 1383 q 239 1355 331 1362 q 235 1334 239 1343 l 256 1229 l 250 1229 l 287 1023 l 282 1023 q 340 717 298 960 l 334 717 q 356 559 351 638 l 351 559 q 414 179 366 359 l 408 179 q 472 -121 435 21 l 467 -121 q 503 -201 484 -201 q 904 -163 593 -185 l 1010 -142 l 1010 -148 q 1110 -121 1110 -130 l 1105 -111 l 1110 -100 q 1094 52 1101 -86 q 1089 58 1089 52 q 1094 90 1089 62 q 1089 179 1089 144 l 1078 184 l 883 153 l 883 158 q 778 137 815 137 q 741 190 741 152 l 746 200 q 720 416 735 315 q 725 422 720 422 q 688 738 699 688 l 693 738 l 688 749 l 688 781 l 693 791 q 688 796 688 791 q 693 802 693 796 l 688 802 q 693 807 688 807 q 688 939 688 894 l 688 960 l 683 970 l 688 970 q 677 991 684 991 q 683 997 677 997 q 656 1187 665 1155 q 662 1202 662 1197 q 646 1350 646 1279 l 646 1424 l 619 1424 l 604 1413 m 108 1123 q 123 1076 119 1076 l 119 1065 q 161 828 143 841 l 155 817 l 155 812 q 166 785 157 785 l 161 775 l 161 770 l 166 760 l 161 760 q 203 448 187 588 q 229 290 212 448 q 256 90 238 283 q 266 58 261 58 l 261 47 q 277 5 273 5 l 271 -5 l 271 -21 q 309 -195 282 -32 q 313 -206 313 -195 l 309 -206 l 351 -380 l 356 -380 q 435 -211 426 -267 q 361 147 361 102 q 282 686 315 346 l 287 686 q 239 986 239 971 q 192 1297 203 1174 q 108 1123 108 1167 m 1084 553 q 1126 543 1111 543 l 1126 538 q 1015 479 1126 514 q 894 385 922 424 l 894 380 q 1084 427 984 427 l 1094 427 q 1099 432 1099 427 l 1110 427 l 1152 427 q 1236 348 1236 405 q 1242 321 1242 348 l 1232 316 l 1226 316 q 1137 380 1206 380 l 1105 380 q 862 316 948 380 q 852 363 852 340 q 994 517 852 426 q 999 511 994 511 q 1084 553 999 522 m 55 169 q 87 153 87 162 l 87 116 q 81 111 87 111 q 277 -580 96 -113 q 282 -633 277 -605 q 176 -427 176 -485 q 161 -385 165 -427 q 134 -295 144 -359 q 113 -237 127 -295 l 118 -237 q 55 -16 96 -201 q 39 100 39 58 l 39 111 q 34 116 39 116 l 39 127 q 34 132 39 132 q 55 169 39 159 m 81 -332 q 165 -485 122 -332 q 282 -696 229 -617 l 271 -701 l 266 -701 q 224 -675 266 -686 q 171 -596 224 -665 q 118 -458 129 -510 q 76 -338 101 -458 q 81 -332 81 -338 m 793 -233 q 762 -285 793 -245 l 725 -343 l 725 -353 l 735 -353 l 804 -243 q 814 -233 814 -243 l 809 -233 l 809 -237 l 799 -233 l 793 -233 m 1020 -233 l 972 -306 q 978 -322 978 -316 l 983 -322 q 1042 -237 990 -322 l 1042 -233 l 1020 -233 m 951 -254 q 899 -328 909 -301 l 920 -328 q 957 -254 920 -319 l 951 -254 m 804 -343 q 857 -290 841 -343 q 878 -264 864 -290 l 878 -258 l 862 -258 q 804 -343 804 -321 m 614 -374 l 625 -374 q 630 -370 630 -374 l 640 -374 q 709 -264 656 -374 l 704 -264 q 662 -285 684 -285 l 614 -374 m 456 -406 l 467 -412 q 535 -290 535 -304 l 535 -275 l 524 -275 q 451 -406 451 -355 l 456 -406 m 598 -275 q 530 -385 598 -279 l 545 -385 q 604 -275 552 -384 l 598 -275 m 71 -522 q 113 -574 94 -522 q 203 -717 113 -581 l 203 -722 l 197 -722 q 108 -648 108 -686 q 60 -543 60 -583 l 60 -527 q 71 -522 71 -527 m 844 -463 q 849 -469 849 -463 q 870 -463 852 -469 q 913 -474 886 -463 l 913 -469 q 928 -474 923 -474 l 928 -484 q 596 -574 673 -526 q 585 -585 596 -585 q 575 -574 575 -585 l 575 -569 q 702 -495 575 -540 q 844 -463 743 -479 z "},"M":{"ha":1747,"x_min":34,"x_max":1686,"o":"m 1279 1752 q 1463 1683 1463 1697 q 1453 1673 1463 1673 l 1448 1673 q 1258 1731 1258 1700 l 1253 1731 q 1279 1752 1253 1742 m 187 1721 l 192 1721 q 144 1621 195 1694 l 96 1466 q 73 1396 92 1398 l 63 1399 l 66 1409 l 60 1430 q 157 1712 65 1565 l 187 1721 m 1179 1683 q 1237 1673 1217 1683 l 1237 1678 l 1295 1662 l 1295 1668 q 1501 1609 1404 1647 l 1511 1609 l 1511 1599 q 1501 1588 1511 1588 l 1480 1588 l 1469 1594 l 1469 1588 q 1163 1652 1356 1620 q 1179 1683 1168 1683 m 1069 1610 q 1217 1563 1099 1587 q 1454 1494 1307 1531 q 1501 1478 1501 1485 l 1512 1483 l 1522 1483 q 1607 1367 1550 1468 q 1670 1288 1670 1314 q 1659 1209 1665 1283 q 1665 1204 1665 1209 l 1659 1204 l 1665 1193 l 1665 1145 q 1659 1098 1665 1118 q 1676 676 1676 913 l 1681 676 q 1676 661 1676 666 l 1681 650 l 1676 640 q 1681 629 1676 629 l 1676 592 l 1676 503 q 1670 455 1676 484 q 1676 450 1670 450 l 1670 412 l 1670 381 q 1676 360 1670 369 q 1670 355 1676 355 q 1686 112 1686 205 q 1681 59 1681 66 l 1686 28 q 1665 -46 1686 -46 q 1533 -99 1636 -67 l 1528 -110 l 1517 -104 q 1249 -226 1419 -136 l 1133 -268 q 1000 -120 1079 -180 q 996 -110 1000 -110 q 1017 22 1010 -58 l 1011 22 l 1017 33 l 1017 49 q 1021 138 1017 77 q 979 49 1013 138 l 958 33 l 953 33 l 895 54 q 831 138 882 62 l 747 228 l 742 228 l 742 222 q 721 49 732 84 l 726 49 q 700 -210 717 -13 q 689 -241 694 -210 q 362 -194 656 -227 l 336 -199 q 331 -194 336 -194 l 331 -199 q 304 -189 304 -194 q 278 -199 278 -194 q 168 -73 242 -199 q 120 1 141 -63 q 73 54 77 54 l 77 106 l 77 112 q 73 117 77 117 l 77 127 l 77 133 q 132 668 77 235 q 142 884 142 819 l 147 884 q 142 890 147 890 q 178 1262 168 1192 q 172 1267 172 1262 l 178 1267 l 172 1278 l 172 1341 q 410 1452 319 1436 q 499 1499 410 1464 l 499 1494 q 700 1568 504 1494 q 732 1573 724 1568 q 848 1394 848 1411 q 905 1283 898 1284 q 990 1483 922 1312 q 1027 1594 998 1483 l 1038 1599 q 1043 1594 1038 1594 q 1069 1610 1043 1603 m 309 1672 q 332 1660 330 1668 q 272 1611 334 1653 q 145 1372 159 1466 q 96 1154 117 1305 q 89 1077 81 1151 l 83 1076 q 90 1072 85 1071 l 90 1045 l 92 1029 l 83 1027 q 70 1036 72 1025 l 62 1078 q 146 1507 34 1225 q 309 1672 232 1657 m 1101 1536 l 1095 1525 q 1154 1452 1101 1525 l 1227 1415 q 1233 1420 1233 1415 q 1349 1383 1292 1409 l 1349 1388 q 1570 1335 1349 1375 q 1428 1441 1506 1441 l 1101 1536 m 278 1335 q 331 1272 294 1303 q 441 1314 357 1272 l 441 1310 q 774 1426 702 1404 l 774 1430 q 705 1515 719 1506 q 447 1420 595 1468 q 326 1367 409 1391 q 278 1335 278 1343 m 932 1219 q 974 1093 958 1159 l 979 1093 q 1043 1219 994 1093 q 1122 1404 1090 1338 q 1059 1499 1098 1449 q 974 1310 1044 1485 q 932 1219 974 1293 m 974 972 q 922 1088 956 972 q 806 1362 922 1099 l 795 1362 l 784 1357 l 784 1367 l 774 1367 q 557 1293 648 1331 q 378 1225 550 1293 q 362 1156 378 1190 l 368 1156 q 357 1098 363 1145 l 362 1098 l 328 782 l 328 761 q 323 755 328 755 l 328 745 q 320 625 326 651 q 326 619 326 625 q 320 614 320 619 l 326 614 q 320 598 320 604 q 315 408 315 429 l 310 408 l 315 397 l 315 355 q 310 334 315 342 q 315 328 310 328 l 310 302 l 310 239 q 315 233 310 233 l 310 222 l 310 201 q 294 75 310 128 l 299 64 q 283 -57 299 8 l 288 -67 q 283 -125 283 -104 q 310 -136 296 -125 q 315 -131 315 -136 l 341 -136 l 378 -136 q 484 -152 415 -136 l 484 -146 q 647 -173 528 -157 q 663 -88 657 -88 q 658 -83 663 -83 q 694 302 694 217 l 700 302 q 694 307 700 307 q 726 555 706 469 q 816 387 764 528 q 858 317 830 381 q 943 144 875 316 l 953 138 l 958 138 q 1032 313 1019 300 q 1048 360 1032 317 l 1043 360 q 1095 471 1095 456 q 1154 576 1112 471 l 1185 613 q 1243 703 1193 655 q 1249 676 1243 685 q 1243 661 1249 671 q 1254 545 1254 567 l 1243 286 l 1249 286 q 1238 201 1238 263 l 1238 175 l 1233 165 q 1238 159 1238 165 q 1233 154 1233 159 q 1238 149 1238 154 q 1233 144 1233 149 l 1238 144 l 1227 85 l 1233 85 q 1222 17 1229 74 l 1227 17 q 1211 -52 1219 -52 q 1217 -57 1211 -57 q 1206 -88 1213 -88 l 1211 -120 q 1201 -173 1211 -134 l 1206 -173 l 1201 -183 l 1201 -189 l 1211 -189 q 1522 -52 1423 -66 q 1628 1 1626 -8 l 1628 7 q 1623 28 1628 28 l 1628 80 l 1628 201 l 1623 254 l 1628 254 l 1623 265 q 1617 412 1617 356 q 1612 423 1617 423 l 1617 450 l 1617 518 l 1623 571 l 1617 571 l 1623 581 l 1623 645 q 1617 666 1623 656 q 1623 687 1623 675 l 1623 708 q 1617 729 1623 720 q 1623 734 1617 734 l 1617 761 q 1623 829 1617 764 l 1617 877 l 1623 877 l 1617 887 q 1623 892 1617 892 q 1617 898 1623 898 q 1612 1109 1612 1031 l 1612 1193 q 1617 1198 1612 1198 l 1612 1209 l 1612 1267 q 1185 1373 1455 1299 l 1169 1373 q 1095 1198 1145 1360 q 1027 1046 1086 1195 q 974 972 1003 1002 m 225 1310 l 225 1299 q 197 927 200 984 q 195 848 195 871 l 195 837 q 189 832 195 832 q 195 827 189 827 l 189 800 l 189 785 q 195 779 189 779 l 189 768 l 189 742 q 179 679 189 679 q 184 673 179 673 l 174 605 q 179 600 174 600 q 162 465 166 475 q 168 460 162 460 q 136 218 157 406 q 130 201 130 218 l 130 138 l 125 85 l 130 85 l 125 75 l 125 64 q 231 -78 136 38 l 236 -78 q 241 12 241 -16 l 241 17 q 246 22 241 22 q 241 28 246 28 l 246 59 q 257 222 246 157 q 252 244 252 232 q 257 260 257 254 q 252 265 257 265 q 262 408 262 316 l 262 513 l 267 524 l 262 524 q 286 777 274 656 q 281 782 286 782 l 315 1135 l 310 1135 q 320 1172 320 1156 l 315 1172 l 320 1183 l 320 1198 l 241 1304 q 236 1310 241 1310 l 225 1310 m 1169 503 q 1164 492 1169 492 q 1190 460 1171 470 l 1196 460 q 1169 503 1177 503 m 1138 439 l 1138 429 l 1175 360 q 1190 344 1187 344 q 1196 360 1190 360 q 1138 439 1189 397 m 1106 365 l 1101 328 q 1133 270 1118 310 q 1185 228 1177 228 q 1190 292 1185 237 q 1116 365 1156 301 l 1106 365 m 1090 249 l 1085 239 l 1090 239 q 1074 159 1085 227 q 1080 144 1080 149 q 1074 138 1074 144 l 1080 138 q 1064 17 1070 115 l 1069 7 q 1059 -88 1059 -48 q 1148 -189 1100 -151 q 1169 1 1159 -58 l 1164 1 q 1175 59 1168 12 l 1169 59 l 1175 70 l 1175 85 q 1185 159 1175 120 q 1143 191 1185 183 q 1090 249 1143 207 m 142 -147 q 247 -305 146 -203 q 453 -379 354 -379 l 453 -374 l 463 -379 q 590 -311 498 -374 l 606 -311 q 448 -421 533 -421 l 432 -421 q 189 -321 326 -421 q 168 -295 189 -311 q 110 -189 110 -216 l 110 -163 q 142 -147 110 -147 m 909 -204 l 925 -204 q 920 -220 920 -214 q 1210 -420 920 -332 q 1373 -452 1247 -436 q 1516 -399 1449 -452 l 1521 -399 q 1457 -473 1521 -431 q 1453 -468 1457 -468 q 1368 -489 1453 -486 l 1352 -489 q 941 -352 1173 -489 q 888 -257 888 -288 l 888 -241 q 909 -204 888 -213 m 168 -384 l 189 -384 q 557 -500 325 -463 l 568 -494 l 605 -500 q 747 -416 696 -500 l 753 -416 q 668 -521 753 -489 q 600 -542 663 -528 l 589 -536 l 573 -536 l 563 -542 q 557 -536 563 -536 l 557 -542 q 189 -437 346 -511 l 151 -395 l 168 -384 m 1554 -484 l 1565 -484 q 1570 -494 1565 -494 q 1401 -606 1518 -606 l 1359 -606 q 1354 -610 1354 -606 q 1180 -574 1220 -589 l 1180 -579 q 1095 -553 1131 -568 l 1095 -558 q 1291 -684 1207 -651 l 1291 -690 q 1264 -711 1289 -701 q 1138 -642 1242 -711 q 1106 -610 1138 -634 l 1059 -558 q 1069 -536 1069 -545 l 1053 -505 q 1069 -494 1069 -500 q 1085 -505 1085 -500 l 1095 -500 q 1385 -563 1248 -563 l 1401 -563 q 1544 -505 1514 -563 q 1554 -484 1554 -492 z "},"N":{"ha":1799,"x_min":34,"x_max":1737,"o":"m 1203 1932 q 1251 1916 1213 1932 l 1251 1895 l 1245 1895 l 1208 1900 q 1203 1895 1208 1895 l 1203 1900 q 987 1531 1076 1900 q 966 1505 987 1512 l 956 1531 q 960 1552 960 1540 q 956 1557 960 1557 q 1082 1879 990 1761 q 1203 1932 1130 1932 m 999 1844 l 1010 1844 l 1015 1807 q 962 1670 962 1712 l 968 1670 q 936 1549 953 1635 l 925 1549 l 915 1596 l 915 1612 q 962 1796 915 1650 q 999 1844 999 1830 m 735 1813 q 809 1670 762 1792 l 909 1391 l 994 1180 q 1025 1122 1014 1122 q 1105 1670 1057 1291 q 1120 1744 1120 1697 l 1379 1760 q 1421 1754 1399 1754 l 1421 1760 q 1437 1754 1431 1754 q 1637 1749 1616 1749 q 1679 1681 1646 1723 q 1737 1554 1710 1588 l 1737 1517 q 1685 1059 1737 1419 l 1690 1038 q 1669 953 1674 988 q 1674 947 1669 947 q 1622 621 1643 800 l 1627 621 l 1548 41 l 1411 -33 q 1405 -28 1411 -28 q 1242 -118 1386 -50 q 1078 -218 1117 -189 l 1073 -218 q 925 -75 984 -190 q 799 278 836 198 q 735 404 774 361 q 714 299 725 313 l 720 262 q 683 -60 697 -60 l 672 -60 q 535 -33 578 -44 l 535 -39 l 488 -28 l 488 -33 q 419 -18 465 -24 l 408 -23 q 340 -7 354 -18 l 340 -12 l 330 -7 l 292 -7 q 218 3 275 -7 l 208 -2 q 150 93 177 -2 q 81 241 141 97 q 34 362 72 242 q 45 410 39 399 l 39 410 q 55 557 55 467 q 60 563 60 557 l 55 563 q 92 842 71 594 q 102 863 96 842 l 97 873 q 134 1080 97 949 l 129 1080 q 171 1480 153 1223 q 187 1617 187 1571 l 187 1691 q 224 1723 200 1714 q 229 1718 224 1718 l 229 1723 l 239 1718 q 324 1739 282 1723 q 330 1733 330 1739 q 488 1765 385 1749 l 488 1760 q 640 1786 547 1781 q 735 1813 659 1795 m 271 1659 q 334 1501 271 1600 q 477 1533 352 1501 l 772 1596 q 778 1612 778 1607 q 730 1739 741 1695 l 714 1749 l 699 1749 q 387 1691 623 1728 l 271 1659 m 1173 1697 q 1236 1560 1222 1575 q 1284 1549 1273 1554 q 1305 1554 1293 1554 l 1316 1549 q 1321 1554 1316 1554 l 1321 1549 l 1331 1554 l 1337 1554 q 1358 1549 1348 1554 l 1369 1554 q 1437 1544 1437 1550 l 1447 1549 l 1468 1549 q 1474 1544 1474 1549 q 1479 1549 1479 1544 l 1506 1544 l 1553 1544 l 1563 1549 q 1569 1544 1563 1544 q 1574 1549 1569 1549 q 1579 1544 1574 1544 l 1579 1549 l 1590 1544 l 1600 1544 q 1606 1549 1606 1544 l 1616 1544 l 1622 1544 q 1643 1549 1633 1544 q 1664 1544 1652 1544 q 1669 1560 1669 1554 q 1616 1697 1658 1645 q 1611 1702 1611 1697 l 1558 1697 l 1532 1697 l 1495 1702 l 1495 1697 q 1490 1702 1490 1697 q 1474 1697 1484 1702 q 1400 1702 1429 1702 l 1373 1702 q 1369 1707 1369 1702 l 1358 1702 q 1352 1707 1352 1702 l 1342 1702 q 1268 1707 1334 1702 q 1253 1702 1263 1707 l 1221 1707 l 1210 1707 l 1173 1697 m 1147 1612 l 1094 1201 l 1067 1059 q 1073 1053 1073 1059 l 1067 1053 l 1073 1042 q 1063 1011 1063 1021 q 1126 873 1103 888 l 1131 873 q 1152 1095 1141 958 l 1147 1095 q 1173 1280 1168 1173 q 1183 1322 1179 1322 l 1179 1333 l 1179 1364 l 1183 1375 l 1179 1375 q 1200 1496 1194 1442 q 1152 1612 1186 1503 l 1147 1612 m 239 1560 q 235 1554 239 1554 l 239 1528 l 239 1517 l 235 1507 l 239 1507 q 213 1370 213 1434 l 218 1359 q 203 1249 208 1307 q 208 1243 203 1243 l 197 1196 q 203 1175 203 1186 q 197 1169 197 1175 l 203 1169 q 192 1137 197 1137 q 197 1122 197 1127 q 171 1006 182 1068 l 176 1006 q 155 926 165 988 l 161 926 q 150 895 155 895 q 155 890 150 890 q 140 800 149 830 l 144 800 l 140 789 q 144 768 140 778 l 97 431 l 102 431 l 97 420 l 97 383 q 102 362 97 372 l 97 352 q 165 178 97 338 q 176 167 168 167 l 176 172 q 171 241 176 176 l 176 241 q 171 246 176 246 q 187 410 187 326 l 187 447 q 208 594 197 553 l 203 594 q 256 1021 233 738 l 282 1217 q 277 1222 282 1222 q 298 1438 287 1295 q 260 1533 283 1462 l 239 1560 m 683 1522 q 667 1528 673 1528 q 566 1501 667 1519 q 498 1480 498 1487 q 482 1486 488 1486 q 355 1449 432 1465 q 340 1396 340 1421 l 340 1364 q 334 1359 340 1359 l 340 1348 l 340 1343 l 334 1306 l 340 1306 l 292 916 q 298 911 292 911 q 250 552 271 609 q 256 547 250 547 l 239 436 l 245 436 l 239 425 l 239 368 l 218 77 q 266 45 218 58 l 277 51 q 313 41 287 51 l 313 45 l 372 35 q 387 41 382 41 q 630 -2 460 24 q 646 9 646 3 q 656 151 646 39 l 651 172 q 667 262 667 218 q 661 278 667 268 q 699 600 677 380 q 704 636 704 600 l 704 642 l 714 642 q 836 399 735 592 l 946 115 l 1052 -134 q 1067 -165 1062 -135 q 1316 -28 1159 -100 q 1384 3 1316 -21 l 1495 72 q 1548 489 1521 171 q 1595 848 1562 519 q 1616 905 1608 905 l 1616 921 q 1690 1480 1616 968 l 1664 1496 l 1658 1496 l 1606 1491 q 1600 1496 1606 1496 l 1600 1491 q 1584 1501 1584 1496 q 1542 1491 1575 1501 q 1537 1496 1537 1491 l 1511 1491 q 1442 1496 1445 1496 l 1442 1491 l 1432 1496 l 1384 1496 q 1379 1491 1379 1496 l 1369 1496 l 1363 1496 q 1358 1491 1358 1496 l 1348 1496 q 1342 1491 1342 1496 q 1295 1501 1305 1496 q 1274 1496 1285 1496 l 1253 1496 l 1236 1407 q 1242 1401 1236 1401 q 1231 1338 1231 1351 l 1236 1338 l 1226 1317 q 1231 1312 1226 1312 l 1221 1227 l 1226 1227 l 1221 1217 q 1226 1211 1221 1211 l 1205 1116 l 1210 1116 l 1205 1106 l 1205 1095 q 1210 1090 1205 1090 l 1200 1063 l 1205 1063 q 1200 1048 1200 1053 q 1189 937 1200 979 l 1194 937 q 1152 721 1194 913 l 1141 721 q 936 1175 1065 823 q 814 1507 878 1310 q 788 1538 806 1538 l 788 1544 q 683 1522 696 1531 m 50 93 l 55 93 q 250 -160 55 5 q 256 -155 256 -160 q 308 -170 297 -170 l 355 -170 l 355 -192 q 298 -208 355 -208 q 245 -197 269 -208 q 239 -202 245 -202 q 187 -170 239 -193 q 45 77 45 -32 q 50 93 50 87 m 804 56 q 809 41 804 41 l 804 30 l 804 -44 q 793 -113 804 -89 l 799 -113 q 762 -360 788 -141 l 751 -360 l 756 -371 l 756 -392 q 735 -445 756 -410 l 741 -455 q 725 -471 741 -463 l 725 -460 q 730 -455 725 -455 q 725 -450 730 -450 l 730 -413 l 730 -366 q 725 -360 730 -360 l 735 -339 q 730 -318 730 -330 q 735 -313 735 -318 l 730 -313 l 735 -302 l 735 -287 q 751 -160 735 -267 l 746 -160 q 804 56 780 56 m 266 -92 q 372 -107 362 -102 l 372 -102 l 382 -107 l 425 -107 q 456 -118 439 -107 l 456 -113 l 467 -118 q 488 -113 478 -118 l 498 -118 l 524 -113 l 562 -118 l 593 -113 l 598 -113 l 598 -118 q 450 -149 547 -149 q 446 -144 450 -144 l 446 -149 l 435 -144 q 429 -149 429 -144 l 419 -144 q 414 -149 414 -144 l 387 -144 l 355 -144 q 250 -113 264 -144 q 266 -92 258 -92 m 846 -92 l 862 -92 q 878 -160 878 -92 l 878 -181 q 883 -186 878 -186 l 878 -197 q 883 -202 878 -202 q 878 -208 883 -208 q 888 -271 884 -262 l 883 -271 q 894 -382 894 -298 l 894 -413 q 888 -466 894 -438 q 894 -513 894 -486 l 894 -540 l 888 -540 q 836 -97 836 -267 l 846 -92 m 1469 -116 q 1379 -179 1469 -141 l 1147 -316 q 1063 -358 1114 -349 l 1063 -348 q 1232 -227 1124 -279 l 1300 -184 l 1469 -111 l 1469 -116 m 161 -232 q 243 -246 170 -230 q 405 -233 377 -239 l 413 -227 q 428 -232 427 -228 q 380 -265 433 -254 l 319 -279 l 309 -277 l 310 -281 q 260 -279 288 -279 l 260 -283 q 157 -252 163 -277 q 161 -232 157 -233 m 691 -155 l 702 -155 l 702 -186 q 633 -323 673 -229 q 602 -366 607 -366 l 591 -366 l 591 -355 q 623 -255 604 -328 q 691 -155 646 -188 m 1390 -260 l 1411 -260 l 1411 -265 q 1253 -345 1411 -285 q 1084 -403 1105 -403 l 1067 -403 l 1067 -397 q 1247 -308 1133 -343 l 1289 -287 l 1289 -292 q 1390 -260 1358 -260 m 1437 -345 q 1453 -350 1447 -350 l 1453 -361 q 1390 -387 1453 -371 q 1136 -439 1191 -439 l 1110 -435 l 1110 -424 q 1173 -408 1165 -408 q 1231 -382 1192 -389 l 1231 -387 l 1331 -366 l 1331 -371 q 1379 -355 1364 -355 l 1379 -361 q 1437 -345 1429 -345 z "},"O":{"ha":1282,"x_min":34,"x_max":1221,"o":"m 180 1862 l 190 1864 q 201 1855 201 1864 q 158 1722 204 1832 q 101 1572 122 1638 l 91 1571 l 79 1575 q 141 1784 113 1718 l 180 1862 m 481 1841 q 538 1815 538 1830 q 507 1809 515 1815 l 496 1815 q 365 1735 420 1781 l 354 1741 q 280 1657 354 1731 q 159 1430 159 1472 l 143 1430 l 143 1435 q 191 1572 143 1511 q 301 1735 191 1610 q 481 1841 395 1841 m 270 1836 q 280 1815 280 1823 q 106 1340 124 1535 l 101 1340 q 85 1382 92 1352 q 149 1636 85 1485 l 159 1630 q 222 1783 159 1683 q 270 1836 248 1836 m 836 1793 q 994 1756 918 1786 q 1110 1630 1077 1704 q 1194 1366 1152 1574 l 1221 1102 l 1221 1044 q 1215 1039 1221 1039 l 1221 1028 l 1210 828 q 1215 812 1215 818 l 1194 686 q 1200 680 1194 680 q 1147 395 1179 528 l 1152 385 q 941 -142 1078 52 q 867 -222 897 -179 q 741 -349 773 -343 q 593 -433 659 -433 q 577 -438 593 -438 l 577 -433 q 498 -448 498 -444 l 488 -444 q 482 -448 482 -444 q 403 -427 443 -444 l 398 -427 l 398 -433 q 155 -258 207 -366 q 45 90 78 -146 l 45 142 l 39 153 l 45 153 q 39 169 39 163 q 34 300 39 199 l 39 311 l 34 321 q 45 490 45 476 l 39 501 q 55 638 50 567 q 50 643 50 638 l 55 643 q 50 659 50 654 q 144 1144 76 892 l 144 1149 l 140 1149 q 345 1519 208 1382 q 640 1740 488 1659 q 836 1793 722 1777 m 577 1630 l 614 1630 l 646 1635 q 862 1519 795 1600 q 962 1282 912 1447 l 999 1118 l 1004 1118 q 1152 1255 1104 1216 q 1078 1571 1152 1350 q 920 1730 1004 1710 q 888 1740 888 1735 q 883 1735 883 1740 l 846 1740 l 841 1740 q 836 1735 836 1740 q 820 1740 825 1740 q 619 1677 732 1740 q 577 1640 619 1668 l 577 1630 m 208 1144 l 197 1144 q 203 1139 197 1139 q 113 643 113 776 l 108 643 l 113 633 q 102 549 113 615 l 108 538 q 97 496 104 496 l 102 485 l 102 475 q 97 469 102 469 q 102 464 97 464 l 97 427 l 97 211 q 108 121 99 121 q 102 116 108 116 q 113 52 109 66 l 108 52 q 203 -222 166 -222 q 287 -322 203 -260 q 450 -391 347 -372 q 467 -396 450 -396 l 530 -396 q 572 -380 543 -387 l 572 -385 q 741 -258 675 -357 q 841 -16 783 -188 q 894 221 894 116 l 920 348 l 920 406 q 936 485 936 465 l 930 496 q 951 659 941 522 l 946 680 q 951 696 951 690 l 946 696 l 957 749 l 951 749 l 962 807 q 951 991 957 816 l 946 991 q 951 997 946 997 l 936 1107 l 941 1107 q 841 1429 892 1345 q 846 1434 846 1429 q 709 1556 770 1556 q 661 1577 709 1567 l 619 1577 l 556 1571 l 556 1577 q 435 1524 473 1554 q 250 1271 312 1463 q 208 1144 208 1202 m 1004 1044 l 1004 1039 q 1015 876 1004 1002 q 1162 1023 1148 983 l 1162 1139 l 1158 1192 q 1004 1044 1004 1051 m 1015 807 l 1020 754 l 1020 659 q 1152 807 1152 786 q 1158 928 1152 831 q 1020 807 1023 807 l 1015 807 m 541 902 q 625 823 608 902 l 640 760 l 635 749 l 635 743 l 646 743 l 646 701 q 651 680 646 690 l 646 669 l 651 648 l 646 617 l 651 617 l 646 606 l 646 591 q 651 585 646 585 l 614 401 q 551 279 614 390 q 482 237 545 258 l 482 232 l 477 232 q 440 264 477 240 q 425 327 440 278 l 429 327 l 425 337 q 429 348 425 348 l 425 401 l 425 427 q 446 617 425 507 q 440 622 446 622 q 519 880 477 838 q 541 902 528 880 m 509 690 l 509 686 l 514 686 q 583 764 545 711 l 577 764 q 509 690 537 764 m 999 522 l 1004 522 l 994 479 l 999 479 q 1105 606 1093 559 q 1126 638 1115 606 l 1120 648 q 1136 690 1136 675 l 1136 701 q 1010 574 1053 612 q 999 522 1004 532 m 583 696 q 503 627 538 651 l 493 612 l 498 591 q 493 553 493 570 q 593 633 581 633 l 593 648 q 588 654 593 654 l 593 665 l 593 675 l 588 686 q 593 690 593 686 l 583 696 m 577 559 q 477 458 576 551 l 482 458 l 477 448 l 477 406 l 482 395 q 577 485 494 395 q 588 543 583 536 q 583 549 583 543 q 588 553 588 549 l 577 559 m 968 311 l 972 311 q 1105 443 1017 323 q 1115 517 1105 466 q 972 348 972 391 l 968 311 m 541 380 l 524 359 l 514 363 q 488 348 496 348 l 488 300 l 498 300 q 545 380 513 307 l 541 380 m 936 184 l 941 184 q 1078 321 1078 302 q 941 211 944 224 l 936 184 m 915 84 l 915 52 q 1031 158 951 89 q 1041 205 1041 193 l 1041 211 q 915 84 915 107 m 968 31 q 867 -58 869 -49 l 862 -79 l 867 -79 q 972 31 941 -11 l 968 31 m 72 -343 l 77 -343 q 203 -480 132 -446 q 383 -532 252 -517 q 441 -538 405 -532 q 473 -528 473 -532 q 488 -532 483 -532 q 399 -570 464 -570 q 393 -564 399 -564 l 393 -570 l 383 -564 q 361 -570 371 -564 q 146 -485 231 -546 q 61 -380 75 -414 l 61 -353 q 72 -343 63 -343 m 92 -538 l 102 -538 q 319 -591 159 -591 l 398 -591 l 450 -596 l 450 -591 q 456 -596 456 -591 q 509 -586 495 -586 l 509 -591 l 519 -586 q 535 -591 525 -586 l 635 -575 l 635 -581 q 661 -570 652 -570 l 661 -575 l 672 -570 l 683 -570 q 472 -628 683 -609 l 450 -628 l 440 -633 l 440 -628 l 429 -633 l 351 -633 q 92 -570 117 -633 l 92 -538 m 841 -543 l 851 -543 q 783 -633 837 -600 q 467 -733 686 -691 l 456 -728 l 419 -733 q 345 -712 360 -726 q 351 -696 351 -702 q 799 -591 556 -696 q 841 -543 841 -557 z "},"P":{"ha":1721,"x_min":34,"x_max":1659,"o":"m 236 1438 l 236 1422 q 168 1385 225 1422 q 73 1354 98 1354 l 73 1369 q 236 1438 84 1392 m 330 1412 l 336 1412 q 277 1375 336 1398 l 77 1254 q 72 1249 77 1249 l 66 1259 l 66 1275 q 262 1385 127 1333 q 304 1402 262 1396 l 304 1396 l 330 1412 m 1000 1371 l 1027 1366 l 1080 1366 q 1101 1360 1091 1366 l 1111 1366 q 1412 1208 1251 1350 q 1486 1139 1421 1208 q 1544 1070 1486 1122 q 1654 807 1654 943 q 1659 775 1659 807 l 1659 743 q 1612 443 1659 559 q 1306 105 1516 216 q 1249 74 1306 97 q 990 -26 1194 43 l 990 -21 q 968 -47 968 -26 l 974 -85 q 968 -100 974 -90 q 990 -280 981 -242 q 985 -285 985 -280 q 990 -290 990 -285 l 985 -290 l 990 -301 l 990 -306 q 985 -311 990 -311 q 995 -385 988 -321 l 990 -385 q 1006 -480 995 -394 q 937 -522 1006 -500 q 932 -517 937 -517 q 715 -591 932 -526 q 547 -654 600 -644 q 541 -659 547 -659 q 425 -596 469 -627 q 330 -496 330 -526 l 330 -480 q 309 -269 330 -437 l 309 -233 q 315 -227 309 -227 q 304 -138 304 -198 l 309 -138 l 304 -127 q 288 190 304 -56 l 288 205 l 283 216 l 288 216 q 257 543 257 469 l 257 549 q 140 606 252 569 q 77 1028 115 606 q 210 1118 77 1044 q 257 1155 225 1118 q 389 1223 276 1155 q 552 1292 434 1239 q 568 1297 557 1292 l 568 1292 q 890 1355 796 1355 q 947 1366 890 1360 l 947 1360 q 1000 1371 1000 1366 m 130 997 q 140 918 140 947 l 140 880 l 146 870 l 140 870 q 167 701 151 836 l 162 701 q 178 675 169 675 q 257 717 255 707 q 304 612 304 717 q 309 549 304 576 l 304 549 l 309 538 l 309 517 q 326 374 309 459 l 320 374 q 341 237 336 237 l 336 227 q 341 184 341 197 q 336 169 341 179 q 368 -343 351 109 q 399 -507 380 -460 q 774 -391 432 -507 l 795 -374 l 789 -364 l 789 -349 q 779 -280 789 -304 l 784 -269 q 736 121 768 -171 q 753 163 742 163 l 789 163 l 805 153 q 1048 205 908 153 q 1133 237 1078 205 q 1238 311 1143 237 q 1428 585 1362 382 q 1475 886 1475 704 q 1370 1171 1475 1002 q 1175 1297 1253 1283 q 1106 1313 1175 1306 l 1095 1308 q 1042 1318 1071 1318 q 1021 1313 1024 1313 q 1000 1318 1013 1318 q 985 1313 990 1313 l 985 1318 q 615 1250 788 1297 q 357 1144 511 1223 q 146 1013 178 1042 q 130 997 146 997 m 384 1365 l 399 1344 q 83 1170 259 1241 q 67 1212 67 1196 q 220 1286 85 1240 q 384 1365 378 1365 m 1512 1013 l 1512 1007 q 1533 833 1533 961 l 1528 833 l 1533 823 l 1528 812 l 1533 812 l 1512 659 q 1575 612 1533 659 q 1591 606 1581 612 q 1596 633 1591 633 l 1591 643 l 1591 669 q 1596 675 1591 675 q 1591 680 1596 680 l 1596 733 l 1596 791 q 1591 796 1596 796 q 1596 802 1591 802 q 1544 965 1582 916 q 1512 1013 1524 1011 m 852 918 q 947 849 911 897 q 995 722 995 781 q 943 585 986 633 q 810 506 880 506 l 795 506 q 763 522 763 517 l 753 517 q 700 601 700 517 q 705 606 700 606 q 663 838 689 739 q 742 886 663 871 q 852 918 752 912 m 821 838 l 821 833 l 900 760 l 943 733 l 943 743 q 890 791 943 750 q 826 838 890 817 l 821 838 m 774 796 l 774 791 q 837 728 837 732 q 895 690 840 728 l 900 690 l 900 696 q 774 796 814 777 m 742 743 l 742 722 q 848 638 770 677 l 848 659 l 747 743 l 742 743 m 210 638 l 210 633 q 252 612 210 619 l 246 648 l 241 648 q 210 638 229 638 m 753 627 q 800 564 760 564 l 805 564 q 848 570 810 564 q 784 617 837 589 l 784 612 l 758 627 l 753 627 m 1491 596 q 1470 527 1491 591 q 1565 464 1500 464 q 1581 553 1565 475 q 1512 596 1581 559 l 1491 596 m 1433 454 q 1396 385 1433 448 q 1480 342 1453 342 l 1501 342 q 1533 401 1501 351 l 1533 422 q 1470 437 1525 422 l 1443 437 l 1443 454 l 1433 454 m 1354 337 q 1322 300 1322 307 q 1428 258 1394 258 l 1454 295 q 1354 337 1366 337 m 1275 274 q 1243 242 1275 270 q 1354 200 1300 200 l 1370 221 q 1275 274 1345 221 m 1190 211 l 1180 195 l 1180 190 l 1249 147 l 1270 147 q 1285 163 1277 147 q 1190 211 1275 163 m 1085 163 q 1180 111 1110 130 l 1196 111 q 1122 174 1122 169 q 1085 163 1106 163 m 1538 158 l 1538 153 q 1428 -5 1514 80 l 1428 -11 q 1501 58 1436 -11 l 1507 58 l 1507 26 q 1333 -169 1463 -52 q 1232 -237 1268 -227 q 1211 -222 1211 -230 l 1211 -211 q 1280 -153 1212 -200 q 1401 -32 1401 -45 q 1122 -169 1220 -169 q 1069 -138 1069 -154 q 1080 -111 1070 -111 l 1116 -127 q 1486 121 1283 -96 q 1538 158 1486 128 m 1016 132 q 1101 79 1080 79 l 1106 79 l 1106 84 q 1027 142 1088 84 q 1016 132 1016 140 m 842 105 l 842 100 q 921 52 844 85 l 921 63 q 842 105 911 63 m 953 95 q 1000 74 981 74 q 968 105 1000 81 l 964 105 q 953 95 953 104 m 795 58 l 795 52 q 821 16 799 24 q 890 -43 848 -20 q 911 -58 890 -50 l 911 -5 q 795 58 862 44 m 218 26 l 224 26 q 235 15 235 24 l 235 9 l 224 -6 l 229 -6 q 144 -117 194 -62 q 140 -112 144 -112 q 92 -154 107 -154 l 92 -149 q 150 -38 150 -56 q 218 26 208 26 m 810 -53 l 810 -74 q 873 -142 831 -74 q 911 -180 903 -150 l 921 -180 l 916 -169 l 916 -95 q 900 -100 910 -95 q 810 -53 887 -100 m 218 -59 l 239 -59 q 256 -75 247 -59 q 176 -281 256 -92 q 113 -428 155 -314 l 39 -581 l 34 -581 l 34 -576 q 66 -470 37 -514 l 60 -470 l 203 -85 q 218 -59 218 -74 m 821 -174 l 821 -180 q 837 -195 821 -187 l 831 -206 l 831 -222 q 932 -311 905 -299 l 932 -290 q 895 -227 932 -227 q 821 -174 844 -174 m 837 -301 q 869 -374 837 -359 q 943 -433 939 -433 l 937 -380 l 937 -359 l 858 -311 l 837 -301 m 266 -270 q 245 -317 264 -295 l 250 -328 q 161 -549 175 -532 l 155 -549 l 155 -528 q 171 -486 164 -516 l 165 -475 q 239 -275 214 -275 q 266 -270 248 -270 m 831 -422 q 900 -469 831 -429 l 900 -465 q 842 -422 870 -422 l 831 -422 m 768 -454 l 768 -459 q 831 -496 807 -496 l 837 -496 q 768 -454 837 -482 m 679 -469 q 736 -512 690 -489 l 742 -512 l 742 -507 q 705 -469 724 -507 l 679 -469 m 594 -501 l 594 -512 q 679 -543 640 -538 q 684 -549 679 -549 l 684 -543 q 626 -491 626 -496 q 594 -501 604 -501 m 520 -528 q 589 -586 525 -538 l 600 -586 q 610 -575 610 -586 q 526 -528 604 -575 l 520 -528 m 447 -549 l 447 -554 q 505 -586 477 -586 q 463 -559 492 -568 q 447 -549 463 -554 z "},"Q":{"ha":1445,"x_min":34,"x_max":1384,"o":"m 694 1575 l 704 1575 q 778 1529 755 1575 l 778 1518 q 767 1507 778 1507 l 757 1507 q 715 1533 736 1533 q 467 1360 631 1520 l 330 1196 q 182 975 250 1095 l 177 975 q 172 980 177 980 q 140 932 152 934 l 135 932 q 224 1122 187 1089 q 472 1434 286 1242 q 694 1575 608 1558 m 462 1539 q 483 1512 483 1533 q 351 1344 439 1478 q 245 1196 260 1196 q 182 1101 182 1116 l 172 1101 l 172 1107 q 261 1270 172 1123 q 288 1312 261 1299 q 462 1539 399 1539 m 314 1486 l 319 1486 l 319 1481 l 314 1455 l 319 1455 l 219 1286 q 151 1101 161 1118 q 140 1090 140 1101 l 130 1090 q 156 1223 130 1129 l 151 1223 l 219 1381 q 261 1449 233 1388 q 314 1486 281 1454 m 915 1444 q 920 1438 920 1444 l 947 1444 q 1020 1434 1020 1441 l 1031 1438 l 1036 1438 q 1162 1381 1145 1409 l 1173 1375 l 1173 1381 q 1352 1164 1352 1236 q 1373 1101 1358 1164 q 1368 1096 1373 1096 q 1384 991 1379 991 l 1379 980 l 1384 970 l 1379 943 l 1384 943 l 1379 932 l 1379 922 q 1384 917 1379 917 q 1341 690 1362 772 q 1109 295 1285 486 q 1225 168 1125 249 q 1263 137 1225 155 q 1289 90 1283 96 l 1289 84 q 1236 37 1289 73 q 1073 -111 1099 -111 q 951 -222 1073 -118 q 852 -332 852 -326 l 841 -342 q 783 -243 812 -342 q 746 -184 774 -243 q 694 -127 716 -132 q 625 -184 671 -138 l 567 -232 q 541 -227 549 -232 q 451 -237 485 -237 q 267 -174 267 -201 q 172 -85 245 -174 q 71 216 86 51 q 56 374 65 317 l 66 411 l 61 411 q 71 437 66 437 l 66 448 q 109 616 82 565 q 103 632 103 627 l 124 675 l 119 685 l 140 738 q 135 759 135 747 q 209 901 140 759 q 245 959 235 959 q 372 1143 311 1074 q 519 1291 418 1226 l 583 1344 l 593 1344 q 599 1339 599 1344 q 799 1423 737 1423 q 915 1444 828 1438 m 841 1370 q 836 1375 836 1370 q 583 1249 688 1344 q 377 964 382 1033 q 298 664 306 823 q 293 653 293 664 l 298 643 q 288 611 288 625 l 288 569 l 282 559 q 288 553 288 559 l 282 553 l 288 543 l 288 516 q 309 379 288 445 l 303 379 q 330 327 318 344 l 325 327 l 367 211 q 393 158 380 211 q 578 5 515 5 l 588 -5 q 593 0 593 -5 q 662 -16 648 -11 l 662 -11 q 677 -16 672 -16 q 831 37 740 -16 l 841 31 l 841 37 q 904 -42 874 37 q 941 -116 924 -47 q 962 -132 956 -116 q 1052 -58 990 -119 q 1210 84 1065 -58 l 1210 90 q 1152 168 1210 100 q 1105 216 1152 174 q 1046 279 1057 279 l 1046 284 q 1099 353 1046 309 q 1268 659 1259 572 q 1326 970 1326 820 q 1320 1065 1320 1019 l 1316 1065 l 1320 1075 q 1305 1133 1316 1109 l 1310 1133 q 1236 1254 1295 1186 q 1231 1249 1236 1249 q 1088 1360 1225 1290 q 994 1386 1043 1379 l 994 1391 q 978 1386 983 1386 q 936 1391 973 1386 l 936 1386 q 930 1391 930 1386 q 841 1370 841 1383 m 862 928 q 1004 753 967 928 l 1004 659 l 1010 648 q 983 569 998 648 q 820 363 917 394 q 783 332 783 337 l 762 342 q 720 337 733 337 l 720 342 q 715 337 715 342 l 604 353 q 609 358 604 358 q 567 395 609 365 l 562 406 q 572 416 572 406 q 556 453 564 416 l 562 464 q 556 522 562 486 q 583 616 572 546 q 620 711 591 623 q 656 780 627 711 q 772 896 755 896 l 810 917 l 810 911 l 862 928 m 119 358 q 114 353 114 358 l 124 348 q 119 342 124 342 l 124 316 l 124 300 q 140 153 124 207 l 145 153 q 272 284 153 153 l 272 300 q 230 516 230 434 l 230 532 q 235 553 230 544 q 230 580 230 562 q 235 659 230 592 l 230 659 q 256 812 240 674 q 203 738 203 774 q 151 585 172 705 q 119 379 134 585 l 119 358 m 909 806 l 857 738 l 857 727 q 878 706 878 727 l 899 706 q 936 759 899 723 q 909 806 927 799 m 620 516 q 625 511 620 511 l 620 485 l 620 458 q 715 385 665 385 q 720 390 720 385 q 725 385 725 390 q 852 490 813 385 q 878 574 864 496 q 825 664 878 608 q 783 690 812 678 q 767 685 773 685 q 736 701 762 701 l 709 701 q 625 553 640 642 q 620 516 625 537 m 909 664 q 925 627 925 637 q 936 637 936 627 l 930 637 q 941 701 936 646 l 936 701 q 909 664 923 701 m 288 242 q 156 95 166 95 l 156 90 l 177 16 l 182 16 q 330 158 270 113 q 288 242 296 235 m 340 126 q 251 26 340 117 q 209 -32 251 19 q 235 -58 209 -46 q 388 74 374 74 q 351 126 351 110 l 340 126 m 267 -95 l 267 -106 q 356 -21 294 -106 q 414 26 406 26 l 414 42 q 267 -95 334 -20 m 80 -7 l 92 -22 l 92 -28 l 83 -44 l 84 -55 q 254 -288 90 -119 q 463 -370 365 -378 l 463 -374 q 396 -397 452 -388 q 220 -323 323 -401 q 59 -126 122 -239 q 37 -60 40 -91 q 80 -7 34 -26 m 319 -137 l 319 -142 l 325 -142 q 477 -5 380 -125 q 462 5 462 -5 q 319 -137 452 5 m 736 -79 q 762 -106 739 -93 q 841 -32 803 -85 l 841 -26 l 836 -26 q 736 -79 821 -39 m 514 -32 q 467 -90 514 -45 l 472 -90 q 530 -47 517 -47 l 530 -42 q 519 -32 530 -32 l 514 -32 m 435 -179 l 440 -179 l 451 -174 l 451 -179 q 572 -79 492 -160 q 583 -58 583 -79 l 578 -58 l 435 -179 m 535 -179 l 551 -179 q 609 -132 551 -170 q 651 -90 611 -114 l 667 -74 l 641 -68 l 635 -68 l 535 -179 m 783 -142 l 783 -153 q 799 -169 783 -161 q 873 -90 846 -134 l 873 -85 q 862 -74 873 -74 q 783 -142 783 -138 m 888 -127 q 862 -158 888 -137 q 820 -211 820 -201 q 846 -243 827 -233 q 904 -184 869 -243 q 915 -174 915 -184 q 888 -127 904 -127 m 699 -216 l 715 -216 q 720 -227 715 -227 q 694 -353 699 -267 q 778 -490 709 -490 l 799 -490 q 930 -422 822 -490 q 947 -406 947 -422 l 962 -406 q 862 -496 956 -425 q 783 -532 822 -520 l 772 -527 l 762 -532 q 651 -416 686 -532 q 656 -411 651 -411 l 651 -385 l 651 -327 q 699 -216 651 -251 m 1131 -285 l 1131 -295 q 1073 -338 1131 -303 q 1067 -332 1073 -332 q 1010 -374 1062 -349 l 1004 -374 q 1131 -285 1050 -320 m 593 -443 l 625 -443 q 783 -585 625 -561 q 788 -580 783 -580 l 793 -591 l 846 -559 l 867 -553 l 867 -570 q 778 -622 815 -622 l 767 -622 q 593 -522 641 -622 q 583 -464 583 -501 q 593 -443 593 -451 z "}}}
